%TF.GenerationSoftware,KiCad,Pcbnew,9.0.7*%
%TF.CreationDate,2026-02-11T21:28:42+01:00*%
%TF.ProjectId,ECG_Business_Card_v3,4543475f-4275-4736-996e-6573735f4361,rev?*%
%TF.SameCoordinates,Original*%
%TF.FileFunction,Paste,Top*%
%TF.FilePolarity,Positive*%
%FSLAX46Y46*%
G04 Gerber Fmt 4.6, Leading zero omitted, Abs format (unit mm)*
G04 Created by KiCad (PCBNEW 9.0.7) date 2026-02-11 21:28:42*
%MOMM*%
%LPD*%
G01*
G04 APERTURE LIST*
G04 Aperture macros list*
%AMRoundRect*
0 Rectangle with rounded corners*
0 $1 Rounding radius*
0 $2 $3 $4 $5 $6 $7 $8 $9 X,Y pos of 4 corners*
0 Add a 4 corners polygon primitive as box body*
4,1,4,$2,$3,$4,$5,$6,$7,$8,$9,$2,$3,0*
0 Add four circle primitives for the rounded corners*
1,1,$1+$1,$2,$3*
1,1,$1+$1,$4,$5*
1,1,$1+$1,$6,$7*
1,1,$1+$1,$8,$9*
0 Add four rect primitives between the rounded corners*
20,1,$1+$1,$2,$3,$4,$5,0*
20,1,$1+$1,$4,$5,$6,$7,0*
20,1,$1+$1,$6,$7,$8,$9,0*
20,1,$1+$1,$8,$9,$2,$3,0*%
G04 Aperture macros list end*
%ADD10RoundRect,0.140000X0.170000X-0.140000X0.170000X0.140000X-0.170000X0.140000X-0.170000X-0.140000X0*%
%ADD11RoundRect,0.150000X0.587500X0.150000X-0.587500X0.150000X-0.587500X-0.150000X0.587500X-0.150000X0*%
%ADD12RoundRect,0.079500X0.100500X-0.079500X0.100500X0.079500X-0.100500X0.079500X-0.100500X-0.079500X0*%
%ADD13RoundRect,0.079500X-0.079500X-0.100500X0.079500X-0.100500X0.079500X0.100500X-0.079500X0.100500X0*%
%ADD14RoundRect,0.076250X0.513750X0.228750X-0.513750X0.228750X-0.513750X-0.228750X0.513750X-0.228750X0*%
%ADD15RoundRect,0.079500X0.079500X0.100500X-0.079500X0.100500X-0.079500X-0.100500X0.079500X-0.100500X0*%
%ADD16RoundRect,0.112500X-0.187500X-0.112500X0.187500X-0.112500X0.187500X0.112500X-0.187500X0.112500X0*%
%ADD17RoundRect,0.079500X-0.100500X0.079500X-0.100500X-0.079500X0.100500X-0.079500X0.100500X0.079500X0*%
%ADD18RoundRect,0.140000X-0.140000X-0.170000X0.140000X-0.170000X0.140000X0.170000X-0.140000X0.170000X0*%
%ADD19RoundRect,0.250000X-0.315000X-0.780000X0.315000X-0.780000X0.315000X0.780000X-0.315000X0.780000X0*%
%ADD20RoundRect,0.062500X-0.300000X-0.062500X0.300000X-0.062500X0.300000X0.062500X-0.300000X0.062500X0*%
%ADD21RoundRect,0.130000X0.000010X0.000010X-0.000010X0.000010X-0.000010X-0.000010X0.000010X-0.000010X0*%
%ADD22RoundRect,0.100000X0.400000X0.400000X-0.400000X0.400000X-0.400000X-0.400000X0.400000X-0.400000X0*%
%ADD23RoundRect,0.105000X0.420000X0.995000X-0.420000X0.995000X-0.420000X-0.995000X0.420000X-0.995000X0*%
%ADD24RoundRect,0.112500X0.112500X-0.187500X0.112500X0.187500X-0.112500X0.187500X-0.112500X-0.187500X0*%
%ADD25RoundRect,0.140000X-0.170000X0.140000X-0.170000X-0.140000X0.170000X-0.140000X0.170000X0.140000X0*%
%ADD26R,0.508000X1.219200*%
%ADD27RoundRect,0.100000X-0.400000X-0.400000X0.400000X-0.400000X0.400000X0.400000X-0.400000X0.400000X0*%
%ADD28RoundRect,0.105000X-0.420000X-0.995000X0.420000X-0.995000X0.420000X0.995000X-0.420000X0.995000X0*%
%ADD29RoundRect,0.140000X0.140000X0.170000X-0.140000X0.170000X-0.140000X-0.170000X0.140000X-0.170000X0*%
G04 APERTURE END LIST*
D10*
%TO.C,C13*%
X127970000Y-101020000D03*
X127970000Y-100060000D03*
%TD*%
D11*
%TO.C,U3*%
X126410000Y-101380000D03*
X126410000Y-99480000D03*
X124535000Y-100430000D03*
%TD*%
D12*
%TO.C,R6*%
X132230000Y-99710000D03*
X132230000Y-99020000D03*
%TD*%
D13*
%TO.C,R14*%
X140185000Y-99532500D03*
X140875000Y-99532500D03*
%TD*%
D14*
%TO.C,Q1*%
X142732500Y-103145000D03*
X142732500Y-101315000D03*
X140682500Y-102230000D03*
%TD*%
D15*
%TO.C,R13*%
X137555000Y-97540000D03*
X136865000Y-97540000D03*
%TD*%
D16*
%TO.C,D1*%
X149080000Y-101050000D03*
X146980000Y-101050000D03*
%TD*%
D13*
%TO.C,R7*%
X132345000Y-97210000D03*
X133035000Y-97210000D03*
%TD*%
D17*
%TO.C,R15*%
X140205000Y-98002500D03*
X140205000Y-98692500D03*
%TD*%
D18*
%TO.C,C3*%
X133840000Y-100980000D03*
X134800000Y-100980000D03*
%TD*%
D10*
%TO.C,C7*%
X138670000Y-101990000D03*
X138670000Y-101030000D03*
%TD*%
D12*
%TO.C,R18*%
X144030000Y-102420000D03*
X144030000Y-101730000D03*
%TD*%
D10*
%TO.C,C4*%
X133300000Y-103060000D03*
X133300000Y-102100000D03*
%TD*%
D17*
%TO.C,R2*%
X136215000Y-102480000D03*
X136215000Y-103170000D03*
%TD*%
D10*
%TO.C,C5*%
X136070000Y-96000000D03*
X136070000Y-95040000D03*
%TD*%
%TO.C,C2*%
X137670000Y-101990000D03*
X137670000Y-101030000D03*
%TD*%
D15*
%TO.C,R21*%
X140355362Y-105346700D03*
X139665362Y-105346700D03*
%TD*%
D13*
%TO.C,R4*%
X133395000Y-98590000D03*
X134085000Y-98590000D03*
%TD*%
%TO.C,R3*%
X133395000Y-99690000D03*
X134085000Y-99690000D03*
%TD*%
D19*
%TO.C,U2*%
X125527500Y-104010000D03*
D20*
X124015000Y-102760000D03*
X124015000Y-103260000D03*
X124015000Y-103760000D03*
X124015000Y-104260000D03*
X124015000Y-104760000D03*
X124015000Y-105260000D03*
X127040000Y-105260000D03*
X127040000Y-104760000D03*
X127040000Y-104260000D03*
X127040000Y-103760000D03*
X127040000Y-103260000D03*
X127040000Y-102760000D03*
%TD*%
D21*
%TO.C,U1*%
X136590000Y-99705000D03*
X136190000Y-99705000D03*
X135790000Y-99705000D03*
X135390000Y-99705000D03*
X134990000Y-99705000D03*
X136590000Y-99305000D03*
X136190000Y-99305000D03*
X135790000Y-99305000D03*
X135390000Y-99305000D03*
X134990000Y-99305000D03*
X136590000Y-98905000D03*
X136190000Y-98905000D03*
X135790000Y-98905000D03*
X135390000Y-98905000D03*
X134990000Y-98905000D03*
X136590000Y-98505000D03*
X136190000Y-98505000D03*
X135790000Y-98505000D03*
X135390000Y-98505000D03*
X134990000Y-98505000D03*
%TD*%
D12*
%TO.C,R12*%
X136060000Y-97575000D03*
X136060000Y-96885000D03*
%TD*%
%TO.C,R9*%
X137210000Y-95705000D03*
X137210000Y-95015000D03*
%TD*%
D22*
%TO.C,J1*%
X124612500Y-97670000D03*
D23*
X123137500Y-96170000D03*
D22*
X124612500Y-94670000D03*
D23*
X126087500Y-96170000D03*
%TD*%
D24*
%TO.C,D2*%
X129480000Y-99490000D03*
X129480000Y-101590000D03*
%TD*%
D13*
%TO.C,R10*%
X134200000Y-103205000D03*
X134890000Y-103205000D03*
%TD*%
D15*
%TO.C,R8*%
X140355000Y-104560000D03*
X139665000Y-104560000D03*
%TD*%
D12*
%TO.C,R19*%
X129817500Y-104490000D03*
X129817500Y-103800000D03*
%TD*%
D18*
%TO.C,C6*%
X137500000Y-98420000D03*
X138460000Y-98420000D03*
%TD*%
D12*
%TO.C,R17*%
X140205000Y-97162500D03*
X140205000Y-96472500D03*
%TD*%
D10*
%TO.C,C8*%
X134710000Y-97530000D03*
X134710000Y-96570000D03*
%TD*%
D17*
%TO.C,R11*%
X133820000Y-96545000D03*
X133820000Y-97235000D03*
%TD*%
D10*
%TO.C,C12*%
X122280000Y-105210000D03*
X122280000Y-104250000D03*
%TD*%
D25*
%TO.C,C10*%
X144390000Y-97140000D03*
X144390000Y-98100000D03*
%TD*%
D26*
%TO.C,U4*%
X143135000Y-95956500D03*
X142195200Y-95956500D03*
X141255400Y-95956500D03*
X141255400Y-98242500D03*
X142195200Y-98242500D03*
X143135000Y-98242500D03*
%TD*%
D27*
%TO.C,J2*%
X150005000Y-94400000D03*
D28*
X151480000Y-95900000D03*
D27*
X150005000Y-97400000D03*
D28*
X148530000Y-95900000D03*
%TD*%
D12*
%TO.C,R20*%
X128227500Y-104480000D03*
X128227500Y-103790000D03*
%TD*%
D29*
%TO.C,C11*%
X124020000Y-101700000D03*
X123060000Y-101700000D03*
%TD*%
D10*
%TO.C,C1*%
X137680000Y-103870000D03*
X137680000Y-102910000D03*
%TD*%
D15*
%TO.C,R5*%
X134875000Y-102100000D03*
X134185000Y-102100000D03*
%TD*%
%TO.C,R16*%
X139430000Y-96500000D03*
X138740000Y-96500000D03*
%TD*%
D17*
%TO.C,R1*%
X136215000Y-100980000D03*
X136215000Y-101670000D03*
%TD*%
D25*
%TO.C,C9*%
X145410000Y-97140000D03*
X145410000Y-98100000D03*
%TD*%
M02*
