%TF.GenerationSoftware,KiCad,Pcbnew,9.0.7*%
%TF.CreationDate,2026-02-11T21:28:43+01:00*%
%TF.ProjectId,ECG_Business_Card_v3,4543475f-4275-4736-996e-6573735f4361,rev?*%
%TF.SameCoordinates,Original*%
%TF.FileFunction,Profile,NP*%
%FSLAX46Y46*%
G04 Gerber Fmt 4.6, Leading zero omitted, Abs format (unit mm)*
G04 Created by KiCad (PCBNEW 9.0.7) date 2026-02-11 21:28:43*
%MOMM*%
%LPD*%
G01*
G04 APERTURE LIST*
%TA.AperFunction,Profile*%
%ADD10C,0.200000*%
%TD*%
%TA.AperFunction,Profile*%
%ADD11C,0.100000*%
%TD*%
G04 APERTURE END LIST*
D10*
X99200000Y-111000000D02*
G75*
G02*
X96200000Y-108000000I0J3000000D01*
G01*
X178800000Y-111000000D02*
X99200000Y-111000000D01*
X96200000Y-60020000D02*
G75*
G02*
X99200000Y-57020000I3000000J0D01*
G01*
X99200000Y-57020000D02*
X178800000Y-57020000D01*
X96200000Y-108000000D02*
X96200000Y-60020000D01*
X181800000Y-60020000D02*
X181800000Y-108000000D01*
X181800000Y-108000000D02*
G75*
G02*
X178800000Y-111000000I-3000000J0D01*
G01*
X178800000Y-57020000D02*
G75*
G02*
X181800000Y-60020000I0J-3000000D01*
G01*
D11*
%TO.C,LS1*%
X124400000Y-81200000D02*
X130374459Y-81200000D01*
X124400000Y-86000000D02*
X130950151Y-86000000D01*
X130374459Y-86800000D02*
X124400000Y-86800000D01*
X130950157Y-82000000D02*
X124400000Y-82000000D01*
X132225545Y-78633437D02*
X136069503Y-78633437D01*
X132643918Y-88566563D02*
X135575075Y-88566563D01*
X135575076Y-79433437D02*
X132643918Y-79433437D01*
X135932850Y-88345446D02*
X136957808Y-86295529D01*
X136069502Y-89366563D02*
X132225546Y-89366563D01*
X136427277Y-78854554D02*
X137941700Y-81883401D01*
X136957808Y-81704470D02*
X135932851Y-79654555D01*
X137941700Y-86116599D02*
X136427278Y-89145446D01*
X140058301Y-81883399D02*
X141572752Y-78854496D01*
X141042188Y-86295521D02*
X142067161Y-88345469D01*
X141572724Y-89145449D02*
X140058294Y-86116588D01*
X141930495Y-78633437D02*
X145774500Y-78633437D01*
X142067161Y-79654531D02*
X141042192Y-81704471D01*
X142424900Y-88566563D02*
X145356100Y-88566563D01*
X145356100Y-79433437D02*
X142424900Y-79433437D01*
X145770605Y-89366563D02*
X141930500Y-89366563D01*
X147049900Y-86000000D02*
X153600000Y-86000000D01*
X147625500Y-81200000D02*
X153600000Y-81200000D01*
X153600000Y-82000000D02*
X147049800Y-82000000D01*
X153600000Y-86800000D02*
X147625600Y-86800000D01*
X124400000Y-82000000D02*
G75*
G02*
X124400000Y-81200000I0J400000D01*
G01*
X124400000Y-86800000D02*
G75*
G02*
X124400000Y-86000000I0J400000D01*
G01*
X130374459Y-86800000D02*
G75*
G02*
X130749480Y-87060870I-1J-399998D01*
G01*
X130749480Y-80939130D02*
G75*
G02*
X130374459Y-81200000I-375022J139128D01*
G01*
X130749480Y-80939130D02*
G75*
G02*
X131902951Y-78796934I8250520J-3060870D01*
G01*
X130950151Y-86000000D02*
G75*
G02*
X131333481Y-86285714I1J-400004D01*
G01*
X131333481Y-81714286D02*
G75*
G02*
X130950157Y-82000000I-383324J114284D01*
G01*
X131333481Y-81714286D02*
G75*
G02*
X132309390Y-79614144I7666472J-2285694D01*
G01*
X131902951Y-78796934D02*
G75*
G02*
X132225545Y-78633437I322593J-236502D01*
G01*
X131902951Y-89203066D02*
G75*
G02*
X130749480Y-87060870I7097049J5203066D01*
G01*
X132225546Y-89366563D02*
G75*
G02*
X131902951Y-89203066I0J400003D01*
G01*
X132309390Y-79614144D02*
G75*
G02*
X132643918Y-79433437I334528J-219288D01*
G01*
X132309390Y-88385856D02*
G75*
G02*
X131333481Y-86285714I6690563J4385836D01*
G01*
X132643918Y-88566563D02*
G75*
G02*
X132309390Y-88385856I0J399995D01*
G01*
X135575076Y-79433437D02*
G75*
G02*
X135932851Y-79654555I0J-400004D01*
G01*
X135932850Y-88345446D02*
G75*
G02*
X135575075Y-88566563I-357774J178886D01*
G01*
X136069503Y-78633437D02*
G75*
G02*
X136427277Y-78854554I0J-400003D01*
G01*
X136427278Y-89145446D02*
G75*
G02*
X136069502Y-89366563I-357776J178889D01*
G01*
X136900033Y-85852063D02*
G75*
G02*
X136900033Y-82147937I2099966J1852063D01*
G01*
X136900033Y-85852063D02*
G75*
G02*
X136957807Y-86295528I-299994J-264579D01*
G01*
X136957808Y-81704470D02*
G75*
G02*
X136900033Y-82147937I-357774J-178886D01*
G01*
X137819940Y-85614763D02*
G75*
G02*
X137819940Y-82385237I1180060J1614763D01*
G01*
X137819940Y-85614763D02*
G75*
G02*
X137941700Y-86116599I-236008J-322952D01*
G01*
X137941700Y-81883401D02*
G75*
G02*
X137819940Y-82385237I-357768J-178884D01*
G01*
X140058294Y-86116588D02*
G75*
G02*
X140180058Y-85614760I357766J178878D01*
G01*
X140180060Y-82385237D02*
G75*
G02*
X140058307Y-81883402I236010J322947D01*
G01*
X140180060Y-82385237D02*
G75*
G02*
X140180060Y-85614763I-1180061J-1614763D01*
G01*
X141042188Y-86295521D02*
G75*
G02*
X141099966Y-85852062I357762J178881D01*
G01*
X141099967Y-82147937D02*
G75*
G02*
X141042195Y-81704472I299993J264577D01*
G01*
X141099967Y-82147937D02*
G75*
G02*
X141099967Y-85852063I-2099967J-1852063D01*
G01*
X141572752Y-78854496D02*
G75*
G02*
X141930495Y-78633442I357678J-178844D01*
G01*
X141930500Y-89366563D02*
G75*
G02*
X141572747Y-89145438I0J399963D01*
G01*
X142067161Y-79654531D02*
G75*
G02*
X142424900Y-79433436I357739J-178869D01*
G01*
X142424900Y-88566563D02*
G75*
G02*
X142067162Y-88345468I0J399963D01*
G01*
X145356100Y-79433437D02*
G75*
G02*
X145690610Y-79614144I0J-399963D01*
G01*
X145690610Y-79614144D02*
G75*
G02*
X146666519Y-81714286I-6690560J-4385836D01*
G01*
X145690610Y-88385856D02*
G75*
G02*
X145356100Y-88566563I-334510J219256D01*
G01*
X145774500Y-78633437D02*
G75*
G02*
X146097033Y-78796946I0J-399863D01*
G01*
X146097049Y-78796934D02*
G75*
G02*
X147250520Y-80939130I-7097063J-5203075D01*
G01*
X146097049Y-89203066D02*
G75*
G02*
X145770605Y-89366564I-322649J236566D01*
G01*
X146666519Y-86285714D02*
G75*
G02*
X145690610Y-88385856I-7666469J2285694D01*
G01*
X146666519Y-86285714D02*
G75*
G02*
X147049900Y-85999947I383381J-114286D01*
G01*
X147049800Y-82000000D02*
G75*
G02*
X146666546Y-81714278I0J399900D01*
G01*
X147250520Y-87060870D02*
G75*
G02*
X146097049Y-89203066I-8250534J3060879D01*
G01*
X147250520Y-87060870D02*
G75*
G02*
X147625600Y-86799947I375080J-139130D01*
G01*
X147625500Y-81200000D02*
G75*
G02*
X147250543Y-80939122I0J399900D01*
G01*
X153600000Y-81200000D02*
G75*
G02*
X153600000Y-82000000I0J-400000D01*
G01*
X153600000Y-86000000D02*
G75*
G02*
X153600000Y-86800000I0J-400000D01*
G01*
%TO.C,BT1*%
X122410000Y-65930000D02*
X130384459Y-65930000D01*
X122410000Y-70730000D02*
X130960151Y-70730000D01*
X130384459Y-71530000D02*
X122410000Y-71530000D01*
X130960157Y-66730000D02*
X122410000Y-66730000D01*
X132235545Y-63363437D02*
X136079503Y-63363437D01*
X132653918Y-73296563D02*
X135585075Y-73296563D01*
X135585076Y-64163437D02*
X132653918Y-64163437D01*
X135942850Y-73075446D02*
X136967808Y-71025529D01*
X136079502Y-74096563D02*
X132235546Y-74096563D01*
X136437278Y-63584555D02*
X137951700Y-66613401D01*
X136967808Y-66434470D02*
X135942850Y-64384554D01*
X137951700Y-70846599D02*
X136437277Y-73875446D01*
X140068301Y-66613399D02*
X141582750Y-63584500D01*
X141052188Y-71025521D02*
X142077161Y-73075469D01*
X141582724Y-73875449D02*
X140068294Y-70846588D01*
X141942439Y-63363437D02*
X145784500Y-63363437D01*
X142077161Y-64384531D02*
X141052192Y-66434471D01*
X142434900Y-73296563D02*
X145366100Y-73296563D01*
X145366100Y-64163437D02*
X142434900Y-64163437D01*
X145780605Y-74096563D02*
X141940500Y-74096563D01*
X147059900Y-70730000D02*
X155610000Y-70730000D01*
X147635500Y-65930000D02*
X155610000Y-65930000D01*
X155610000Y-66730000D02*
X147059800Y-66730000D01*
X155610000Y-71530000D02*
X147635600Y-71530000D01*
X122410000Y-66730000D02*
G75*
G02*
X122410000Y-65930000I0J400000D01*
G01*
X122410000Y-71530000D02*
G75*
G02*
X122410000Y-70730000I0J400000D01*
G01*
X130384459Y-71530000D02*
G75*
G02*
X130759480Y-71790870I-1J-399998D01*
G01*
X130759480Y-65669130D02*
G75*
G02*
X130384459Y-65930000I-375022J139128D01*
G01*
X130759480Y-65669130D02*
G75*
G02*
X131912951Y-63526934I8250520J-3060870D01*
G01*
X130960151Y-70730000D02*
G75*
G02*
X131343481Y-71015714I1J-400004D01*
G01*
X131343481Y-66444286D02*
G75*
G02*
X130960157Y-66730000I-383324J114284D01*
G01*
X131343481Y-66444286D02*
G75*
G02*
X132319390Y-64344144I7666472J-2285694D01*
G01*
X131912951Y-63526934D02*
G75*
G02*
X132235545Y-63363437I322593J-236502D01*
G01*
X131912951Y-73933066D02*
G75*
G02*
X130759480Y-71790870I7097049J5203066D01*
G01*
X132235546Y-74096563D02*
G75*
G02*
X131912951Y-73933066I0J400003D01*
G01*
X132319390Y-64344144D02*
G75*
G02*
X132653918Y-64163437I334528J-219288D01*
G01*
X132319390Y-73115856D02*
G75*
G02*
X131343481Y-71015714I6690563J4385836D01*
G01*
X132653918Y-73296563D02*
G75*
G02*
X132319390Y-73115856I0J399995D01*
G01*
X135585076Y-64163437D02*
G75*
G02*
X135942850Y-64384554I0J-400003D01*
G01*
X135942850Y-73075446D02*
G75*
G02*
X135585075Y-73296563I-357774J178886D01*
G01*
X136079503Y-63363437D02*
G75*
G02*
X136437278Y-63584555I0J-400004D01*
G01*
X136437277Y-73875446D02*
G75*
G02*
X136079502Y-74096563I-357774J178886D01*
G01*
X136910033Y-70582063D02*
G75*
G02*
X136910033Y-66877937I2099966J1852063D01*
G01*
X136910033Y-70582063D02*
G75*
G02*
X136967807Y-71025528I-299994J-264579D01*
G01*
X136967808Y-66434470D02*
G75*
G02*
X136910033Y-66877937I-357774J-178886D01*
G01*
X137829940Y-70344763D02*
G75*
G02*
X137829940Y-67115237I1180060J1614763D01*
G01*
X137829940Y-70344763D02*
G75*
G02*
X137951700Y-70846599I-236008J-322952D01*
G01*
X137951700Y-66613401D02*
G75*
G02*
X137829940Y-67115237I-357768J-178884D01*
G01*
X140068294Y-70846588D02*
G75*
G02*
X140190058Y-70344760I357766J178878D01*
G01*
X140190060Y-67115237D02*
G75*
G02*
X140068307Y-66613402I236010J322947D01*
G01*
X140190060Y-67115237D02*
G75*
G02*
X140190060Y-70344763I-1180061J-1614763D01*
G01*
X141052188Y-71025521D02*
G75*
G02*
X141109966Y-70582062I357762J178881D01*
G01*
X141109967Y-66877937D02*
G75*
G02*
X141052195Y-66434472I299993J264577D01*
G01*
X141109967Y-66877937D02*
G75*
G02*
X141109967Y-70582063I-2099967J-1852063D01*
G01*
X141582750Y-63584500D02*
G75*
G02*
X141942439Y-63363434I357700J-178850D01*
G01*
X141940500Y-74096563D02*
G75*
G02*
X141582747Y-73875438I0J399963D01*
G01*
X142077161Y-64384531D02*
G75*
G02*
X142434900Y-64163436I357739J-178869D01*
G01*
X142434900Y-73296563D02*
G75*
G02*
X142077162Y-73075468I0J399963D01*
G01*
X145366100Y-64163437D02*
G75*
G02*
X145700610Y-64344144I0J-399963D01*
G01*
X145700610Y-64344144D02*
G75*
G02*
X146676519Y-66444286I-6690560J-4385836D01*
G01*
X145700610Y-73115856D02*
G75*
G02*
X145366100Y-73296563I-334510J219256D01*
G01*
X145784500Y-63363437D02*
G75*
G02*
X146107033Y-63526946I0J-399863D01*
G01*
X146107049Y-63526934D02*
G75*
G02*
X147260520Y-65669130I-7097063J-5203075D01*
G01*
X146107049Y-73933066D02*
G75*
G02*
X145780605Y-74096564I-322649J236566D01*
G01*
X146676519Y-71015714D02*
G75*
G02*
X145700610Y-73115856I-7666469J2285694D01*
G01*
X146676519Y-71015714D02*
G75*
G02*
X147059900Y-70729947I383381J-114286D01*
G01*
X147059800Y-66730000D02*
G75*
G02*
X146676546Y-66444278I0J399900D01*
G01*
X147260520Y-71790870D02*
G75*
G02*
X146107049Y-73933066I-8250534J3060879D01*
G01*
X147260520Y-71790870D02*
G75*
G02*
X147635600Y-71529947I375080J-139130D01*
G01*
X147635500Y-65930000D02*
G75*
G02*
X147260543Y-65669122I0J399900D01*
G01*
X155610000Y-65930000D02*
G75*
G02*
X155610000Y-66730000I0J-400000D01*
G01*
X155610000Y-70730000D02*
G75*
G02*
X155610000Y-71530000I0J-400000D01*
G01*
%TD*%
M02*
