0
SECTION
2
HEADER
9
$INSUNITS
70
4
9
$ACADVER
1
AC1014
9
$HANDSEED
5
FFFF
0
ENDSEC
0
SECTION
2
TABLES
0
TABLE
2
VPORT
5
8
100
AcDbSymbolTable
0
ENDTAB
0
TABLE
2
LTYPE
5
5
100
AcDbSymbolTable
0
LTYPE
5
14
100
AcDbSymbolTableRecord
100
AcDbLinetypeTableRecord
2
BYBLOCK
70
0
0
LTYPE
5
15
100
AcDbSymbolTableRecord
100
AcDbLinetypeTableRecord
2
BYLAYER
70
0
0
LTYPE
5
16
100
AcDbSymbolTableRecord
100
AcDbLinetypeTableRecord
2
DASHED
70
0
3
Dashed __ __ __ __ __ __ __ __ __ __ __ __ __ _
72
65
73
2
40
0.75
49
0.5
74
0
49
-0.25
74
0
0
ENDTAB
0
TABLE
2
LAYER
5
2
100
AcDbSymbolTable
70
2
0
LAYER
5
50
100
AcDbSymbolTableRecord
100
AcDbLayerTableRecord
2
0
70
0
62
7
6
CONTINUOUS
0
ENDTAB
0
TABLE
2
STYLE
5
3
100
AcDbSymbolTable
70
1
0
STYLE
5
11
100
AcDbSymbolTableRecord
100
AcDbTextStyleTableRecord
2
STANDARD
70
0
0
ENDTAB
0
TABLE
2
VIEW
5
6
100
AcDbSymbolTable
70
0
0
ENDTAB
0
TABLE
2
UCS
5
7
100
AcDbSymbolTable
70
0
0
ENDTAB
0
TABLE
2
APPID
5
9
100
AcDbSymbolTable
70
2
0
APPID
5
12
100
AcDbSymbolTableRecord
100
AcDbRegAppTableRecord
2
ACAD
70
0
0
ENDTAB
0
TABLE
2
DIMSTYLE
5
A
100
AcDbSymbolTable
70
1
0
ENDTAB
0
TABLE
2
BLOCK_RECORD
5
1
100
AcDbSymbolTable
70
1
0
BLOCK_RECORD
5
1F
100
AcDbSymbolTableRecord
100
AcDbBlockTableRecord
2
*MODEL_SPACE
0
BLOCK_RECORD
5
1B
100
AcDbSymbolTableRecord
100
AcDbBlockTableRecord
2
*PAPER_SPACE
0
ENDTAB
0
ENDSEC
0
SECTION
2
BLOCKS
0
BLOCK
5
20
100
AcDbEntity
100
AcDbBlockBegin
2
*MODEL_SPACE
0
ENDBLK
5
21
100
AcDbEntity
100
AcDbBlockEnd
0
BLOCK
5
1C
100
AcDbEntity
100
AcDbBlockBegin
2
*PAPER_SPACE
0
ENDBLK
5
1D
100
AcDbEntity
100
AcDbBlockEnd
0
ENDSEC
0
SECTION
2
ENTITIES
0
LWPOLYLINE
5
100
100
AcDbEntity
8
0
100
AcDbPolyline
90
36
70
1
43
0.0
10
-6.6069777789503839
20
4.3310327438678993
42
0.072752213295027596
10
-7.5706872952492894
20
2.2571428571428607
42
-0.33167926656827929
10
-8.0498447189992461
20
1.8999999999999995
10
-16.600000000000009
20
1.8999999999999995
42
-0.99999999999999989
10
-16.600000000000005
20
2.8999999999999999
10
-8.6255434611391291
20
2.8999999999999999
42
0.31359949468530635
10
-8.3442757395802509
20
3.0956521739130425
42
-0.069452801736214181
10
-7.1776971486832526
20
5.2621919046899359
42
-0.23894243974886384
10
-6.7744557358358737
20
5.4665631459994977
10
-2.9304951684997094
20
5.4665631459994968
42
-0.28407904384041194
10
-2.4832815729997511
20
5.1901699437494777
10
-0.96885780532584809
20
2.16132240840167
42
-0.36597738186304402
10
-1.1210565256537626
20
1.5340248584325877
42
0.50777760872927546
10
-1.121056525653753
20
-1.5340248584325948
42
-0.36597738186303752
10
-0.96885780532584653
20
-2.1613224084016704
10
-2.4832815729997497
20
-5.1901699437494759
42
-0.28407904384041022
10
-2.9304951684997071
20
-5.4665631459994968
10
-6.7744557358358737
20
-5.4665631459994977
42
-0.23894243974886067
10
-7.1776971486832872
20
-5.2621919046899848
42
-0.069452801736215194
10
-8.3442757395802474
20
-3.0956521739130531
42
0.31359949468531523
10
-8.6255434611391291
20
-2.9000000000000048
10
-16.600000000000009
20
-2.9000000000000008
42
-0.99999999999999989
10
-16.600000000000005
20
-1.9000000000000006
10
-8.0498447189992461
20
-1.9000000000000012
42
-0.3316792665682754
10
-7.5706872952492912
20
-2.257142857142858
42
0.072752213295028373
10
-6.6069777789504265
20
-4.3310327438679259
42
0.2528262544344016
10
-6.3560798886104948
20
-4.4665631459995501
10
-3.4249223594996248
20
-4.4665631459994968
42
0.28407904384041005
10
-3.15659420219965
20
-4.3007272246494823
10
-2.1316343880420856
20
-2.250807596334357
42
0.30561468458069901
10
-2.174966056716348
20
-1.9182081879015538
42
-0.37797458474875217
10
-2.1749660567162445
20
1.918208187901459
42
0.30561468458070096
10
-2.1316343880420869
20
2.2508075963343575
10
-3.1565942021996483
20
4.3007272246494823
42
0.28407904384041527
10
-3.4249223594996252
20
4.4665631459994968
10
-6.3560798886104948
20
4.4665631459994968
42
0.25282625443440188
0
LWPOLYLINE
5
101
100
AcDbEntity
8
0
100
AcDbPolyline
90
36
70
1
43
0.0
10
1.1210565256537657
20
-1.534024858432586
42
0.50777760872937405
10
1.121056525653761
20
1.5340248584325888
42
-0.36597738186304291
10
0.9688578053258462
20
2.16132240840167
10
2.4832815729997497
20
5.1901699437494777
42
-0.28407904384041155
10
2.9304951684997067
20
5.4665631459994968
10
6.7744557358358737
20
5.4665631459994497
42
-0.23894243974886525
10
7.1776971486832162
20
5.2621919046899102
42
-0.069452801736216638
10
8.3442757395802474
20
3.0956521739130483
42
0.3135994946853104
10
8.6255434611391291
20
2.9000000000000008
10
16.600000000000009
20
2.8999999999999999
42
-0.99999999999999989
10
16.600000000000005
20
1.8999999999999995
10
8.0498447189992479
20
1.8999999999999995
42
-0.33167926656827657
10
7.5706872952492921
20
2.2571428571428549
42
0.072752213295030801
10
6.6069777789503403
20
4.3310327438678708
42
0.25282625443440149
10
6.3560798886104948
20
4.4665631459994986
10
3.4249223594996248
20
4.4665631459994968
42
0.28407904384041505
10
3.1565942021996491
20
4.3007272246494823
10
2.1316343880420865
20
2.2508075963343579
42
0.30561468458069313
10
2.1749660567161317
20
1.9182081879013713
42
-0.37797458474880202
10
2.1749660567162428
20
-1.9182081879014579
42
0.30561468458070057
10
2.1316343880420869
20
-2.2508075963343583
10
3.1565942021996491
20
-4.3007272246494832
42
0.2840790438404141
10
3.4249223594996248
20
-4.4665631459994968
10
6.3560798886104948
20
-4.4665631459994968
42
0.25282625443440598
10
6.6069777789503839
20
-4.3310327438678957
42
0.072752213295031093
10
7.5706872952492885
20
-2.2571428571428647
42
-0.33167926656828101
10
8.0498447189992461
20
-1.9000000000000006
10
16.600000000000009
20
-1.9000000000000006
42
-0.99999999999999989
10
16.600000000000005
20
-2.9000000000000008
10
8.6255434611391291
20
-2.9000000000000008
42
0.31359949468530568
10
8.3442757395802438
20
-3.0956521739130389
42
-0.06945280173621754
10
7.1776971486832544
20
-5.262191904689935
42
-0.23894243974887067
10
6.7744557358358737
20
-5.4665631459994968
10
2.930495168499708
20
-5.4665631459994968
42
-0.28407904384041205
10
2.4832815729997506
20
-5.1901699437494777
10
0.96885780532584787
20
-2.16132240840167
42
-0.36597738186304624
0
ENDSEC
0
SECTION
2
OBJECTS
0
DICTIONARY
5
C
100
AcDbDictionary
3
ACAD_GROUP
350
D
3
ACAD_MLINESTYLE
350
17
0
DICTIONARY
5
D
100
AcDbDictionary
0
DICTIONARY
5
1A
330
C
100
AcDbDictionary
0
DICTIONARY
5
17
100
AcDbDictionary
0
ENDSEC
0
EOF
