0
SECTION
2
HEADER
9
$INSUNITS
70
4
9
$ACADVER
1
AC1014
9
$HANDSEED
5
FFFF
0
ENDSEC
0
SECTION
2
TABLES
0
TABLE
2
VPORT
5
8
100
AcDbSymbolTable
0
ENDTAB
0
TABLE
2
LTYPE
5
5
100
AcDbSymbolTable
0
LTYPE
5
14
100
AcDbSymbolTableRecord
100
AcDbLinetypeTableRecord
2
BYBLOCK
70
0
0
LTYPE
5
15
100
AcDbSymbolTableRecord
100
AcDbLinetypeTableRecord
2
BYLAYER
70
0
0
LTYPE
5
16
100
AcDbSymbolTableRecord
100
AcDbLinetypeTableRecord
2
DASHED
70
0
3
Dashed __ __ __ __ __ __ __ __ __ __ __ __ __ _
72
65
73
2
40
0.75
49
0.5
74
0
49
-0.25
74
0
0
ENDTAB
0
TABLE
2
LAYER
5
2
100
AcDbSymbolTable
70
2
0
LAYER
5
50
100
AcDbSymbolTableRecord
100
AcDbLayerTableRecord
2
0
70
0
62
7
6
CONTINUOUS
0
ENDTAB
0
TABLE
2
STYLE
5
3
100
AcDbSymbolTable
70
1
0
STYLE
5
11
100
AcDbSymbolTableRecord
100
AcDbTextStyleTableRecord
2
STANDARD
70
0
0
ENDTAB
0
TABLE
2
VIEW
5
6
100
AcDbSymbolTable
70
0
0
ENDTAB
0
TABLE
2
UCS
5
7
100
AcDbSymbolTable
70
0
0
ENDTAB
0
TABLE
2
APPID
5
9
100
AcDbSymbolTable
70
2
0
APPID
5
12
100
AcDbSymbolTableRecord
100
AcDbRegAppTableRecord
2
ACAD
70
0
0
ENDTAB
0
TABLE
2
DIMSTYLE
5
A
100
AcDbSymbolTable
70
1
0
ENDTAB
0
TABLE
2
BLOCK_RECORD
5
1
100
AcDbSymbolTable
70
1
0
BLOCK_RECORD
5
1F
100
AcDbSymbolTableRecord
100
AcDbBlockTableRecord
2
*MODEL_SPACE
0
BLOCK_RECORD
5
1B
100
AcDbSymbolTableRecord
100
AcDbBlockTableRecord
2
*PAPER_SPACE
0
ENDTAB
0
ENDSEC
0
SECTION
2
BLOCKS
0
BLOCK
5
20
100
AcDbEntity
100
AcDbBlockBegin
2
*MODEL_SPACE
0
ENDBLK
5
21
100
AcDbEntity
100
AcDbBlockEnd
0
BLOCK
5
1C
100
AcDbEntity
100
AcDbBlockBegin
2
*PAPER_SPACE
0
ENDBLK
5
1D
100
AcDbEntity
100
AcDbBlockEnd
0
ENDSEC
0
SECTION
2
ENTITIES
0
LWPOLYLINE
5
100
100
AcDbEntity
8
0
100
AcDbPolyline
90
36
70
1
43
0.0
10
7.1776971486832544
20
-5.262191904689935
42
0.069452801736216874
10
8.3442757395802438
20
-3.095652173913046
42
-0.31359949468530668
10
8.6255434611391291
20
-2.9000000000000008
10
14.600000000000005
20
-2.9000000000000008
42
0.99999999999999989
10
14.600000000000005
20
-1.9000000000000006
10
8.0498447189992461
20
-1.9000000000000006
42
0.33167926656828101
10
7.5706872952492859
20
-2.2571428571428598
42
-0.072752213295030829
10
6.6069777789503839
20
-4.3310327438678957
42
-0.25282625443440598
10
6.3560798886104948
20
-4.4665631459994968
10
3.4249223594996248
20
-4.4665631459994968
42
-0.28407904384041421
10
3.1565942021996491
20
-4.3007272246494832
10
2.1316343880420865
20
-2.2508075963343588
42
-0.30561468458070057
10
2.1749660567162428
20
-1.9182081879014583
42
0.37797458474879703
10
2.1749660567162379
20
1.9182081879014647
42
-0.30561468458069313
10
2.1316343880420865
20
2.2508075963343579
10
3.1565942021996491
20
4.3007272246494823
42
-0.28407904384041505
10
3.4249223594996248
20
4.4665631459994968
10
6.3560798886104948
20
4.4665631459994461
42
-0.25282625443440149
10
6.6069777789503537
20
4.3310327438678735
42
-0.072752213295030385
10
7.5706872952492921
20
2.2571428571428549
42
0.33167926656827657
10
8.0498447189992461
20
1.8999999999999995
10
14.600000000000005
20
1.8999999999999995
42
0.99999999999999989
10
14.600000000000005
20
2.8999999999999999
10
8.6255434611391291
20
2.9000000000000026
42
-0.3135994946853104
10
8.3442757395802492
20
3.0956521739130483
42
0.069452801736216666
10
7.1776971486832117
20
5.2621919046899119
42
0.23894243974886523
10
6.7744557358358737
20
5.4665631459994977
10
2.9304951684997067
20
5.4665631459994968
42
0.28407904384041149
10
2.4832815729997497
20
5.1901699437494777
10
0.9688578053258462
20
2.16132240840167
42
0.36597738186304291
10
1.1210565256536866
20
1.5340248584324869
42
-0.50777760872936362
10
1.1210565256537657
20
-1.5340248584325857
42
0.36597738186304629
10
0.96885780532584764
20
-2.16132240840167
10
2.4832815729997506
20
-5.1901699437494777
42
0.28407904384041205
10
2.930495168499708
20
-5.4665631459994977
10
6.7744557358358737
20
-5.4665631459994968
42
0.23894243974887064
0
LWPOLYLINE
5
101
100
AcDbEntity
8
0
100
AcDbPolyline
90
36
70
1
43
0.0
10
-8.3442757395802456
20
-3.0956521739130483
42
0.069452801736214945
10
-7.1776971486832952
20
-5.2621919046899679
42
0.23894243974887042
10
-6.7744557358358737
20
-5.4665631459994977
10
-2.9304951684997067
20
-5.4665631459994968
42
0.28407904384041149
10
-2.4832815729997497
20
-5.1901699437494777
10
-0.96885780532584631
20
-2.16132240840167
42
0.36597738186304335
10
-1.1210565256538363
20
-1.534024858432691
42
-0.50777760872928479
10
-1.121056525653759
20
1.5340248584325904
42
0.36597738186304118
10
-0.96885780532584787
20
2.16132240840167
10
-2.4832815729997511
20
5.1901699437494777
42
0.28407904384041205
10
-2.9304951684997089
20
5.4665631459994977
10
-6.7744557358358737
20
5.4665631459994977
42
0.23894243974886475
10
-7.1776971486832561
20
5.262191904689935
42
0.069452801736214445
10
-8.344275739580242
20
3.0956521739130487
42
-0.31359949468531284
10
-8.6255434611391291
20
2.8999999999999999
10
-14.600000000000005
20
2.8999999999999999
42
0.99999999999999989
10
-14.600000000000005
20
1.8999999999999995
10
-8.0498447189992461
20
1.8999999999999995
42
0.33167926656827817
10
-7.5706872952492894
20
2.2571428571428558
42
-0.072752213295027929
10
-6.6069777789503839
20
4.3310327438678957
42
-0.25282625443440482
10
-6.3560798886104948
20
4.4665631459994968
10
-3.4249223594996248
20
4.4665631459994968
42
-0.28407904384041421
10
-3.1565942021996491
20
4.3007272246494832
10
-2.1316343880420865
20
2.2508075963343583
42
-0.3056146845807019
10
-2.1749660567162445
20
1.9182081879014581
42
0.37797458474875639
10
-2.1749660567162472
20
-1.9182081879014543
42
-0.30561468458070562
10
-2.1316343880420856
20
-2.2508075963343566
10
-3.1565942021996509
20
-4.3007272246494832
42
-0.28407904384040988
10
-3.4249223594996252
20
-4.4665631459994968
10
-6.3560798886104948
20
-4.466563145999551
42
-0.25282625443439993
10
-6.6069777789504158
20
-4.331032743867925
42
-0.072752213295028595
10
-7.5706872952492921
20
-2.2571428571428602
42
0.33167926656827729
10
-8.0498447189992461
20
-1.9000000000000004
10
-14.600000000000005
20
-1.9000000000000006
42
0.99999999999999989
10
-14.600000000000005
20
-2.9000000000000008
10
-8.6255434611391291
20
-2.9000000000000012
42
-0.31359949468531162
0
ENDSEC
0
SECTION
2
OBJECTS
0
DICTIONARY
5
C
100
AcDbDictionary
3
ACAD_GROUP
350
D
3
ACAD_MLINESTYLE
350
17
0
DICTIONARY
5
D
100
AcDbDictionary
0
DICTIONARY
5
1A
330
C
100
AcDbDictionary
0
DICTIONARY
5
17
100
AcDbDictionary
0
ENDSEC
0
EOF
