0
SECTION
2
HEADER
9
$INSUNITS
70
4
9
$ACADVER
1
AC1014
9
$HANDSEED
5
FFFF
0
ENDSEC
0
SECTION
2
TABLES
0
TABLE
2
VPORT
5
8
100
AcDbSymbolTable
0
ENDTAB
0
TABLE
2
LTYPE
5
5
100
AcDbSymbolTable
0
LTYPE
5
14
100
AcDbSymbolTableRecord
100
AcDbLinetypeTableRecord
2
BYBLOCK
70
0
0
LTYPE
5
15
100
AcDbSymbolTableRecord
100
AcDbLinetypeTableRecord
2
BYLAYER
70
0
0
LTYPE
5
16
100
AcDbSymbolTableRecord
100
AcDbLinetypeTableRecord
2
DASHED
70
0
3
Dashed __ __ __ __ __ __ __ __ __ __ __ __ __ _
72
65
73
2
40
0.75
49
0.5
74
0
49
-0.25
74
0
0
ENDTAB
0
TABLE
2
LAYER
5
2
100
AcDbSymbolTable
70
2
0
LAYER
5
50
100
AcDbSymbolTableRecord
100
AcDbLayerTableRecord
2
0
70
0
62
7
6
CONTINUOUS
0
ENDTAB
0
TABLE
2
STYLE
5
3
100
AcDbSymbolTable
70
1
0
STYLE
5
11
100
AcDbSymbolTableRecord
100
AcDbTextStyleTableRecord
2
STANDARD
70
0
0
ENDTAB
0
TABLE
2
VIEW
5
6
100
AcDbSymbolTable
70
0
0
ENDTAB
0
TABLE
2
UCS
5
7
100
AcDbSymbolTable
70
0
0
ENDTAB
0
TABLE
2
APPID
5
9
100
AcDbSymbolTable
70
2
0
APPID
5
12
100
AcDbSymbolTableRecord
100
AcDbRegAppTableRecord
2
ACAD
70
0
0
ENDTAB
0
TABLE
2
DIMSTYLE
5
A
100
AcDbSymbolTable
70
1
0
ENDTAB
0
TABLE
2
BLOCK_RECORD
5
1
100
AcDbSymbolTable
70
1
0
BLOCK_RECORD
5
1F
100
AcDbSymbolTableRecord
100
AcDbBlockTableRecord
2
*MODEL_SPACE
0
BLOCK_RECORD
5
1B
100
AcDbSymbolTableRecord
100
AcDbBlockTableRecord
2
*PAPER_SPACE
0
ENDTAB
0
ENDSEC
0
SECTION
2
BLOCKS
0
BLOCK
5
20
100
AcDbEntity
100
AcDbBlockBegin
2
*MODEL_SPACE
0
ENDBLK
5
21
100
AcDbEntity
100
AcDbBlockEnd
0
BLOCK
5
1C
100
AcDbEntity
100
AcDbBlockBegin
2
*PAPER_SPACE
0
ENDBLK
5
1D
100
AcDbEntity
100
AcDbBlockEnd
0
ENDSEC
0
SECTION
2
ENTITIES
0
LWPOLYLINE
5
100
100
AcDbEntity
8
0
100
AcDbPolyline
90
92
70
1
43
0.0
10
-26.163930970499969
20
-4.1000000074505802
10
-26.163930970499969
20
-5.1000000074505802
10
-25.863930970499972
20
-5.1000000074505802
10
-25.863930970499972
20
-4.1000000074505802
42
0.41421356237309531
10
-26.46393097049998
20
-3.5000000074505699
10
-60.978952306129479
20
-3.500000007450581
10
-60.978952306129479
20
-50.480000000000004
10
-24.563930970499985
20
-50.480000000000004
10
-24.563930970499985
20
-2.9000000074505738
10
-60.978952306129479
20
-2.9000000074505778
42
0.41421356237309398
10
-61.578952306129473
20
-3.5000000074505788
10
-61.578952306129452
20
-50.480000000000004
42
0.41421356237309503
10
-60.978952306129479
20
-51.079999999999977
10
-24.563930970499989
20
-51.079999999999977
42
0.41421356237310153
10
-23.963930970500009
20
-50.47999999999999
10
-23.963930970499977
20
-2.9000000074505827
42
0.41421356237309936
10
-24.563930970499985
20
-2.3000000074505684
10
-60.978952306129479
20
-2.3000000074505831
42
0.41421356237309453
10
-62.178952306129474
20
-3.5000000074505788
10
-62.17895230612946
20
-50.480000000000004
42
0.41421356237309503
10
-60.978952306129479
20
-51.679999999999986
10
-24.563930970499989
20
-51.679999999999986
42
0.41421356237309825
10
-23.3639309705
20
-50.47999999999999
10
-23.363930970499979
20
-2.9000000074505827
42
0.41421356237309725
10
-24.563930970499985
20
-1.7000000074505723
10
-60.978952306129479
20
-1.700000007450583
42
0.4142135623730947
10
-62.778952306129476
20
-3.5000000074505788
10
-62.778952306129469
20
-50.480000000000004
42
0.41421356237309503
10
-60.978952306129479
20
-52.279999999999987
10
-24.563930970499989
20
-52.279999999999987
42
0.41421356237309576
10
-22.763930970499999
20
-50.480000000000004
10
-22.763930970499985
20
-2.9000000074505827
42
0.41421356237309648
10
-24.563930970499985
20
-1.1000000074505762
10
-60.978952306129479
20
-1.1000000074505829
42
0.41421356237309476
10
-63.378952306129477
20
-3.5000000074505788
10
-63.37895230612947
20
-50.480000000000004
42
0.41421356237309503
10
-60.978952306129479
20
-52.879999999999995
10
-24.563930970499989
20
-52.879999999999995
42
0.41421356237309664
10
-22.16393097049999
20
-50.47999999999999
10
-22.163930970499987
20
-2.9000000074505827
42
0.41421356237309614
10
-24.563930970499985
20
-0.50000000745058004
10
-60.978952306129479
20
-0.50000000745058282
42
0.41421356237309481
10
-63.978952306129472
20
-3.5000000074505788
10
-63.978952306129472
20
-50.480000000000004
42
0.41421356237309503
10
-60.978952306129479
20
-53.479999999999997
10
-24.563930970499989
20
-53.479999999999997
42
0.41421356237309631
10
-21.563930970499989
20
-50.47999999999999
10
-21.563930970499989
20
-1.500000007450577
10
-21.86393097049999
20
-1.5000000223517418
10
-21.86393097049999
20
-50.480000000000004
42
-0.41421356237309553
10
-24.563930970499989
20
-53.179999999999993
10
-60.978952306129479
20
-53.179999999999993
42
-0.41421356237309503
10
-63.678952306129474
20
-50.480000000000004
10
-63.678952306129474
20
-3.5000000074505793
42
-0.41421356237309481
10
-60.978952306129479
20
-0.80000000745058308
10
-24.563930970499985
20
-0.8000000074505742
42
-0.41421356237309581
10
-22.463930970499987
20
-2.9000000074505792
10
-22.463930970499995
20
-50.480000000000004
42
-0.4142135623730957
10
-24.563930970499989
20
-52.579999999999991
10
-60.978952306129479
20
-52.579999999999991
42
-0.41421356237309503
10
-63.078952306129466
20
-50.480000000000004
10
-63.07895230612948
20
-3.5000000074505793
42
-0.41421356237309476
10
-60.978952306129479
20
-1.4000000074505832
10
-24.563930970499985
20
-1.4000000074505703
42
-0.41421356237309614
10
-23.063930970499982
20
-2.9000000074505792
10
-23.0639309705
20
-50.480000000000004
42
-0.41421356237309592
10
-24.563930970499989
20
-51.97999999999999
10
-60.978952306129479
20
-51.97999999999999
42
-0.41421356237309503
10
-62.478952306129464
20
-50.480000000000004
10
-62.478952306129472
20
-3.5000000074505793
42
-0.41421356237309465
10
-60.978952306129479
20
-2.0000000074505833
10
-24.563930970499985
20
-2.0000000074505664
42
-0.41421356237309664
10
-23.663930970499976
20
-2.9000000074505787
10
-23.663930970500004
20
-50.480000000000004
42
-0.41421356237309648
10
-24.563930970499989
20
-51.379999999999981
10
-60.978952306129479
20
-51.379999999999981
42
-0.41421356237309503
10
-61.878952306129456
20
-50.480000000000004
10
-61.878952306129477
20
-3.5000000074505788
42
-0.41421356237309431
10
-60.978952306129479
20
-2.6000000074505829
10
-24.563930970499985
20
-2.6000000074505625
42
-0.41421356237309936
10
-24.263930970499974
20
-2.9000000074505783
10
-24.263930970500009
20
-50.480000000000004
42
-0.41421356237309503
10
-24.563930970499985
20
-50.779999999999973
10
-60.978952306129479
20
-50.779999999999973
42
-0.41421356237309503
10
-61.278952306129455
20
-50.480000000000004
10
-61.278952306129483
20
-3.5000000074505788
42
-0.41421356237309287
10
-60.978952306129479
20
-3.200000007450583
10
-24.863930970499982
20
-3.2000000074505763
10
-24.863930970499982
20
-50.18
10
-60.678952306129474
20
-50.18
10
-60.678952306129474
20
-3.8000000074505813
10
-26.46393097049998
20
-3.800000007450568
42
-0.41421356237309559
0
ENDSEC
0
SECTION
2
OBJECTS
0
DICTIONARY
5
C
100
AcDbDictionary
3
ACAD_GROUP
350
D
3
ACAD_MLINESTYLE
350
17
0
DICTIONARY
5
D
100
AcDbDictionary
0
DICTIONARY
5
1A
330
C
100
AcDbDictionary
0
DICTIONARY
5
17
100
AcDbDictionary
0
ENDSEC
0
EOF
