<svg version="1.1" id="Layer_1" xmlns="http://www.w3.org/2000/svg" xmlns:xlink="http://www.w3.org/1999/xlink" x="0px" y="0px"
	 width="100%" viewBox="0 0 1024 1024" enable-background="new 0 0 1024 1024" xml:space="preserve">
<path fill="#000000" opacity="1.000000" stroke="none" 
	d="
M425.491150,651.655273 
	C427.042572,654.933655 427.632660,658.287476 430.861938,662.041016 
	C431.557312,655.985718 432.188202,651.204712 432.642639,646.406860 
	C434.271606,629.208984 435.883423,612.009155 437.418579,594.802673 
	C438.570007,581.897156 439.527069,568.974182 440.692963,556.070068 
	C441.858521,543.170166 443.232758,530.289185 444.410828,517.390381 
	C445.559265,504.816284 446.483917,492.221497 447.672882,479.651489 
	C449.111298,464.444275 450.777863,449.258759 452.244812,434.054108 
	C453.457245,421.487610 454.427460,408.897491 455.676544,396.334869 
	C457.483734,378.158813 459.508087,360.004333 461.322601,341.828949 
	C462.856934,326.460449 464.135651,311.066345 465.690002,295.699982 
	C467.411102,278.685150 469.268372,261.683594 471.160950,244.686813 
	C472.225708,235.124207 473.458588,225.579956 474.672821,216.034698 
	C474.880371,214.403152 475.180878,212.731216 475.781006,211.213394 
	C476.811157,208.608078 477.730103,205.626404 481.381409,205.735580 
	C484.929047,205.841660 487.131317,207.969269 488.665039,210.992828 
	C490.935455,215.468643 490.507629,220.450150 491.042328,225.171906 
	C492.779022,240.509354 493.892670,255.916183 495.383575,271.282959 
	C497.227417,290.287140 499.286224,309.270630 501.103821,328.277222 
	C502.321503,341.010590 503.217865,353.774445 504.375702,366.513947 
	C505.382660,377.593414 506.596558,388.653961 507.641388,399.730164 
	C508.592804,409.816498 509.421570,419.914337 510.337463,430.004089 
	C511.538147,443.230896 512.783264,456.453705 513.986694,469.680237 
	C515.115784,482.088928 516.188416,494.502838 517.334778,506.909912 
	C518.878418,523.617676 520.529724,540.315735 522.016296,557.028564 
	C522.899841,566.962280 523.556946,576.916138 524.313232,586.861145 
	C525.585510,603.590393 526.899353,620.316650 528.111389,637.050232 
	C528.927673,648.320740 529.711243,659.596130 530.272644,670.881104 
	C530.461975,674.687256 530.732300,678.424683 531.754272,682.396545 
	C534.188965,679.812317 534.731445,676.659546 535.486633,673.705933 
	C537.757629,664.824097 540.663879,656.160950 544.031555,647.648682 
	C548.326599,636.792419 554.449097,632.660828 566.190369,632.655945 
	C595.189636,632.643860 624.193970,632.339478 653.185669,632.810669 
	C665.287170,633.007446 675.237305,628.816162 684.422791,621.681824 
	C693.200195,614.864380 699.629700,605.862488 706.880737,597.612549 
	C717.307312,585.749329 726.932678,573.121338 740.238159,564.036072 
	C749.638794,557.617188 759.634460,552.753052 771.004761,552.011108 
	C783.320312,551.207458 794.656860,554.867920 804.883179,561.860291 
	C817.940430,570.788269 828.845703,581.941406 838.709473,594.213440 
	C844.031067,600.834351 849.433411,607.395752 854.968567,613.838623 
	C866.014404,626.695984 880.709167,631.291931 897.035889,632.745300 
	C918.057312,634.616577 939.208984,634.775696 960.146179,637.670837 
	C961.278442,637.827332 962.523926,637.698975 963.534485,639.590149 
	C959.893799,642.218872 955.401978,641.831909 951.469604,642.101990 
	C932.050232,643.435547 912.599487,644.317261 893.158203,645.326050 
	C870.248474,646.514893 852.285461,637.367188 837.964233,619.698120 
	C827.907349,607.290283 818.185608,594.578918 806.704041,583.344727 
	C797.976379,574.805115 787.002930,571.211548 775.821655,567.817688 
	C775.075867,567.591309 774.164368,567.572021 773.409119,567.765442 
	C757.538635,571.829285 743.638245,579.043945 733.103210,592.096619 
	C725.259827,601.814331 717.156372,611.338501 708.830261,620.646179 
	C698.714355,631.954651 687.469910,641.836243 671.867615,644.734131 
	C665.652344,645.888550 659.304138,646.004578 652.968140,646.016785 
	C624.823242,646.071167 596.678345,646.274048 568.534058,646.199463 
	C564.362183,646.188416 562.137817,647.752441 560.563721,651.397522 
	C551.829712,671.622559 545.682495,692.673279 540.302124,713.979248 
	C539.490662,717.192871 538.783142,720.425659 537.236206,723.437378 
	C535.362610,727.084961 532.579407,729.102051 528.478638,728.787964 
	C523.970703,728.442688 521.658630,725.315002 520.852722,721.335449 
	C519.866882,716.467285 519.326050,711.492737 518.856934,706.539185 
	C517.385071,690.996094 516.100464,675.435181 514.623596,659.892578 
	C513.146667,644.349609 511.453583,628.827026 509.987518,613.283081 
	C508.458313,597.069763 507.129211,580.837646 505.635071,564.620911 
	C504.111084,548.080322 502.433380,531.553772 500.934875,515.010986 
	C499.750702,501.938446 498.796814,488.845154 497.631012,475.770844 
	C496.140869,459.059387 494.517578,442.359802 492.995148,425.651154 
	C491.848816,413.070221 490.752319,400.484650 489.666779,387.898285 
	C488.066772,369.347321 486.445160,350.798004 484.939575,332.239319 
	C484.379486,325.335632 484.270782,318.387421 481.565704,311.613220 
	C480.494293,320.242462 479.314758,328.859924 478.375214,337.503479 
	C476.705688,352.862488 475.165588,368.235657 473.601471,383.605988 
	C472.155090,397.819489 470.762115,412.038422 469.320099,426.252380 
	C467.761475,441.615601 466.115509,456.970123 464.616516,472.339081 
	C463.438965,484.412079 462.493958,496.507721 461.324921,508.581604 
	C459.803741,524.292603 458.139313,539.989563 456.581909,555.697083 
	C455.467407,566.937439 454.479248,578.190430 453.341766,589.428345 
	C451.803192,604.628662 450.168518,619.819275 448.588287,635.015442 
	C447.163116,648.720215 445.802063,662.431824 444.324036,676.130859 
	C443.344482,685.210144 442.248474,694.277588 441.105804,703.337891 
	C440.900452,704.966248 440.347992,706.588501 439.722565,708.118164 
	C438.445496,711.241516 437.038544,714.567932 433.061188,714.735352 
	C429.111359,714.901611 427.955414,711.384094 426.621948,708.624329 
	C423.122040,701.380920 422.061371,693.361572 419.705353,685.747620 
	C416.167145,674.313171 413.232452,662.690125 407.786835,651.903931 
	C405.391632,647.159668 402.150665,645.109314 396.721161,645.248291 
	C389.092255,645.443481 381.415588,645.898315 373.805573,644.372437 
	C366.742737,642.956299 361.267548,639.550476 357.284180,633.409607 
	C350.939850,623.628906 344.584747,613.830688 337.704681,604.427368 
	C325.300201,587.473511 308.058716,585.620361 292.024780,599.184998 
	C285.512421,604.694458 280.110870,611.268127 274.604950,617.748169 
	C269.207703,624.100220 263.462891,630.102234 256.574402,634.949585 
	C246.279755,642.193604 234.972046,645.350464 222.360245,645.424072 
	C192.359634,645.599121 162.412399,644.047363 132.451385,643.078796 
	C121.521057,642.725525 110.493439,642.481384 99.668427,640.380432 
	C98.902138,640.231750 98.171104,639.901367 96.237617,639.265381 
	C100.820251,636.994751 104.809502,636.959412 108.565376,636.784241 
	C135.834015,635.511780 163.104797,634.310852 190.394974,633.484375 
	C202.149887,633.128357 213.994980,632.833435 225.655365,630.599487 
	C239.109741,628.021790 249.320953,620.373169 258.037872,610.344299 
	C265.254364,602.041687 272.323456,593.632324 281.027557,586.762329 
	C305.130157,567.738525 333.992676,571.296631 352.587708,595.622681 
	C359.489685,604.651855 364.789490,614.703735 370.984650,624.184326 
	C374.493073,629.553345 378.675873,632.287292 385.405762,631.858582 
	C391.847534,631.448181 398.367340,631.622559 404.865753,632.253052 
	C414.252075,633.163635 420.115173,638.160522 423.365570,646.725403 
	C423.954834,648.278076 424.684937,649.777405 425.491150,651.655273 
z"/>
<path fill="#000000" opacity="1.000000" stroke="none" 
	d="
M451.595947,767.172180 
	C450.905701,769.497009 450.394989,771.423523 449.740814,773.300049 
	C449.092407,775.160217 449.000183,776.880676 450.437622,778.420959 
	C452.220215,780.331055 453.215363,782.379639 450.783112,784.418518 
	C448.434814,786.386963 445.670074,788.330811 442.740875,785.960632 
	C439.823547,783.600037 437.067352,783.601135 433.540161,784.202820 
	C416.443787,787.119385 406.423798,775.617615 407.558929,761.687134 
	C407.842285,758.209412 407.348419,754.627930 407.946655,751.223267 
	C410.186554,738.475037 418.430878,732.641235 432.476044,733.493286 
	C443.023254,734.133240 450.874054,740.973938 452.112488,751.346558 
	C452.717957,756.417969 452.895538,761.645935 451.595947,767.172180 
M426.570923,743.965881 
	C417.622711,748.111694 415.346771,765.390625 422.916748,771.804810 
	C424.342651,773.013000 425.953308,774.036133 427.899323,773.435669 
	C430.311157,772.691467 429.722595,770.539978 429.644073,768.808105 
	C429.471313,764.996521 430.687378,762.998901 434.892792,764.182800 
	C440.558350,765.777832 440.800690,765.579407 440.851898,759.556274 
	C440.865997,757.898376 440.815063,756.233398 440.676300,754.581604 
	C440.012360,746.680603 435.365723,742.916504 426.570923,743.965881 
z"/>
<path fill="#000000" opacity="1.000000" stroke="none" 
	d="
M468.850708,171.284088 
	C466.729767,169.605759 466.710999,167.589050 466.708893,165.577591 
	C466.695984,153.272034 466.797119,140.965012 466.626953,128.661713 
	C466.564392,124.138351 468.307465,122.372742 472.835632,122.587532 
	C478.310883,122.847244 483.815552,122.829079 489.293518,122.598930 
	C495.350464,122.344452 500.305176,124.180595 502.824768,129.870285 
	C505.545319,136.013840 505.789490,142.554626 500.679077,147.495529 
	C497.184784,150.873917 497.684418,153.398514 499.744598,156.914093 
	C501.755585,160.345749 503.416748,163.995026 505.054565,167.628510 
	C506.265503,170.314835 505.621368,172.041504 502.275208,172.333359 
	C497.755096,172.727615 494.063141,171.680283 491.691010,167.473007 
	C489.814514,164.144760 487.849579,160.865906 485.892365,157.583939 
	C484.832123,155.806122 483.503113,154.119232 481.179108,154.672928 
	C478.836060,155.231110 479.201233,157.467987 479.075562,159.223404 
	C478.957123,160.877304 479.083649,162.547363 479.061066,164.209747 
	C478.954254,172.082047 477.022125,173.511398 468.850708,171.284088 
M488.570709,132.723938 
	C486.587402,132.219528 484.596283,132.372391 482.623108,132.736343 
	C480.424011,133.141953 478.258301,133.652695 478.338745,136.611725 
	C478.401062,138.904449 477.842438,141.760544 480.920074,142.355240 
	C484.338043,143.015732 487.994690,143.371078 490.441437,139.863403 
	C492.282257,137.224365 492.061310,134.895050 488.570709,132.723938 
z"/>
<path fill="#000000" opacity="1.000000" stroke="none" 
	d="
M533.826904,807.337585 
	C526.712769,807.515320 520.765259,805.889160 516.881714,800.000366 
	C515.288818,797.585022 512.970093,794.529114 516.143616,792.005981 
	C519.125549,789.635132 522.736450,790.233032 525.864685,792.437500 
	C527.212585,793.387329 528.334595,794.667297 529.710510,795.565552 
	C532.184265,797.180359 534.524414,796.209595 536.656982,794.739136 
	C537.935730,793.857422 538.893982,792.543274 538.446899,790.900513 
	C537.727966,788.258179 535.587769,787.584045 533.111877,787.191650 
	C529.349915,786.595520 525.600403,785.970154 522.185486,783.965393 
	C514.340393,779.359863 512.273865,770.440063 517.488953,762.997559 
	C523.956360,753.767822 540.538147,753.280579 547.250977,762.130676 
	C549.162537,764.650879 550.807922,767.916443 548.348450,770.229797 
	C545.987549,772.450317 542.452271,771.852356 539.754395,769.441040 
	C536.798157,766.798950 533.555786,765.548523 529.743408,767.592529 
	C528.348999,768.340088 527.406128,769.457031 527.400635,771.151550 
	C527.394897,772.927124 528.520508,773.912537 529.984253,774.458679 
	C531.374390,774.977295 532.840942,775.393738 534.309021,775.584412 
	C545.314087,777.013550 550.329346,781.380005 550.382385,789.681580 
	C550.451599,800.527832 545.769226,805.657532 533.826904,807.337585 
z"/>
<path fill="#000000" opacity="1.000000" stroke="none" 
	d="
M297.650391,530.998108 
	C297.651154,521.847168 297.849243,513.189636 297.574188,504.547211 
	C297.425537,499.876556 299.221069,498.328674 303.725220,498.580078 
	C308.866730,498.867065 314.036591,498.626617 319.193909,498.653931 
	C328.162720,498.701416 333.819275,503.850250 334.323212,512.387024 
	C334.905640,522.254089 329.339417,529.315369 320.212250,530.288025 
	C309.682373,531.410095 309.554810,531.407104 309.299469,542.414978 
	C309.193115,547.000305 307.151398,548.419128 302.797180,548.424927 
	C298.365509,548.430786 297.448242,546.233459 297.618103,542.476562 
	C297.783295,538.823914 297.651855,535.157959 297.650391,530.998108 
M321.623260,515.107727 
	C322.007050,512.160950 321.343353,509.838684 318.087830,508.962341 
	C315.282379,508.207184 312.312561,507.710358 310.049622,509.781982 
	C307.890381,511.758698 308.225494,514.529175 309.082001,517.216248 
	C309.771027,519.378052 311.358490,519.889954 313.288910,519.958679 
	C316.752319,520.082031 319.987793,519.704956 321.623260,515.107727 
z"/>
<path fill="#000000" opacity="1.000000" stroke="none" 
	d="
M779.298584,519.740784 
	C778.217163,525.088684 774.355103,523.225281 771.570496,523.118652 
	C768.483032,523.000488 767.697876,520.498535 767.709473,517.717834 
	C767.748291,508.400543 767.603638,499.079529 767.831055,489.767303 
	C767.932495,485.617035 766.410645,483.907318 762.301331,484.339905 
	C760.820740,484.495758 759.296753,484.230469 757.814026,484.375885 
	C753.922485,484.757538 752.582520,483.100098 752.546387,479.205414 
	C752.509277,475.194519 754.415894,474.565491 757.763611,474.564941 
	C768.240173,474.563141 778.723938,475.020294 789.193909,474.211121 
	C793.005981,473.916473 795.089783,475.412872 795.073242,479.609467 
	C795.056580,483.836517 792.682129,484.441986 789.233032,484.403839 
	C778.185242,484.281586 779.406128,483.500916 779.353760,494.310303 
	C779.313416,502.629303 779.331726,510.948608 779.298584,519.740784 
z"/>
</svg>