<svg version="1.1" id="Layer_1" xmlns="http://www.w3.org/2000/svg" xmlns:xlink="http://www.w3.org/1999/xlink" x="0px" y="0px"
	 width="100%" viewBox="0 0 710 1842" enable-background="new 0 0 710 1842" xml:space="preserve">
<path fill="#000000" opacity="1.000000" stroke="none" 
	d="
M1.000009,1770.000000 
	C1.000000,1204.967285 1.000000,639.934570 1.400716,74.294571 
	C2.010971,60.310429 5.960609,47.960064 13.111557,36.834034 
	C20.225861,25.765020 29.159220,16.117496 41.275951,10.478521 
	C49.532730,6.635920 58.403671,4.112998 67.000000,1.000000 
	C259.699402,1.000000 452.398804,1.000000 645.684814,1.384903 
	C659.029968,3.337888 670.296875,8.601046 680.456726,16.181715 
	C691.018799,24.062508 699.240845,34.004749 703.989685,46.408531 
	C706.691650,53.465870 708.686646,60.793869 711.000000,68.000000 
	C711.000000,637.032715 711.000000,1206.065430 710.610474,1775.690674 
	C710.142273,1777.770020 710.288330,1779.309814 709.951294,1780.735596 
	C704.278870,1804.727905 691.311584,1823.446289 669.166077,1834.815674 
	C661.946350,1838.522217 653.749817,1840.325928 646.000000,1843.000000 
	C453.300598,1843.000000 260.601196,1843.000000 67.314713,1842.614746 
	C61.480659,1840.827026 56.053421,1839.890869 51.017181,1837.943726 
	C26.440737,1828.441162 10.707390,1810.840576 4.034390,1785.317871 
	C2.720104,1780.291016 1.996202,1775.109985 1.000009,1770.000000 
M369.004944,1614.500000 
	C369.004944,1546.340576 369.004974,1478.181152 369.004822,1410.021729 
	C369.004822,1408.688477 369.072815,1407.350830 368.990662,1406.022583 
	C368.457916,1397.405151 362.147827,1391.029785 353.658813,1390.492065 
	C345.234192,1389.958496 338.409363,1395.052734 336.769348,1403.497681 
	C336.076843,1407.063721 335.847443,1410.774414 335.873169,1414.415894 
	C335.979065,1429.404419 336.400757,1444.390991 336.458710,1459.379272 
	C336.688049,1518.700073 336.979706,1578.021729 336.789886,1637.341675 
	C336.767181,1644.434326 334.947327,1651.944092 332.179291,1658.509521 
	C327.663055,1669.221313 316.206543,1674.615601 305.587494,1672.601929 
	C292.191345,1670.061890 284.089355,1661.671509 282.918365,1649.024414 
	C282.657928,1646.211304 282.532990,1643.375244 282.532532,1640.549805 
	C282.513916,1521.223145 282.547546,1401.896362 282.408966,1282.569824 
	C282.403107,1277.528442 281.713074,1272.117432 279.798462,1267.521606 
	C275.041107,1256.102417 260.375641,1254.525513 253.110092,1264.518188 
	C250.436249,1268.195679 248.492188,1272.619507 247.108826,1276.985962 
	C234.472839,1316.869873 212.676086,1350.661743 180.139465,1377.107422 
	C170.493179,1384.947998 160.062180,1391.920654 149.511063,1398.524536 
	C137.680283,1405.929077 124.788689,1404.931152 116.171211,1397.000610 
	C102.064278,1384.017700 104.052795,1364.612061 121.460197,1353.626587 
	C145.323395,1338.566772 163.009247,1318.077515 177.068344,1293.996460 
	C190.948959,1270.221191 200.967224,1244.712036 210.964172,1219.194702 
	C224.103622,1185.656372 236.751617,1151.904053 254.955978,1120.633667 
	C269.110657,1096.319824 286.306519,1074.557495 310.379791,1059.412720 
	C320.704376,1052.917480 332.234772,1048.321045 343.291962,1043.017456 
	C347.629486,1040.936890 351.935974,1038.939087 351.952301,1033.276367 
	C351.967651,1027.954224 351.942566,1022.597168 351.374634,1017.315735 
	C350.389282,1008.152527 347.460480,1006.178467 338.822815,1009.101746 
	C302.555847,1021.375488 271.214417,1041.129883 247.579102,1071.644897 
	C223.779419,1102.372192 206.898483,1136.973145 192.866165,1173.056885 
	C180.177719,1205.684937 168.514847,1238.750488 151.980850,1269.755859 
	C140.072037,1292.087646 125.449142,1311.965942 103.151421,1325.197876 
	C75.201668,1341.783447 65.245689,1377.147339 80.454987,1405.146118 
	C96.453278,1434.597534 131.314651,1445.860107 161.029022,1430.369141 
	C195.570923,1412.361572 223.997864,1387.152466 246.183990,1355.029175 
	C246.828201,1354.096436 247.686264,1353.311401 248.995041,1351.837646 
	C248.995041,1354.699341 248.995041,1356.529907 248.995041,1358.360474 
	C248.995041,1454.521851 248.988403,1550.683228 248.999390,1646.844604 
	C249.002380,1673.034058 266.527618,1696.567261 291.645081,1703.920898 
	C304.625916,1707.721191 317.541534,1707.648804 330.268372,1702.526733 
	C335.063171,1700.597046 335.969543,1701.289551 336.458344,1706.540894 
	C336.781433,1710.011963 336.704254,1713.587646 337.540710,1716.932983 
	C344.200012,1743.564575 369.483704,1763.163574 396.462677,1762.805420 
	C424.584015,1762.432251 448.419128,1743.138672 454.701630,1715.663574 
	C457.195740,1704.756226 457.195770,1704.756104 467.849976,1707.458862 
	C500.304443,1715.692017 530.872803,1699.100952 540.499329,1667.761963 
	C544.757385,1653.899902 544.673096,1639.534302 544.402954,1625.190796 
	C544.183411,1613.537109 544.130127,1601.880127 544.010315,1590.224609 
	C543.972107,1586.510010 545.553772,1585.749634 549.068726,1586.876465 
	C553.789062,1588.389648 558.635864,1589.698608 563.527405,1590.456665 
	C598.540283,1595.882446 632.195312,1565.520142 630.583496,1530.293335 
	C630.096680,1519.653198 630.036743,1508.982544 630.135559,1498.328979 
	C630.351807,1475.019531 631.041138,1451.712646 631.093628,1428.403687 
	C631.198547,1381.765503 631.166260,1335.125732 630.883667,1288.488525 
	C630.665771,1252.531006 632.997803,1216.518066 629.049316,1180.629761 
	C625.004089,1143.862183 612.700012,1110.155029 590.718384,1080.278442 
	C565.527405,1046.039551 531.146667,1024.886353 491.379852,1011.651001 
	C489.831451,1011.135620 488.130249,1010.981323 486.486145,1010.872498 
	C483.297424,1010.661377 481.604553,1011.777283 481.753113,1015.460083 
	C482.014221,1021.933350 481.784210,1028.425049 481.835968,1034.908325 
	C481.906555,1043.741333 481.981049,1043.643677 490.428558,1047.103149 
	C556.283203,1074.072998 592.501709,1122.598877 596.009460,1194.110229 
	C597.403564,1222.530640 597.232056,1251.035645 597.433044,1279.504639 
	C597.654053,1310.818726 597.525757,1342.135864 597.472351,1373.451416 
	C597.412170,1408.769165 597.267761,1444.086792 597.156555,1479.404419 
	C597.102112,1496.701782 597.405029,1514.010010 596.883057,1531.293457 
	C596.310547,1550.246338 580.042114,1561.464111 562.107666,1555.867798 
	C550.905823,1552.372192 544.198669,1542.090332 544.180176,1528.236694 
	C544.108948,1474.908813 544.125488,1421.580688 543.889587,1368.253540 
	C543.869568,1363.731323 542.836060,1358.977051 541.188904,1354.753296 
	C538.648132,1348.238159 532.967468,1345.232666 526.095764,1345.582764 
	C519.010986,1345.943848 514.066711,1349.312500 512.208679,1356.362671 
	C510.868927,1361.446411 510.260193,1366.862183 510.246277,1372.132446 
	C510.169281,1401.289307 510.445465,1430.447021 510.468750,1459.604370 
	C510.517334,1520.434326 510.489899,1581.264282 510.466095,1642.094238 
	C510.464813,1645.419189 510.322235,1648.753052 510.055420,1652.067505 
	C509.061554,1664.412231 498.697418,1674.872559 486.449249,1675.989014 
	C472.909790,1677.223267 461.190277,1669.533691 458.109314,1656.829712 
	C456.948120,1652.041626 456.586151,1646.957153 456.580261,1642.006836 
	C456.489105,1565.344482 456.522858,1488.682129 456.492767,1412.019653 
	C456.491608,1409.031372 456.407104,1405.997925 455.903351,1403.063965 
	C454.495880,1394.866699 448.693451,1389.721313 440.592224,1389.161987 
	C433.076172,1388.643188 426.272369,1393.193481 423.951813,1400.819458 
	C423.053314,1403.772217 422.871155,1407.034180 422.869415,1410.155396 
	C422.816101,1505.816772 422.834015,1601.478149 422.793182,1697.139526 
	C422.791687,1700.621948 422.533600,1704.138672 422.004944,1707.579346 
	C420.829529,1715.229614 417.037018,1721.228027 410.181488,1725.119873 
	C390.933441,1736.047241 369.303467,1722.841797 369.193176,1699.988525 
	C369.057251,1671.826050 369.061340,1643.662842 369.004944,1614.500000 
M391.500061,1112.826172 
	C382.002594,1112.845093 372.499207,1112.661255 363.009186,1112.936768 
	C352.502167,1113.241943 346.576935,1119.238525 346.550720,1129.626099 
	C346.515503,1143.573608 346.707214,1157.524658 347.026794,1171.469116 
	C347.255951,1181.465088 353.198700,1187.957153 361.844452,1188.173584 
	C371.506714,1188.415283 378.638123,1182.176392 379.389465,1172.224365 
	C379.876801,1165.769409 379.803375,1159.253296 379.637482,1152.773315 
	C379.476562,1146.488647 380.737244,1145.019653 386.927704,1145.037720 
	C406.254761,1145.093994 425.582062,1145.123291 444.909119,1145.083252 
	C451.321320,1145.069946 452.462250,1146.057007 452.477112,1152.556641 
	C452.499939,1162.538086 452.483337,1172.519409 452.483337,1182.500854 
	C452.483368,1219.493774 452.472595,1256.486816 452.507416,1293.479736 
	C452.509766,1295.966187 452.595062,1298.506104 453.092255,1300.928711 
	C454.633148,1308.436768 460.341064,1313.039795 467.934448,1313.173462 
	C478.236786,1313.354858 484.807404,1306.536987 484.818604,1295.243408 
	C484.872253,1241.093140 484.895355,1186.942627 484.809113,1132.792480 
	C484.785339,1117.873291 479.461365,1112.831177 464.486420,1112.827637 
	C440.490997,1112.821777 416.495544,1112.826050 391.500061,1112.826172 
z"/>
<path fill="#FFFFFF" opacity="1.000000" stroke="none" 
	d="
M66.531342,1.000000 
	C58.403671,4.112998 49.532730,6.635920 41.275951,10.478521 
	C29.159220,16.117496 20.225861,25.765020 13.111557,36.834034 
	C5.960609,47.960064 2.010971,60.310429 1.400716,73.843666 
	C1.000000,49.743496 1.000000,25.486990 1.000000,1.000000 
	C22.687017,1.000000 44.374851,1.000000 66.531342,1.000000 
z"/>
<path fill="#FFFFFF" opacity="1.000000" stroke="none" 
	d="
M1.000009,1770.468628 
	C1.996202,1775.109985 2.720104,1780.291016 4.034390,1785.317871 
	C10.707390,1810.840576 26.440737,1828.441162 51.017181,1837.943726 
	C56.053421,1839.890869 61.480659,1840.827026 66.863815,1842.614746 
	C45.069454,1843.000000 23.138906,1843.000000 1.000000,1843.000000 
	C1.000000,1818.979492 1.000000,1794.958374 1.000009,1770.468628 
z"/>
<path fill="#FFFFFF" opacity="1.000000" stroke="none" 
	d="
M711.000000,67.531342 
	C708.686646,60.793869 706.691650,53.465870 703.989685,46.408531 
	C699.240845,34.004749 691.018799,24.062508 680.456726,16.181715 
	C670.296875,8.601046 659.029968,3.337888 646.135742,1.384903 
	C667.594604,1.000000 689.189209,1.000000 711.000000,1.000000 
	C711.000000,23.020422 711.000000,45.041553 711.000000,67.531342 
z"/>
<path fill="#FFFFFF" opacity="1.000000" stroke="none" 
	d="
M646.468628,1843.000000 
	C653.749817,1840.325928 661.946350,1838.522217 669.166077,1834.815674 
	C691.311584,1823.446289 704.278870,1804.727905 709.951294,1780.735596 
	C710.288330,1779.309814 710.142273,1777.770020 710.610474,1776.141602 
	C711.000000,1798.259033 711.000000,1820.518188 711.000000,1843.000000 
	C689.646301,1843.000000 668.291809,1843.000000 646.468628,1843.000000 
z"/>
<path fill="#FCFCFC" opacity="1.000000" stroke="none" 
	d="
M369.004944,1615.000000 
	C369.061340,1643.662842 369.057251,1671.826050 369.193176,1699.988525 
	C369.303467,1722.841797 390.933441,1736.047241 410.181488,1725.119873 
	C417.037018,1721.228027 420.829529,1715.229614 422.004944,1707.579346 
	C422.533600,1704.138672 422.791687,1700.621948 422.793182,1697.139526 
	C422.834015,1601.478149 422.816101,1505.816772 422.869415,1410.155396 
	C422.871155,1407.034180 423.053314,1403.772217 423.951813,1400.819458 
	C426.272369,1393.193481 433.076172,1388.643188 440.592224,1389.161987 
	C448.693451,1389.721313 454.495880,1394.866699 455.903351,1403.063965 
	C456.407104,1405.997925 456.491608,1409.031372 456.492767,1412.019653 
	C456.522858,1488.682129 456.489105,1565.344482 456.580261,1642.006836 
	C456.586151,1646.957153 456.948120,1652.041626 458.109314,1656.829712 
	C461.190277,1669.533691 472.909790,1677.223267 486.449249,1675.989014 
	C498.697418,1674.872559 509.061554,1664.412231 510.055420,1652.067505 
	C510.322235,1648.753052 510.464813,1645.419189 510.466095,1642.094238 
	C510.489899,1581.264282 510.517334,1520.434326 510.468750,1459.604370 
	C510.445465,1430.447021 510.169281,1401.289307 510.246277,1372.132446 
	C510.260193,1366.862183 510.868927,1361.446411 512.208679,1356.362671 
	C514.066711,1349.312500 519.010986,1345.943848 526.095764,1345.582764 
	C532.967468,1345.232666 538.648132,1348.238159 541.188904,1354.753296 
	C542.836060,1358.977051 543.869568,1363.731323 543.889587,1368.253540 
	C544.125488,1421.580688 544.108948,1474.908813 544.180176,1528.236694 
	C544.198669,1542.090332 550.905823,1552.372192 562.107666,1555.867798 
	C580.042114,1561.464111 596.310547,1550.246338 596.883057,1531.293457 
	C597.405029,1514.010010 597.102112,1496.701782 597.156555,1479.404419 
	C597.267761,1444.086792 597.412170,1408.769165 597.472351,1373.451416 
	C597.525757,1342.135864 597.654053,1310.818726 597.433044,1279.504639 
	C597.232056,1251.035645 597.403564,1222.530640 596.009460,1194.110229 
	C592.501709,1122.598877 556.283203,1074.072998 490.428558,1047.103149 
	C481.981049,1043.643677 481.906555,1043.741333 481.835968,1034.908325 
	C481.784210,1028.425049 482.014221,1021.933350 481.753113,1015.460083 
	C481.604553,1011.777283 483.297424,1010.661377 486.486145,1010.872498 
	C488.130249,1010.981323 489.831451,1011.135620 491.379852,1011.651001 
	C531.146667,1024.886353 565.527405,1046.039551 590.718384,1080.278442 
	C612.700012,1110.155029 625.004089,1143.862183 629.049316,1180.629761 
	C632.997803,1216.518066 630.665771,1252.531006 630.883667,1288.488525 
	C631.166260,1335.125732 631.198547,1381.765503 631.093628,1428.403687 
	C631.041138,1451.712646 630.351807,1475.019531 630.135559,1498.328979 
	C630.036743,1508.982544 630.096680,1519.653198 630.583496,1530.293335 
	C632.195312,1565.520142 598.540283,1595.882446 563.527405,1590.456665 
	C558.635864,1589.698608 553.789062,1588.389648 549.068726,1586.876465 
	C545.553772,1585.749634 543.972107,1586.510010 544.010315,1590.224609 
	C544.130127,1601.880127 544.183411,1613.537109 544.402954,1625.190796 
	C544.673096,1639.534302 544.757385,1653.899902 540.499329,1667.761963 
	C530.872803,1699.100952 500.304443,1715.692017 467.849976,1707.458862 
	C457.195770,1704.756104 457.195740,1704.756226 454.701630,1715.663574 
	C448.419128,1743.138672 424.584015,1762.432251 396.462677,1762.805420 
	C369.483704,1763.163574 344.200012,1743.564575 337.540710,1716.932983 
	C336.704254,1713.587646 336.781433,1710.011963 336.458344,1706.540894 
	C335.969543,1701.289551 335.063171,1700.597046 330.268372,1702.526733 
	C317.541534,1707.648804 304.625916,1707.721191 291.645081,1703.920898 
	C266.527618,1696.567261 249.002380,1673.034058 248.999390,1646.844604 
	C248.988403,1550.683228 248.995041,1454.521851 248.995041,1358.360474 
	C248.995041,1356.529907 248.995041,1354.699341 248.995041,1351.837646 
	C247.686264,1353.311401 246.828201,1354.096436 246.183990,1355.029175 
	C223.997864,1387.152466 195.570923,1412.361572 161.029022,1430.369141 
	C131.314651,1445.860107 96.453278,1434.597534 80.454987,1405.146118 
	C65.245689,1377.147339 75.201668,1341.783447 103.151421,1325.197876 
	C125.449142,1311.965942 140.072037,1292.087646 151.980850,1269.755859 
	C168.514847,1238.750488 180.177719,1205.684937 192.866165,1173.056885 
	C206.898483,1136.973145 223.779419,1102.372192 247.579102,1071.644897 
	C271.214417,1041.129883 302.555847,1021.375488 338.822815,1009.101746 
	C347.460480,1006.178467 350.389282,1008.152527 351.374634,1017.315735 
	C351.942566,1022.597168 351.967651,1027.954224 351.952301,1033.276367 
	C351.935974,1038.939087 347.629486,1040.936890 343.291962,1043.017456 
	C332.234772,1048.321045 320.704376,1052.917480 310.379791,1059.412720 
	C286.306519,1074.557495 269.110657,1096.319824 254.955978,1120.633667 
	C236.751617,1151.904053 224.103622,1185.656372 210.964172,1219.194702 
	C200.967224,1244.712036 190.948959,1270.221191 177.068344,1293.996460 
	C163.009247,1318.077515 145.323395,1338.566772 121.460197,1353.626587 
	C104.052795,1364.612061 102.064278,1384.017700 116.171211,1397.000610 
	C124.788689,1404.931152 137.680283,1405.929077 149.511063,1398.524536 
	C160.062180,1391.920654 170.493179,1384.947998 180.139465,1377.107422 
	C212.676086,1350.661743 234.472839,1316.869873 247.108826,1276.985962 
	C248.492188,1272.619507 250.436249,1268.195679 253.110092,1264.518188 
	C260.375641,1254.525513 275.041107,1256.102417 279.798462,1267.521606 
	C281.713074,1272.117432 282.403107,1277.528442 282.408966,1282.569824 
	C282.547546,1401.896362 282.513916,1521.223145 282.532532,1640.549805 
	C282.532990,1643.375244 282.657928,1646.211304 282.918365,1649.024414 
	C284.089355,1661.671509 292.191345,1670.061890 305.587494,1672.601929 
	C316.206543,1674.615601 327.663055,1669.221313 332.179291,1658.509521 
	C334.947327,1651.944092 336.767181,1644.434326 336.789886,1637.341675 
	C336.979706,1578.021729 336.688049,1518.700073 336.458710,1459.379272 
	C336.400757,1444.390991 335.979065,1429.404419 335.873169,1414.415894 
	C335.847443,1410.774414 336.076843,1407.063721 336.769348,1403.497681 
	C338.409363,1395.052734 345.234192,1389.958496 353.658813,1390.492065 
	C362.147827,1391.029785 368.457916,1397.405151 368.990662,1406.022583 
	C369.072815,1407.350830 369.004822,1408.688477 369.004822,1410.021729 
	C369.004974,1478.181152 369.004944,1546.340576 369.004944,1615.000000 
z"/>
<path fill="#FCFCFC" opacity="1.000000" stroke="none" 
	d="
M392.000092,1112.826172 
	C416.495544,1112.826050 440.490997,1112.821777 464.486420,1112.827637 
	C479.461365,1112.831177 484.785339,1117.873291 484.809113,1132.792480 
	C484.895355,1186.942627 484.872253,1241.093140 484.818604,1295.243408 
	C484.807404,1306.536987 478.236786,1313.354858 467.934448,1313.173462 
	C460.341064,1313.039795 454.633148,1308.436768 453.092255,1300.928711 
	C452.595062,1298.506104 452.509766,1295.966187 452.507416,1293.479736 
	C452.472595,1256.486816 452.483368,1219.493774 452.483337,1182.500854 
	C452.483337,1172.519409 452.499939,1162.538086 452.477112,1152.556641 
	C452.462250,1146.057007 451.321320,1145.069946 444.909119,1145.083252 
	C425.582062,1145.123291 406.254761,1145.093994 386.927704,1145.037720 
	C380.737244,1145.019653 379.476562,1146.488647 379.637482,1152.773315 
	C379.803375,1159.253296 379.876801,1165.769409 379.389465,1172.224365 
	C378.638123,1182.176392 371.506714,1188.415283 361.844452,1188.173584 
	C353.198700,1187.957153 347.255951,1181.465088 347.026794,1171.469116 
	C346.707214,1157.524658 346.515503,1143.573608 346.550720,1129.626099 
	C346.576935,1119.238525 352.502167,1113.241943 363.009186,1112.936768 
	C372.499207,1112.661255 382.002594,1112.845093 392.000092,1112.826172 
z"/>
</svg>