0
SECTION
2
HEADER
9
$INSUNITS
70
4
9
$ACADVER
1
AC1014
9
$HANDSEED
5
FFFF
0
ENDSEC
0
SECTION
2
TABLES
0
TABLE
2
VPORT
5
8
100
AcDbSymbolTable
0
ENDTAB
0
TABLE
2
LTYPE
5
5
100
AcDbSymbolTable
0
LTYPE
5
14
100
AcDbSymbolTableRecord
100
AcDbLinetypeTableRecord
2
BYBLOCK
70
0
0
LTYPE
5
15
100
AcDbSymbolTableRecord
100
AcDbLinetypeTableRecord
2
BYLAYER
70
0
0
LTYPE
5
16
100
AcDbSymbolTableRecord
100
AcDbLinetypeTableRecord
2
DASHED
70
0
3
Dashed __ __ __ __ __ __ __ __ __ __ __ __ __ _
72
65
73
2
40
0.75
49
0.5
74
0
49
-0.25
74
0
0
ENDTAB
0
TABLE
2
LAYER
5
2
100
AcDbSymbolTable
70
2
0
LAYER
5
50
100
AcDbSymbolTableRecord
100
AcDbLayerTableRecord
2
0
70
0
62
7
6
CONTINUOUS
0
ENDTAB
0
TABLE
2
STYLE
5
3
100
AcDbSymbolTable
70
1
0
STYLE
5
11
100
AcDbSymbolTableRecord
100
AcDbTextStyleTableRecord
2
STANDARD
70
0
0
ENDTAB
0
TABLE
2
VIEW
5
6
100
AcDbSymbolTable
70
0
0
ENDTAB
0
TABLE
2
UCS
5
7
100
AcDbSymbolTable
70
0
0
ENDTAB
0
TABLE
2
APPID
5
9
100
AcDbSymbolTable
70
2
0
APPID
5
12
100
AcDbSymbolTableRecord
100
AcDbRegAppTableRecord
2
ACAD
70
0
0
ENDTAB
0
TABLE
2
DIMSTYLE
5
A
100
AcDbSymbolTable
70
1
0
ENDTAB
0
TABLE
2
BLOCK_RECORD
5
1
100
AcDbSymbolTable
70
1
0
BLOCK_RECORD
5
1F
100
AcDbSymbolTableRecord
100
AcDbBlockTableRecord
2
*MODEL_SPACE
0
BLOCK_RECORD
5
1B
100
AcDbSymbolTableRecord
100
AcDbBlockTableRecord
2
*PAPER_SPACE
0
ENDTAB
0
ENDSEC
0
SECTION
2
BLOCKS
0
BLOCK
5
20
100
AcDbEntity
100
AcDbBlockBegin
2
*MODEL_SPACE
0
ENDBLK
5
21
100
AcDbEntity
100
AcDbBlockEnd
0
BLOCK
5
1C
100
AcDbEntity
100
AcDbBlockBegin
2
*PAPER_SPACE
0
ENDBLK
5
1D
100
AcDbEntity
100
AcDbBlockEnd
0
ENDSEC
0
SECTION
2
ENTITIES
0
SPLINE
5
100
100
AcDbEntity
8
0
100
AcDbSpline
70
4
71
3
72
8
73
4
74
0
42
0.000000001
43
0.0000000001
44
0.0000000001
40
0
40
0
40
0
40
0
40
1
40
1
40
1
40
1
41
1
41
1
41
1
41
1
10
-76.726373912271413
20
-37.142395822499452
30
0
10
-76.726083308969862
20
-40.534148039489551
30
0
10
-76.725037706894724
20
-43.925900256479657
30
0
10
-76.728140324496451
20
-47.317649624417783
30
0
0
SPLINE
5
101
100
AcDbEntity
8
0
100
AcDbSpline
70
4
71
3
72
8
73
4
74
0
42
0.000000001
43
0.0000000001
44
0.0000000001
40
0
40
0
40
0
40
0
40
1
40
1
40
1
40
1
41
1
41
1
41
1
41
1
10
-76.728140324496451
20
-47.317649624417783
30
0
10
-76.728393890122319
20
-47.594477759655021
30
0
10
-76.682222153801064
20
-47.843372364794668
30
0
10
-76.448477382543203
20
-48.043845907078087
30
0
0
SPLINE
5
102
100
AcDbEntity
8
0
100
AcDbSpline
70
4
71
3
72
8
73
4
74
0
42
0.000000001
43
0.0000000001
44
0.0000000001
40
0
40
0
40
0
40
0
40
1
40
1
40
1
40
1
41
1
41
1
41
1
41
1
10
-76.448477382543203
20
-48.043845907078087
30
0
10
-75.907260072995456
20
-48.428801262904273
30
0
10
-75.285636818584152
20
-48.188651822804616
30
0
10
-75.142206994961981
20
-47.55783182861515
30
0
0
SPLINE
5
103
100
AcDbEntity
8
0
100
AcDbSpline
70
4
71
3
72
8
73
4
74
0
42
0.000000001
43
0.0000000001
44
0.0000000001
40
0
40
0
40
0
40
0
40
1
40
1
40
1
40
1
41
1
41
1
41
1
41
1
10
-75.142206994961981
20
-47.55783182861515
30
0
10
-75.061476258173187
20
-47.202745933704193
30
0
10
-75.115420208284675
20
-46.843783903580032
30
0
10
-75.113212193003363
20
-46.487710812159435
30
0
0
SPLINE
5
104
100
AcDbEntity
8
0
100
AcDbSpline
70
4
71
3
72
8
73
4
74
0
42
0.000000001
43
0.0000000001
44
0.0000000001
40
0
40
0
40
0
40
0
40
1
40
1
40
1
40
1
41
1
41
1
41
1
41
1
10
-75.113212193003363
20
-46.487710812159435
30
0
10
-75.103704906559813
20
-44.955512027416198
30
0
10
-75.111374554478914
20
-43.423196431541967
30
0
10
-75.115571208039398
20
-41.890930694077298
30
0
0
SPLINE
5
105
100
AcDbEntity
8
0
100
AcDbSpline
70
4
71
3
72
8
73
4
74
0
42
0.000000001
43
0.0000000001
44
0.0000000001
40
0
40
0
40
0
40
0
40
1
40
1
40
1
40
1
41
1
41
1
41
1
41
1
10
-75.115571208039398
20
-41.890930694077298
30
0
10
-75.116380338800553
20
-41.595623607724441
30
0
10
-75.133015953287767
20
-41.300379200515053
30
0
10
-75.135676967833248
20
-41.005046472694403
30
0
0
SPLINE
5
106
100
AcDbEntity
8
0
100
AcDbSpline
70
4
71
3
72
8
73
4
74
0
42
0.000000001
43
0.0000000001
44
0.0000000001
40
0
40
0
40
0
40
0
40
1
40
1
40
1
40
1
41
1
41
1
41
1
41
1
10
-75.135676967833248
20
-41.005046472694403
30
0
10
-75.136862173455214
20
-40.87331485648523
30
0
10
-75.130580013848373
20
-40.740113129456503
30
0
10
-75.111599629585001
20
-40.609924274892265
30
0
0
SPLINE
5
107
100
AcDbEntity
8
0
100
AcDbSpline
70
4
71
3
72
8
73
4
74
0
42
0.000000001
43
0.0000000001
44
0.0000000001
40
0
40
0
40
0
40
0
40
1
40
1
40
1
40
1
41
1
41
1
41
1
41
1
10
-75.111599629585001
20
-40.609924274892265
30
0
10
-75.080735849530214
20
-40.398201250882053
30
0
10
-74.897775429742566
20
-40.245054735496105
30
0
10
-74.68718205484079
20
-40.256329858690691
30
0
0
SPLINE
5
108
100
AcDbEntity
8
0
100
AcDbSpline
70
4
71
3
72
8
73
4
74
0
42
0.000000001
43
0.0000000001
44
0.0000000001
40
0
40
0
40
0
40
0
40
1
40
1
40
1
40
1
41
1
41
1
41
1
41
1
10
-74.68718205484079
20
-40.256329858690691
30
0
10
-74.474360721293863
20
-40.267726066594243
30
0
10
-74.346287287821738
20
-40.393694050656194
30
0
10
-74.29518099347824
20
-40.595562203881812
30
0
0
SPLINE
5
109
100
AcDbEntity
8
0
100
AcDbSpline
70
4
71
3
72
8
73
4
74
0
42
0.000000001
43
0.0000000001
44
0.0000000001
40
0
40
0
40
0
40
0
40
1
40
1
40
1
40
1
41
1
41
1
41
1
41
1
10
-74.29518099347824
20
-40.595562203881812
30
0
10
-74.280232017760738
20
-40.654613079660074
30
0
10
-74.284573972971998
20
-40.719218182265337
30
0
10
-74.284548331504226
20
-40.78128050598211
30
0
0
SPLINE
5
110
100
AcDbEntity
8
0
100
AcDbSpline
70
4
71
3
72
8
73
4
74
0
42
0.000000001
43
0.0000000001
44
0.0000000001
40
0
40
0
40
0
40
0
40
1
40
1
40
1
40
1
41
1
41
1
41
1
41
1
10
-74.284548331504226
20
-40.78128050598211
30
0
10
-74.283898747653723
20
-42.430461364855333
30
0
10
-74.283952879641248
20
-44.079640799202565
30
0
10
-74.283636634871925
20
-45.728821658075802
30
0
0
SPLINE
5
111
100
AcDbEntity
8
0
100
AcDbSpline
70
4
71
3
72
8
73
4
74
0
42
0.000000001
43
0.0000000001
44
0.0000000001
40
0
40
0
40
0
40
0
40
1
40
1
40
1
40
1
41
1
41
1
41
1
41
1
10
-74.283636634871925
20
-45.728821658075802
30
0
10
-74.283431503129677
20
-46.801613660758917
30
0
10
-74.286679422382193
20
-47.874425606805872
30
0
10
-74.280932884546814
20
-48.947189118969234
30
0
0
SPLINE
5
112
100
AcDbEntity
8
0
100
AcDbSpline
70
4
71
3
72
8
73
4
74
0
42
0.000000001
43
0.0000000001
44
0.0000000001
40
0
40
0
40
0
40
0
40
1
40
1
40
1
40
1
41
1
41
1
41
1
41
1
10
-74.280932884546814
20
-48.947189118969234
30
0
10
-74.277568154163291
20
-49.57572702252601
30
0
10
-73.725287975793151
20
-49.969522274370377
30
0
10
-73.167671523072187
20
-49.751687321608884
30
0
0
SPLINE
5
113
100
AcDbEntity
8
0
100
AcDbSpline
70
4
71
3
72
8
73
4
74
0
42
0.000000001
43
0.0000000001
44
0.0000000001
40
0
40
0
40
0
40
0
40
1
40
1
40
1
40
1
41
1
41
1
41
1
41
1
10
-73.167671523072187
20
-49.751687321608884
30
0
10
-72.85066890592293
20
-49.627849003898909
30
0
10
-72.680326937336503
20
-49.36344558432851
30
0
10
-72.679882485228276
20
-48.979703924644056
30
0
0
SPLINE
5
114
100
AcDbEntity
8
0
100
AcDbSpline
70
4
71
3
72
8
73
4
74
0
42
0.000000001
43
0.0000000001
44
0.0000000001
40
0
40
0
40
0
40
0
40
1
40
1
40
1
40
1
41
1
41
1
41
1
41
1
10
-72.679882485228276
20
-48.979703924644056
30
0
10
-72.678041997651832
20
-47.39273638924233
30
0
10
-72.677836865909583
20
-45.805767429314621
30
0
10
-72.677805526337835
20
-44.218798469386904
30
0
0
SPLINE
5
115
100
AcDbEntity
8
0
100
AcDbSpline
70
4
71
3
72
8
73
4
74
0
42
0.000000001
43
0.0000000001
44
0.0000000001
40
0
40
0
40
0
40
0
40
1
40
1
40
1
40
1
41
1
41
1
41
1
41
1
10
-72.677805526337835
20
-44.218798469386904
30
0
10
-72.677782733922044
20
-43.083026748250774
30
0
10
-72.678768505905694
20
-41.947253602588646
30
0
10
-72.679936617215816
20
-40.811481881452522
30
0
0
SPLINE
5
116
100
AcDbEntity
8
0
100
AcDbSpline
70
4
71
3
72
8
73
4
74
0
42
0.000000001
43
0.0000000001
44
0.0000000001
40
0
40
0
40
0
40
0
40
1
40
1
40
1
40
1
41
1
41
1
41
1
41
1
10
-72.679936617215816
20
-40.811481881452522
30
0
10
-72.680064824554734
20
-40.686549527783804
30
0
10
-72.6821959154327
20
-40.562404936986418
30
0
10
-72.617647793866951
20
-40.448431461742956
30
0
0
SPLINE
5
117
100
AcDbEntity
8
0
100
AcDbSpline
70
4
71
3
72
8
73
4
74
0
42
0.000000001
43
0.0000000001
44
0.0000000001
40
0
40
0
40
0
40
0
40
1
40
1
40
1
40
1
41
1
41
1
41
1
41
1
10
-72.617647793866951
20
-40.448431461742956
30
0
10
-72.523361267776892
20
-40.281952807635847
30
0
10
-72.381817516562748
20
-40.203029794325758
30
0
10
-72.191817089342692
20
-40.225854974230593
30
0
0
SPLINE
5
118
100
AcDbEntity
8
0
100
AcDbSpline
70
4
71
3
72
8
73
4
74
0
42
0.000000001
43
0.0000000001
44
0.0000000001
40
0
40
0
40
0
40
0
40
1
40
1
40
1
40
1
41
1
41
1
41
1
41
1
10
-72.191817089342692
20
-40.225854974230593
30
0
10
-72.011039043368598
20
-40.247569023864827
30
0
10
-71.897743642495385
20
-40.353300191742036
30
0
10
-71.844831049199186
20
-40.527130824472941
30
0
0
SPLINE
5
119
100
AcDbEntity
8
0
100
AcDbSpline
70
4
71
3
72
8
73
4
74
0
42
0.000000001
43
0.0000000001
44
0.0000000001
40
0
40
0
40
0
40
0
40
1
40
1
40
1
40
1
41
1
41
1
41
1
41
1
10
-71.844831049199186
20
-40.527130824472941
30
0
10
-71.807722147213241
20
-40.649043183047212
30
0
10
-71.817673885765018
20
-40.773875819896773
30
0
10
-71.817579867049815
20
-40.897859439257516
30
0
0
SPLINE
5
120
100
AcDbEntity
8
0
100
AcDbSpline
70
4
71
3
72
8
73
4
74
0
42
0.000000001
43
0.0000000001
44
0.0000000001
40
0
40
0
40
0
40
0
40
1
40
1
40
1
40
1
41
1
41
1
41
1
41
1
10
-71.817579867049815
20
-40.897859439257516
30
0
10
-71.81592741690379
20
-43.076045146383855
30
0
10
-71.815876133968231
20
-45.254233702562168
30
0
10
-71.813326232449811
20
-47.432416560636526
30
0
0
SPLINE
5
121
100
AcDbEntity
8
0
100
AcDbSpline
70
4
71
3
72
8
73
4
74
0
42
0.000000001
43
0.0000000001
44
0.0000000001
40
0
40
0
40
0
40
0
40
1
40
1
40
1
40
1
41
1
41
1
41
1
41
1
10
-71.813326232449811
20
-47.432416560636526
30
0
10
-71.812804855938225
20
-47.878915712719873
30
0
10
-71.604026327145078
20
-48.181023486139182
30
0
10
-71.233931626425132
20
-48.288274623245528
30
0
0
SPLINE
5
122
100
AcDbEntity
8
0
100
AcDbSpline
70
4
71
3
72
8
73
4
74
0
42
0.000000001
43
0.0000000001
44
0.0000000001
40
0
40
0
40
0
40
0
40
1
40
1
40
1
40
1
41
1
41
1
41
1
41
1
10
-71.233931626425132
20
-48.288274623245528
30
0
10
-70.74576081561645
20
-48.429745723634277
30
0
10
-70.251709561529537
20
-48.093370977574963
30
0
10
-70.20926723424472
20
-47.585638575899836
30
0
0
SPLINE
5
123
100
AcDbEntity
8
0
100
AcDbSpline
70
4
71
3
72
8
73
4
74
0
42
0.000000001
43
0.0000000001
44
0.0000000001
40
0
40
0
40
0
40
0
40
1
40
1
40
1
40
1
41
1
41
1
41
1
41
1
10
-70.20926723424472
20
-47.585638575899836
30
0
10
-70.197634555027165
20
-47.446499424553338
30
0
10
-70.203748620567424
20
-47.30577904936024
30
0
10
-70.203757167723353
20
-47.165783757894999
30
0
0
SPLINE
5
124
100
AcDbEntity
8
0
100
AcDbSpline
70
4
71
3
72
8
73
4
74
0
42
0.000000001
43
0.0000000001
44
0.0000000001
40
0
40
0
40
0
40
0
40
1
40
1
40
1
40
1
41
1
41
1
41
1
41
1
10
-70.203757167723353
20
-47.165783757894999
30
0
10
-70.203925261789934
20
-44.645301550177471
30
0
10
-70.204449487353486
20
-42.124820766985927
30
0
10
-70.20476858117479
20
-39.604338559268392
30
0
0
SPLINE
5
125
100
AcDbEntity
8
0
100
AcDbSpline
70
4
71
3
72
8
73
4
74
0
42
0.000000001
43
0.0000000001
44
0.0000000001
40
0
40
0
40
0
40
0
40
1
40
1
40
1
40
1
41
1
41
1
41
1
41
1
10
-70.20476858117479
20
-39.604338559268392
30
0
10
-70.204822713162329
20
-39.189251629745215
30
0
10
-70.058133574079747
20
-38.98277798400057
30
0
10
-69.769980457238333
20
-38.991110036504054
30
0
0
SPLINE
5
126
100
AcDbEntity
8
0
100
AcDbSpline
70
4
71
3
72
8
73
4
74
0
42
0.000000001
43
0.0000000001
44
0.0000000001
40
0
40
0
40
0
40
0
40
1
40
1
40
1
40
1
41
1
41
1
41
1
41
1
10
-69.769980457238333
20
-38.991110036504054
30
0
10
-69.498653841366547
20
-38.998956325645658
30
0
10
-69.344847770448169
20
-39.219037043627139
30
0
10
-69.344471695587359
20
-39.603347089180787
30
0
0
SPLINE
5
127
100
AcDbEntity
8
0
100
AcDbSpline
70
4
71
3
72
8
73
4
74
0
42
0.000000001
43
0.0000000001
44
0.0000000001
40
0
40
0
40
0
40
0
40
1
40
1
40
1
40
1
41
1
41
1
41
1
41
1
10
-69.344471695587359
20
-39.603347089180787
30
0
10
-69.342998735715824
20
-41.112516986802902
30
0
10
-69.343175376938319
20
-42.621686884425017
30
0
10
-69.340286438234784
20
-44.130853932995166
30
0
0
SPLINE
5
128
100
AcDbEntity
8
0
100
AcDbSpline
70
4
71
3
72
8
73
4
74
0
42
0.000000001
43
0.0000000001
44
0.0000000001
40
0
40
0
40
0
40
0
40
1
40
1
40
1
40
1
41
1
41
1
41
1
41
1
10
-69.340286438234784
20
-44.130853932995166
30
0
10
-69.339386137810394
20
-44.601528715619914
30
0
10
-69.039090361447762
20
-44.934474627626244
30
0
10
-68.602387674583497
20
-44.959495002078498
30
0
0
SPLINE
5
129
100
AcDbEntity
8
0
100
AcDbSpline
70
4
71
3
72
8
73
4
74
0
42
0.000000001
43
0.0000000001
44
0.0000000001
40
0
40
0
40
0
40
0
40
1
40
1
40
1
40
1
41
1
41
1
41
1
41
1
10
-68.602387674583497
20
-44.959495002078498
30
0
10
-68.141043537179797
20
-44.985928506310785
30
0
10
-67.798342471208016
20
-44.702714221069598
30
0
10
-67.763222207501244
20
-44.214610362982341
30
0
0
SPLINE
5
130
100
AcDbEntity
8
0
100
AcDbSpline
70
4
71
3
72
8
73
4
74
0
42
0.000000001
43
0.0000000001
44
0.0000000001
40
0
40
0
40
0
40
0
40
1
40
1
40
1
40
1
41
1
41
1
41
1
41
1
10
-67.763222207501244
20
-44.214610362982341
30
0
10
-67.732070673196873
20
-43.781658453044358
30
0
10
-67.739173359772764
20
-43.344806190951374
30
0
10
-67.749994059177183
20
-42.910187585607474
30
0
0
SPLINE
5
131
100
AcDbEntity
8
0
100
AcDbSpline
70
4
71
3
72
8
73
4
74
0
42
0.000000001
43
0.0000000001
44
0.0000000001
40
0
40
0
40
0
40
0
40
1
40
1
40
1
40
1
41
1
41
1
41
1
41
1
10
-67.749994059177183
20
-42.910187585607474
30
0
10
-67.790849464511439
20
-41.269083789085897
30
0
10
-67.718329695517156
20
-39.628405925834713
30
0
10
-67.739523793165802
20
-37.987440308333966
30
0
0
SPLINE
5
132
100
AcDbEntity
8
0
100
AcDbSpline
70
4
71
3
72
8
73
4
74
0
42
0.000000001
43
0.0000000001
44
0.0000000001
40
0
40
0
40
0
40
0
40
1
40
1
40
1
40
1
41
1
41
1
41
1
41
1
10
-67.739523793165802
20
-37.987440308333966
30
0
10
-67.753284714209343
20
-36.922152708555338
30
0
10
-67.751136529019519
20
-35.856570231897209
30
0
10
-67.774427528922416
20
-34.791520527958561
30
0
0
SPLINE
5
133
100
AcDbEntity
8
0
100
AcDbSpline
70
4
71
3
72
8
73
4
74
0
42
0.000000001
43
0.0000000001
44
0.0000000001
40
0
40
0
40
0
40
0
40
1
40
1
40
1
40
1
41
1
41
1
41
1
41
1
10
-67.774427528922416
20
-34.791520527958561
30
0
10
-67.818963909409504
20
-32.75502102464516
30
0
10
-68.928279333897535
20
-31.190090906276929
30
0
10
-70.825833421398812
20
-30.465813460122384
30
0
0
SPLINE
5
134
100
AcDbEntity
8
0
100
AcDbSpline
70
4
71
3
72
8
73
4
74
0
42
0.000000001
43
0.0000000001
44
0.0000000001
40
0
40
0
40
0
40
0
40
1
40
1
40
1
40
1
41
1
41
1
41
1
41
1
10
-70.825833421398812
20
-30.465813460122384
30
0
10
-70.916564330622975
20
-30.431183233355455
30
0
10
-71.01111866759878
20
-30.403766806191474
30
0
10
-71.013386512971579
20
-30.288659408261612
30
0
0
SPLINE
5
135
100
AcDbEntity
8
0
100
AcDbSpline
70
4
71
3
72
8
73
4
74
0
42
0.000000001
43
0.0000000001
44
0.0000000001
40
0
40
0
40
0
40
0
40
1
40
1
40
1
40
1
41
1
41
1
41
1
41
1
10
-71.013386512971579
20
-30.288659408261612
30
0
10
-71.018227052278618
20
-30.043418712281049
30
0
10
-71.014865170947061
20
-29.798018469389834
30
0
10
-71.014865170947061
20
-29.557017162749393
30
0
0
SPLINE
5
136
100
AcDbEntity
8
0
100
AcDbSpline
70
4
71
3
72
8
73
4
74
0
42
0.000000001
43
0.0000000001
44
0.0000000001
40
0
40
0
40
0
40
0
40
1
40
1
40
1
40
1
41
1
41
1
41
1
41
1
10
-71.014865170947061
20
-29.557017162749393
30
0
10
-70.864036359343515
20
-29.514862589714141
30
0
10
-70.758134248347744
20
-29.580741218552618
30
0
10
-70.652767759123435
20
-29.61765638500421
30
0
0
SPLINE
5
137
100
AcDbEntity
8
0
100
AcDbSpline
70
4
71
3
72
8
73
4
74
0
42
0.000000001
43
0.0000000001
44
0.0000000001
40
0
40
0
40
0
40
0
40
1
40
1
40
1
40
1
41
1
41
1
41
1
41
1
10
-70.652767759123435
20
-29.61765638500421
30
0
10
-68.832383093441095
20
-30.255439462222746
30
0
10
-67.646644698751828
20
-31.497794217776885
30
0
10
-67.123516020198977
20
-33.35759266849368
30
0
0
SPLINE
5
138
100
AcDbEntity
8
0
100
AcDbSpline
70
4
71
3
72
8
73
4
74
0
42
0.000000001
43
0.0000000001
44
0.0000000001
40
0
40
0
40
0
40
0
40
1
40
1
40
1
40
1
41
1
41
1
41
1
41
1
10
-67.123516020198977
20
-33.35759266849368
30
0
10
-66.872181202041986
20
-34.251126594431838
30
0
10
-66.879791019869586
20
-35.170809119404694
30
0
10
-66.886697121859143
20
-36.088753722672273
30
0
0
SPLINE
5
139
100
AcDbEntity
8
0
100
AcDbSpline
70
4
71
3
72
8
73
4
74
0
42
0.000000001
43
0.0000000001
44
0.0000000001
40
0
40
0
40
0
40
0
40
1
40
1
40
1
40
1
41
1
41
1
41
1
41
1
10
-66.886697121859143
20
-36.088753722672273
30
0
10
-66.894242836017284
20
-37.091916319590652
30
0
10
-66.899358308839993
20
-38.095097435346879
30
0
10
-66.90798096464502
20
-39.098248636057356
30
0
0
SPLINE
5
140
100
AcDbEntity
8
0
100
AcDbSpline
70
4
71
3
72
8
73
4
74
0
42
0.000000001
43
0.0000000001
44
0.0000000001
40
0
40
0
40
0
40
0
40
1
40
1
40
1
40
1
41
1
41
1
41
1
41
1
10
-66.90798096464502
20
-39.098248636057356
30
0
10
-66.918407070350781
20
-40.311213995954212
30
0
10
-66.857413141124965
20
-41.523908695913356
30
0
10
-66.903620490595927
20
-42.737208819417376
30
0
0
SPLINE
5
141
100
AcDbEntity
8
0
100
AcDbSpline
70
4
71
3
72
8
73
4
74
0
42
0.000000001
43
0.0000000001
44
0.0000000001
40
0
40
0
40
0
40
0
40
1
40
1
40
1
40
1
41
1
41
1
41
1
41
1
10
-66.903620490595927
20
-42.737208819417376
30
0
10
-66.921649291499349
20
-43.210600173101135
30
0
10
-66.923334505743085
20
-43.68594312738837
30
0
10
-66.903425330535583
20
-44.159176358687475
30
0
0
SPLINE
5
142
100
AcDbEntity
8
0
100
AcDbSpline
70
4
71
3
72
8
73
4
74
0
42
0.000000001
43
0.0000000001
44
0.0000000001
40
0
40
0
40
0
40
0
40
1
40
1
40
1
40
1
41
1
41
1
41
1
41
1
10
-66.903425330535583
20
-44.159176358687475
30
0
10
-66.859624005458258
20
-45.200349582542181
30
0
10
-67.915652186315242
20
-46.098716925157426
30
0
10
-69.058643405158278
20
-45.743905963762145
30
0
0
SPLINE
5
143
100
AcDbEntity
8
0
100
AcDbSpline
70
4
71
3
72
8
73
4
74
0
42
0.000000001
43
0.0000000001
44
0.0000000001
40
0
40
0
40
0
40
0
40
1
40
1
40
1
40
1
41
1
41
1
41
1
41
1
10
-69.058643405158278
20
-45.743905963762145
30
0
10
-69.137382654615919
20
-45.719463946860998
30
0
10
-69.213076267511326
20
-45.665051327699473
30
0
10
-69.305807211222572
20
-45.701720051155156
30
0
0
SPLINE
5
144
100
AcDbEntity
8
0
100
AcDbSpline
70
4
71
3
72
8
73
4
74
0
42
0.000000001
43
0.0000000001
44
0.0000000001
40
0
40
0
40
0
40
0
40
1
40
1
40
1
40
1
41
1
41
1
41
1
41
1
10
-69.305807211222572
20
-45.701720051155156
30
0
10
-69.369782673341149
20
-45.792990855728739
30
0
10
-69.338861912246841
20
-45.897048205570115
30
0
10
-69.342927509416427
20
-45.995011433235078
30
0
0
SPLINE
5
145
100
AcDbEntity
8
0
100
AcDbSpline
70
4
71
3
72
8
73
4
74
0
42
0.000000001
43
0.0000000001
44
0.0000000001
40
0
40
0
40
0
40
0
40
1
40
1
40
1
40
1
41
1
41
1
41
1
41
1
10
-69.342927509416427
20
-45.995011433235078
30
0
10
-69.367728506866541
20
-46.592547377716215
30
0
10
-69.28309456887078
20
-47.195265747741502
30
0
10
-69.387688965009616
20
-47.787775964537175
30
0
0
SPLINE
5
146
100
AcDbEntity
8
0
100
AcDbSpline
70
4
71
3
72
8
73
4
74
0
42
0.000000001
43
0.0000000001
44
0.0000000001
40
0
40
0
40
0
40
0
40
1
40
1
40
1
40
1
41
1
41
1
41
1
41
1
10
-69.387688965009616
20
-47.787775964537175
30
0
10
-69.569874442659795
20
-48.819833646595015
30
0
10
-70.507742466394774
20
-49.384924587174737
30
0
10
-71.517175826712091
20
-49.091781355797565
30
0
0
SPLINE
5
147
100
AcDbEntity
8
0
100
AcDbSpline
70
4
71
3
72
8
73
4
74
0
42
0.000000001
43
0.0000000001
44
0.0000000001
40
0
40
0
40
0
40
0
40
1
40
1
40
1
40
1
41
1
41
1
41
1
41
1
10
-71.517175826712091
20
-49.091781355797565
30
0
10
-71.800283272504188
20
-49.009564838403357
30
0
10
-71.800328857335799
20
-49.009596177975084
30
0
10
-71.855107579676215
20
-49.309611322718105
30
0
0
SPLINE
5
148
100
AcDbEntity
8
0
100
AcDbSpline
70
4
71
3
72
8
73
4
74
0
42
0.000000001
43
0.0000000001
44
0.0000000001
40
0
40
0
40
0
40
0
40
1
40
1
40
1
40
1
41
1
41
1
41
1
41
1
10
-71.855107579676215
20
-49.309611322718105
30
0
10
-71.998910629107229
20
-50.097157666101211
30
0
10
-72.668107353411926
20
-50.66249647420284
30
0
10
-73.463725061042723
20
-50.668579912434353
30
0
0
SPLINE
5
149
100
AcDbEntity
8
0
100
AcDbSpline
70
4
71
3
72
8
73
4
74
0
42
0.000000001
43
0.0000000001
44
0.0000000001
40
0
40
0
40
0
40
0
40
1
40
1
40
1
40
1
41
1
41
1
41
1
41
1
10
-73.463725061042723
20
-50.668579912434353
30
0
10
-74.246402374599043
20
-50.674564346109712
30
0
10
-74.95056836285579
20
-50.100433363610492
30
0
10
-75.101696324916816
20
-49.332946482926623
30
0
0
SPLINE
5
150
100
AcDbEntity
8
0
100
AcDbSpline
70
4
71
3
72
8
73
4
74
0
42
0.000000001
43
0.0000000001
44
0.0000000001
40
0
40
0
40
0
40
0
40
1
40
1
40
1
40
1
41
1
41
1
41
1
41
1
10
-75.101696324916816
20
-49.332946482926623
30
0
10
-75.126711001265122
20
-49.205917227003653
30
0
10
-75.086810028342796
20
-49.067644187457837
30
0
10
-75.160623266934124
20
-48.94797688184056
30
0
0
SPLINE
5
151
100
AcDbEntity
8
0
100
AcDbSpline
70
4
71
3
72
8
73
4
74
0
42
0.000000001
43
0.0000000001
44
0.0000000001
40
0
40
0
40
0
40
0
40
1
40
1
40
1
40
1
41
1
41
1
41
1
41
1
10
-75.160623266934124
20
-48.94797688184056
30
0
10
-75.274793326763927
20
-48.921705773570892
30
0
10
-75.362210788540125
20
-48.986490366450624
30
0
10
-75.455480203074799
20
-49.014999405047362
30
0
0
SPLINE
5
152
100
AcDbEntity
8
0
100
AcDbSpline
70
4
71
3
72
8
73
4
74
0
42
0.000000001
43
0.0000000001
44
0.0000000001
40
0
40
0
40
0
40
0
40
1
40
1
40
1
40
1
41
1
41
1
41
1
41
1
10
-75.455480203074799
20
-49.014999405047362
30
0
10
-76.494013780273832
20
-49.332423681889054
30
0
10
-77.579209130733986
20
-48.541333117847927
30
0
10
-77.580961297699162
20
-47.453281592781948
30
0
0
SPLINE
5
153
100
AcDbEntity
8
0
100
AcDbSpline
70
4
71
3
72
8
73
4
74
0
42
0.000000001
43
0.0000000001
44
0.0000000001
40
0
40
0
40
0
40
0
40
1
40
1
40
1
40
1
41
1
41
1
41
1
41
1
10
-77.580961297699162
20
-47.453281592781948
30
0
10
-77.585251969974848
20
-44.785001964763197
30
0
10
-77.583505501113621
20
-42.116710940536557
30
0
10
-77.584183575483905
20
-39.448425614413864
30
0
0
SPLINE
5
154
100
AcDbEntity
8
0
100
AcDbSpline
70
4
71
3
72
8
73
4
74
0
42
0.000000001
43
0.0000000001
44
0.0000000001
40
0
40
0
40
0
40
0
40
1
40
1
40
1
40
1
41
1
41
1
41
1
41
1
10
-77.584183575483905
20
-39.448425614413864
30
0
10
-77.584217764107592
20
-39.318845032446482
30
0
10
-77.584189273587839
20
-39.189263025953117
30
0
10
-77.584189273587839
20
-39.04414513903523
30
0
0
SPLINE
5
155
100
AcDbEntity
8
0
100
AcDbSpline
70
4
71
3
72
8
73
4
74
0
42
0.000000001
43
0.0000000001
44
0.0000000001
40
0
40
0
40
0
40
0
40
1
40
1
40
1
40
1
41
1
41
1
41
1
41
1
10
-77.584189273587839
20
-39.04414513903523
30
0
10
-77.711735632444444
20
-39.089859602514352
30
0
10
-77.739776001991146
20
-39.186129068779636
30
0
10
-77.791107371440731
20
-39.257101802551006
30
0
0
SPLINE
5
156
100
AcDbEntity
8
0
100
AcDbSpline
70
4
71
3
72
8
73
4
74
0
42
0.000000001
43
0.0000000001
44
0.0000000001
40
0
40
0
40
0
40
0
40
1
40
1
40
1
40
1
41
1
41
1
41
1
41
1
10
-77.791107371440731
20
-39.257101802551006
30
0
10
-78.403163509316997
20
-40.103287333701871
30
0
10
-79.170775036024807
20
-40.775649354751771
30
0
10
-80.083876250933358
20
-41.275494156031655
30
0
0
SPLINE
5
157
100
AcDbEntity
8
0
100
AcDbSpline
70
4
71
3
72
8
73
4
74
0
42
0.000000001
43
0.0000000001
44
0.0000000001
40
0
40
0
40
0
40
0
40
1
40
1
40
1
40
1
41
1
41
1
41
1
41
1
10
-80.083876250933358
20
-41.275494156031655
30
0
10
-80.833441882425902
20
-41.685820319703126
30
0
10
-81.742759556310475
20
-41.469627133142737
30
0
10
-82.224346208002885
20
-40.792229412725447
30
0
0
SPLINE
5
158
100
AcDbEntity
8
0
100
AcDbSpline
70
4
71
3
72
8
73
4
74
0
42
0.000000001
43
0.0000000001
44
0.0000000001
40
0
40
0
40
0
40
0
40
1
40
1
40
1
40
1
41
1
41
1
41
1
41
1
10
-82.224346208002885
20
-40.792229412725447
30
0
10
-82.702471261544588
20
-40.119699297608975
30
0
10
-82.620666432160874
20
-39.213940089642279
30
0
10
-82.02616045445609
20
-38.641773528480442
30
0
0
SPLINE
5
159
100
AcDbEntity
8
0
100
AcDbSpline
70
4
71
3
72
8
73
4
74
0
42
0.000000001
43
0.0000000001
44
0.0000000001
40
0
40
0
40
0
40
0
40
1
40
1
40
1
40
1
41
1
41
1
41
1
41
1
10
-82.02616045445609
20
-38.641773528480442
30
0
10
-81.942711722082322
20
-38.561461602332109
30
0
10
-81.850408136167459
20
-38.485410433413719
30
0
10
-81.750332336462392
20
-38.428124545334519
30
0
0
SPLINE
5
160
100
AcDbEntity
8
0
100
AcDbSpline
70
4
71
3
72
8
73
4
74
0
42
0.000000001
43
0.0000000001
44
0.0000000001
40
0
40
0
40
0
40
0
40
1
40
1
40
1
40
1
41
1
41
1
41
1
41
1
10
-81.750332336462392
20
-38.428124545334519
30
0
10
-81.126811613435166
20
-38.071206710003061
30
0
10
-80.7076220490667
20
-37.530134702106075
30
0
10
-80.370576351267061
20
-36.913879061617358
30
0
0
SPLINE
5
161
100
AcDbEntity
8
0
100
AcDbSpline
70
4
71
3
72
8
73
4
74
0
42
0.000000001
43
0.0000000001
44
0.0000000001
40
0
40
0
40
0
40
0
40
1
40
1
40
1
40
1
41
1
41
1
41
1
41
1
10
-80.370576351267061
20
-36.913879061617358
30
0
10
-79.857667222151733
20
-35.976056622714012
30
0
10
-79.51131936965082
20
-34.966953752425894
30
0
10
-79.122386737266311
20
-33.976534964995665
30
0
0
SPLINE
5
162
100
AcDbEntity
8
0
100
AcDbSpline
70
4
71
3
72
8
73
4
74
0
42
0.000000001
43
0.0000000001
44
0.0000000001
40
0
40
0
40
0
40
0
40
1
40
1
40
1
40
1
41
1
41
1
41
1
41
1
10
-79.122386737266311
20
-33.976534964995665
30
0
10
-78.791577614241902
20
-33.134138672972739
30
0
10
-78.383938106583685
20
-32.331153316932287
30
0
10
-77.880855357733211
20
-31.581536402504184
30
0
0
SPLINE
5
163
100
AcDbEntity
8
0
100
AcDbSpline
70
4
71
3
72
8
73
4
74
0
42
0.000000001
43
0.0000000001
44
0.0000000001
40
0
40
0
40
0
40
0
40
1
40
1
40
1
40
1
41
1
41
1
41
1
41
1
10
-77.880855357733211
20
-31.581536402504184
30
0
10
-77.23350801303161
20
-30.61696136554724
30
0
10
-76.337951260190579
20
-29.957628059183079
30
0
10
-75.252522287468395
20
-29.553735054873165
30
0
0
SPLINE
5
164
100
AcDbEntity
8
0
100
AcDbSpline
70
4
71
3
72
8
73
4
74
0
42
0.000000001
43
0.0000000001
44
0.0000000001
40
0
40
0
40
0
40
0
40
1
40
1
40
1
40
1
41
1
41
1
41
1
41
1
10
-75.252522287468395
20
-29.553735054873165
30
0
10
-74.820087480464025
20
-29.392820599274962
30
0
10
-74.790209472392888
20
-29.414647186462251
30
0
10
-74.769115091563393
20
-29.865560944582231
30
0
0
SPLINE
5
165
100
AcDbEntity
8
0
100
AcDbSpline
70
4
71
3
72
8
73
4
74
0
42
0.000000001
43
0.0000000001
44
0.0000000001
40
0
40
0
40
0
40
0
40
1
40
1
40
1
40
1
41
1
41
1
41
1
41
1
10
-74.769115091563393
20
-29.865560944582231
30
0
10
-74.750168895923736
20
-30.270536588642983
30
0
10
-74.749627576048312
20
-30.271946869371046
30
0
10
-75.123967364212348
20
-30.414624543271586
30
0
0
SPLINE
5
166
100
AcDbEntity
8
0
100
AcDbSpline
70
4
71
3
72
8
73
4
74
0
42
0.000000001
43
0.0000000001
44
0.0000000001
40
0
40
0
40
0
40
0
40
1
40
1
40
1
40
1
41
1
41
1
41
1
41
1
10
-75.123967364212348
20
-30.414624543271586
30
0
10
-76.244493808225485
20
-30.841708830665237
30
0
10
-76.993025233850773
20
-31.667691734255065
30
0
10
-77.565003757582204
20
-32.684720667140098
30
0
0
SPLINE
5
167
100
AcDbEntity
8
0
100
AcDbSpline
70
4
71
3
72
8
73
4
74
0
42
0.000000001
43
0.0000000001
44
0.0000000001
40
0
40
0
40
0
40
0
40
1
40
1
40
1
40
1
41
1
41
1
41
1
41
1
10
-77.565003757582204
20
-32.684720667140098
30
0
10
-78.093066994157283
20
-33.623668481573922
30
0
10
-78.456335366342998
20
-34.634173085434171
30
0
10
-78.850860687756196
20
-35.631355522255163
30
0
0
SPLINE
5
168
100
AcDbEntity
8
0
100
AcDbSpline
70
4
71
3
72
8
73
4
74
0
42
0.000000001
43
0.0000000001
44
0.0000000001
40
0
40
0
40
0
40
0
40
1
40
1
40
1
40
1
41
1
41
1
41
1
41
1
10
-78.850860687756196
20
-35.631355522255163
30
0
10
-79.208972275865534
20
-36.536505033099019
30
0
10
-79.58607849349815
20
-37.432383728813328
30
0
10
-80.20186404041084
20
-38.20246395905825
30
0
0
SPLINE
5
169
100
AcDbEntity
8
0
100
AcDbSpline
70
4
71
3
72
8
73
4
74
0
42
0.000000001
43
0.0000000001
44
0.0000000001
40
0
40
0
40
0
40
0
40
1
40
1
40
1
40
1
41
1
41
1
41
1
41
1
10
-80.20186404041084
20
-38.20246395905825
30
0
10
-80.491225155290039
20
-38.564323475041888
30
0
10
-80.83369544805177
20
-38.865072250668696
30
0
10
-81.227442978275519
20
-39.110046560289511
30
0
0
SPLINE
5
170
100
AcDbEntity
8
0
100
AcDbSpline
70
4
71
3
72
8
73
4
74
0
42
0.000000001
43
0.0000000001
44
0.0000000001
40
0
40
0
40
0
40
0
40
1
40
1
40
1
40
1
41
1
41
1
41
1
41
1
10
-81.227442978275519
20
-39.110046560289511
30
0
10
-81.670966295570054
20
-39.385988640362257
30
0
10
-81.805726454029596
20
-39.852887004592965
30
0
10
-81.562682377122428
20
-40.245576112007697
30
0
0
SPLINE
5
171
100
AcDbEntity
8
0
100
AcDbSpline
70
4
71
3
72
8
73
4
74
0
42
0.000000001
43
0.0000000001
44
0.0000000001
40
0
40
0
40
0
40
0
40
1
40
1
40
1
40
1
41
1
41
1
41
1
41
1
10
-81.562682377122428
20
-40.245576112007697
30
0
10
-81.316951644202021
20
-40.642607174633682
30
0
10
-80.846350936928658
20
-40.741232806883033
30
0
10
-80.397186496721872
20
-40.475531644137618
30
0
0
SPLINE
5
172
100
AcDbEntity
8
0
100
AcDbSpline
70
4
71
3
72
8
73
4
74
0
42
0.000000001
43
0.0000000001
44
0.0000000001
40
0
40
0
40
0
40
0
40
1
40
1
40
1
40
1
41
1
41
1
41
1
41
1
10
-80.397186496721872
20
-40.475531644137618
30
0
10
-79.034590351577322
20
-39.669494953430984
30
0
10
-78.102557186288976
20
-38.518260002695719
30
0
10
-77.630047614191753
20
-37.001655503942516
30
0
0
SPLINE
5
173
100
AcDbEntity
8
0
100
AcDbSpline
70
4
71
3
72
8
73
4
74
0
42
0.000000001
43
0.0000000001
44
0.0000000001
40
0
40
0
40
0
40
0
40
1
40
1
40
1
40
1
41
1
41
1
41
1
41
1
10
-77.630047614191753
20
-37.001655503942516
30
0
10
-77.517683853314665
20
-36.641011108626593
30
0
10
-77.335760488446255
20
-36.480880142321766
30
0
10
-77.097118196841862
20
-36.524652976879317
30
0
0
SPLINE
5
174
100
AcDbEntity
8
0
100
AcDbSpline
70
4
71
3
72
8
73
4
74
0
42
0.000000001
43
0.0000000001
44
0.0000000001
40
0
40
0
40
0
40
0
40
1
40
1
40
1
40
1
41
1
41
1
41
1
41
1
10
-77.097118196841862
20
-36.524652976879317
30
0
10
-76.851071219152118
20
-36.569787658281349
30
0
10
-76.726405251843147
20
-36.775905172529008
30
0
10
-76.726373912271413
20
-37.142395822499452
30
0
0
SPLINE
5
175
100
AcDbEntity
8
0
100
AcDbSpline
70
4
71
3
72
8
73
4
74
0
42
0.000000001
43
0.0000000001
44
0.0000000001
40
0
40
0
40
0
40
0
40
1
40
1
40
1
40
1
41
1
41
1
41
1
41
1
10
-74.582673130261242
20
-32.336626345777972
30
0
10
-74.405784040234209
20
-32.175831550362751
30
0
10
-74.165486449431825
20
-32.18634170310181
30
0
10
-73.977879225871519
20
-32.372099891929764
30
0
0
SPLINE
5
176
100
AcDbEntity
8
0
100
AcDbSpline
70
4
71
3
72
8
73
4
74
0
42
0.000000001
43
0.0000000001
44
0.0000000001
40
0
40
0
40
0
40
0
40
1
40
1
40
1
40
1
41
1
41
1
41
1
41
1
10
-73.977879225871519
20
-32.372099891929764
30
0
10
-73.889854916024461
20
-32.459255240924179
30
0
10
-73.815283829607537
20
-32.559997718791614
30
0
10
-73.724213883198246
20
-32.667418374490524
30
0
0
SPLINE
5
177
100
AcDbEntity
8
0
100
AcDbSpline
70
4
71
3
72
8
73
4
74
0
42
0.000000001
43
0.0000000001
44
0.0000000001
40
0
40
0
40
0
40
0
40
1
40
1
40
1
40
1
41
1
41
1
41
1
41
1
10
-73.724213883198246
20
-32.667418374490524
30
0
10
-73.327631546258459
20
-33.137483459992431
30
0
10
-72.942733171471801
20
-33.595799055145775
30
0
10
-72.55457263217275
20
-34.051336824622631
30
0
0
SPLINE
5
178
100
AcDbEntity
8
0
100
AcDbSpline
70
4
71
3
72
8
73
4
74
0
42
0.000000001
43
0.0000000001
44
0.0000000001
40
0
40
0
40
0
40
0
40
1
40
1
40
1
40
1
41
1
41
1
41
1
41
1
10
-72.55457263217275
20
-34.051336824622631
30
0
10
-72.422593148441678
20
-34.206225535291829
30
0
10
-72.315363379225147
20
-34.36786934819586
30
0
10
-72.408387775289896
20
-34.577978384261741
30
0
0
SPLINE
5
179
100
AcDbEntity
8
0
100
AcDbSpline
70
4
71
3
72
8
73
4
74
0
42
0.000000001
43
0.0000000001
44
0.0000000001
40
0
40
0
40
0
40
0
40
1
40
1
40
1
40
1
41
1
41
1
41
1
41
1
10
-72.408387775289896
20
-34.577978384261741
30
0
10
-72.497349423237011
20
-34.778916322017231
30
0
10
-72.667990542280904
20
-34.837621037980419
30
0
10
-72.88093153601082
20
-34.852558617490004
30
0
0
SPLINE
5
180
100
AcDbEntity
8
0
100
AcDbSpline
70
4
71
3
72
8
73
4
74
0
42
0.000000001
43
0.0000000001
44
0.0000000001
40
0
40
0
40
0
40
0
40
1
40
1
40
1
40
1
41
1
41
1
41
1
41
1
10
-72.88093153601082
20
-34.852558617490004
30
0
10
-73.431772943133126
20
-34.891197460387012
30
0
10
-73.880823421260885
20
-35.391701817199319
30
0
10
-73.871028380567779
20
-35.933201182892688
30
0
0
SPLINE
5
181
100
AcDbEntity
8
0
100
AcDbSpline
70
4
71
3
72
8
73
4
74
0
42
0.000000001
43
0.0000000001
44
0.0000000001
40
0
40
0
40
0
40
0
40
1
40
1
40
1
40
1
41
1
41
1
41
1
41
1
10
-73.871028380567779
20
-35.933201182892688
30
0
10
-73.860390020489803
20
-36.521436397198542
30
0
10
-73.411692824807062
20
-36.973355870666012
30
0
10
-72.795630919852698
20
-37.003963236042992
30
0
0
SPLINE
5
182
100
AcDbEntity
8
0
100
AcDbSpline
70
4
71
3
72
8
73
4
74
0
42
0.000000001
43
0.0000000001
44
0.0000000001
40
0
40
0
40
0
40
0
40
1
40
1
40
1
40
1
41
1
41
1
41
1
41
1
10
-72.795630919852698
20
-37.003963236042992
30
0
10
-72.547472794648826
20
-37.016293932994635
30
0
10
-72.298183595810528
20
-37.008504624892552
30
0
10
-72.049449962107531
20
-37.006011704413652
30
0
0
SPLINE
5
183
100
AcDbEntity
8
0
100
AcDbSpline
70
4
71
3
72
8
73
4
74
0
42
0.000000001
43
0.0000000001
44
0.0000000001
40
0
40
0
40
0
40
0
40
1
40
1
40
1
40
1
41
1
41
1
41
1
41
1
10
-72.049449962107531
20
-37.006011704413652
30
0
10
-71.756701324429017
20
-37.003077180878485
30
0
10
-71.714945618670384
20
-36.965814430085835
30
0
10
-71.712700565713391
20
-36.664020052383876
30
0
0
SPLINE
5
184
100
AcDbEntity
8
0
100
AcDbSpline
70
4
71
3
72
8
73
4
74
0
42
0.000000001
43
0.0000000001
44
0.0000000001
40
0
40
0
40
0
40
0
40
1
40
1
40
1
40
1
41
1
41
1
41
1
41
1
10
-71.712700565713391
20
-36.664020052383876
30
0
10
-71.70802242236897
20
-36.035556224178471
30
0
10
-71.708911326585451
20
-35.40702401872565
30
0
10
-71.711814510548891
20
-34.778540247156414
30
0
0
SPLINE
5
185
100
AcDbEntity
8
0
100
AcDbSpline
70
4
71
3
72
8
73
4
74
0
42
0.000000001
43
0.0000000001
44
0.0000000001
40
0
40
0
40
0
40
0
40
1
40
1
40
1
40
1
41
1
41
1
41
1
41
1
10
-71.711814510548891
20
-34.778540247156414
30
0
10
-71.714800317019623
20
-34.132332523245175
30
0
10
-71.72392013239444
20
-33.486153289853689
30
0
10
-71.727649541430878
20
-32.839948414994431
30
0
0
SPLINE
5
186
100
AcDbEntity
8
0
100
AcDbSpline
70
4
71
3
72
8
73
4
74
0
42
0.000000001
43
0.0000000001
44
0.0000000001
40
0
40
0
40
0
40
0
40
1
40
1
40
1
40
1
41
1
41
1
41
1
41
1
10
-71.727649541430878
20
-32.839948414994431
30
0
10
-71.72818516320234
20
-32.747200376971342
30
0
10
-71.722581077965771
20
-32.652517832656628
30
0
10
-71.704073636330392
20
-32.561952168447071
30
0
0
SPLINE
5
187
100
AcDbEntity
8
0
100
AcDbSpline
70
4
71
3
72
8
73
4
74
0
42
0.000000001
43
0.0000000001
44
0.0000000001
40
0
40
0
40
0
40
0
40
1
40
1
40
1
40
1
41
1
41
1
41
1
41
1
10
-71.704073636330392
20
-32.561952168447071
30
0
10
-71.664440474293812
20
-32.367988709928554
30
0
10
-71.470927165987476
20
-32.212296566602156
30
0
10
-71.288023727239363
20
-32.215940504079313
30
0
0
SPLINE
5
188
100
AcDbEntity
8
0
100
AcDbSpline
70
4
71
3
72
8
73
4
74
0
42
0.000000001
43
0.0000000001
44
0.0000000001
40
0
40
0
40
0
40
0
40
1
40
1
40
1
40
1
41
1
41
1
41
1
41
1
10
-71.288023727239363
20
-32.215940504079313
30
0
10
-71.088655617122583
20
-32.219914931585684
30
0
10
-70.883116460426038
20
-32.387105848686765
30
0
10
-70.886350134418663
20
-32.599026881809309
30
0
0
SPLINE
5
189
100
AcDbEntity
8
0
100
AcDbSpline
70
4
71
3
72
8
73
4
74
0
42
0.000000001
43
0.0000000001
44
0.0000000001
40
0
40
0
40
0
40
0
40
1
40
1
40
1
40
1
41
1
41
1
41
1
41
1
10
-70.886350134418663
20
-32.599026881809309
30
0
10
-70.893985593714049
20
-33.09879903226382
30
0
10
-70.821824805268733
20
-33.599679463936937
30
0
10
-70.922510302096654
20
-34.10023510368481
30
0
0
SPLINE
5
190
100
AcDbEntity
8
0
100
AcDbSpline
70
4
71
3
72
8
73
4
74
0
42
0.000000001
43
0.0000000001
44
0.0000000001
40
0
40
0
40
0
40
0
40
1
40
1
40
1
40
1
41
1
41
1
41
1
41
1
10
-70.922510302096654
20
-34.10023510368481
30
0
10
-70.948519297584539
20
-34.229539327610524
30
0
10
-70.872463855088185
20
-34.378430783870478
30
0
10
-70.873480966643584
20
-34.526689750591785
30
0
0
SPLINE
5
191
100
AcDbEntity
8
0
100
AcDbSpline
70
4
71
3
72
8
73
4
74
0
42
0.000000001
43
0.0000000001
44
0.0000000001
40
0
40
0
40
0
40
0
40
1
40
1
40
1
40
1
41
1
41
1
41
1
41
1
10
-70.873480966643584
20
-34.526689750591785
30
0
10
-70.879783069614248
20
-35.443964826645022
30
0
10
-70.875834283575671
20
-36.361311128997656
30
0
10
-70.876626320024968
20
-37.278631789882503
30
0
0
SPLINE
5
192
100
AcDbEntity
8
0
100
AcDbSpline
70
4
71
3
72
8
73
4
74
0
42
0.000000001
43
0.0000000001
44
0.0000000001
40
0
40
0
40
0
40
0
40
1
40
1
40
1
40
1
41
1
41
1
41
1
41
1
10
-70.876626320024968
20
-37.278631789882503
30
0
10
-70.876988149625902
20
-37.695285697992425
30
0
10
-70.996229521972779
20
-37.84709030989773
30
0
10
-71.401672410557566
20
-37.851645944007174
30
0
0
SPLINE
5
193
100
AcDbEntity
8
0
100
AcDbSpline
70
4
71
3
72
8
73
4
74
0
42
0.000000001
43
0.0000000001
44
0.0000000001
40
0
40
0
40
0
40
0
40
1
40
1
40
1
40
1
41
1
41
1
41
1
41
1
10
-71.401672410557566
20
-37.851645944007174
30
0
10
-72.006207051217487
20
-37.8584366593917
30
0
10
-72.616026683292674
20
-37.926671454214244
30
0
10
-73.214695125934227
20
-37.794556640514315
30
0
0
SPLINE
5
194
100
AcDbEntity
8
0
100
AcDbSpline
70
4
71
3
72
8
73
4
74
0
42
0.000000001
43
0.0000000001
44
0.0000000001
40
0
40
0
40
0
40
0
40
1
40
1
40
1
40
1
41
1
41
1
41
1
41
1
10
-73.214695125934227
20
-37.794556640514315
30
0
10
-74.030005480822382
20
-37.614626187503035
30
0
10
-74.515016692989803
20
-37.085027311912953
30
0
10
-74.680774536947013
20
-36.285195856409807
30
0
0
SPLINE
5
195
100
AcDbEntity
8
0
100
AcDbSpline
70
4
71
3
72
8
73
4
74
0
42
0.000000001
43
0.0000000001
44
0.0000000001
40
0
40
0
40
0
40
0
40
1
40
1
40
1
40
1
41
1
41
1
41
1
41
1
10
-74.680774536947013
20
-36.285195856409807
30
0
10
-74.838429677084804
20
-35.524467639275741
30
0
10
-74.57028545227007
20
-34.895020888138653
30
0
10
-73.97546607884793
20
-34.404020968717916
30
0
0
SPLINE
5
196
100
AcDbEntity
8
0
100
AcDbSpline
70
4
71
3
72
8
73
4
74
0
42
0.000000001
43
0.0000000001
44
0.0000000001
40
0
40
0
40
0
40
0
40
1
40
1
40
1
40
1
41
1
41
1
41
1
41
1
10
-73.97546607884793
20
-34.404020968717916
30
0
10
-73.868945723573404
20
-34.316090677586061
30
0
10
-73.74808324065225
20
-34.245533905403171
30
0
10
-73.600650499003947
20
-34.144124749373375
30
0
0
SPLINE
5
197
100
AcDbEntity
8
0
100
AcDbSpline
70
4
71
3
72
8
73
4
74
0
42
0.000000001
43
0.0000000001
44
0.0000000001
40
0
40
0
40
0
40
0
40
1
40
1
40
1
40
1
41
1
41
1
41
1
41
1
10
-73.600650499003947
20
-34.144124749373375
30
0
10
-73.781348771522715
20
-33.925021256219623
30
0
10
-73.951118080661985
20
-33.717798309805318
30
0
10
-74.122420179764276
20
-33.511851738676214
30
0
0
SPLINE
5
198
100
AcDbEntity
8
0
100
AcDbSpline
70
4
71
3
72
8
73
4
74
0
42
0.000000001
43
0.0000000001
44
0.0000000001
40
0
40
0
40
0
40
0
40
1
40
1
40
1
40
1
41
1
41
1
41
1
41
1
10
-74.122420179764276
20
-33.511851738676214
30
0
10
-74.286423007704357
20
-33.314680247632843
30
0
10
-74.458001464848309
20
-33.123471822375016
30
0
10
-74.615266284865399
20
-32.921109358631576
30
0
0
SPLINE
5
199
100
AcDbEntity
8
0
100
AcDbSpline
70
4
71
3
72
8
73
4
74
0
42
0.000000001
43
0.0000000001
44
0.0000000001
40
0
40
0
40
0
40
0
40
1
40
1
40
1
40
1
41
1
41
1
41
1
41
1
10
-74.615266284865399
20
-32.921109358631576
30
0
10
-74.777858832077413
20
-32.711889226782176
30
0
10
-74.7598157859141
20
-32.497651914403235
30
0
10
-74.582673130261242
20
-32.336626345777972
30
0
0
LWPOLYLINE
5
200
100
AcDbEntity
8
0
100
AcDbPolyline
90
8
70
1
43
0.0
10
-64.599999999999994
20
-50.799999999999997
10
-64.600000000000009
20
-3.180000000000005
42
0.41421356237309492
10
-66.780000000000001
20
-1.0000000000000064
10
-82.42000000000003
20
-1.0000000000000053
42
0.41421356237309681
10
-84.600000000000009
20
-3.1799999999999953
10
-84.600000000000009
20
-50.799999999999997
42
0.41421356237309742
10
-82.42000000000003
20
-52.980000000000004
10
-66.78000000000003
20
-52.980000000000018
42
0.41421356237309742
0
ENDSEC
0
SECTION
2
OBJECTS
0
DICTIONARY
5
C
100
AcDbDictionary
3
ACAD_GROUP
350
D
3
ACAD_MLINESTYLE
350
17
0
DICTIONARY
5
D
100
AcDbDictionary
0
DICTIONARY
5
1A
330
C
100
AcDbDictionary
0
DICTIONARY
5
17
100
AcDbDictionary
0
ENDSEC
0
EOF
