<svg version="1.1" id="Layer_1" xmlns="http://www.w3.org/2000/svg" xmlns:xlink="http://www.w3.org/1999/xlink" x="0px" y="0px"
	 width="100%" viewBox="0 0 710 1842" enable-background="new 0 0 710 1842" xml:space="preserve">
<path fill="#000000" opacity="1.000000" stroke="none" 
	d="
M1.000014,1770.000000 
	C1.000000,1204.967285 1.000000,639.934570 1.400727,74.294594 
	C2.011017,60.310478 5.960672,47.960114 13.111593,36.834068 
	C20.225880,25.765026 29.159290,16.117556 41.275997,10.478554 
	C49.532757,6.635934 58.403687,4.113008 67.000000,1.000000 
	C259.699402,1.000000 452.398804,1.000000 645.684814,1.384910 
	C659.029968,3.337780 670.296692,8.601383 680.456665,16.181801 
	C691.018921,24.062370 699.240845,34.004814 703.989746,46.408566 
	C706.691711,53.465881 708.686646,60.793888 711.000000,68.000000 
	C711.000000,637.032715 711.000000,1206.065430 710.610474,1775.690674 
	C710.142212,1777.770020 710.288330,1779.309814 709.951294,1780.735596 
	C704.278809,1804.727905 691.311584,1823.446411 669.165894,1834.815674 
	C661.946228,1838.522095 653.749695,1840.325928 646.000000,1843.000000 
	C453.300598,1843.000000 260.601196,1843.000000 67.314735,1842.614746 
	C61.480747,1840.827026 56.053650,1839.890869 51.017422,1837.943604 
	C26.440804,1828.441284 10.707482,1810.840576 4.034384,1785.317871 
	C2.720113,1780.291016 1.996225,1775.109985 1.000014,1770.000000 
M344.158569,1605.500000 
	C344.104218,1636.162354 344.123047,1666.825073 343.963593,1697.486938 
	C343.887482,1712.117065 333.965759,1723.711426 320.829041,1724.986328 
	C305.647095,1726.459717 294.658661,1718.189087 291.530884,1702.699951 
	C290.911530,1699.632812 290.869080,1696.412598 290.867981,1693.262695 
	C290.835358,1599.100098 290.848267,1504.937378 290.811890,1410.774780 
	C290.810669,1407.623657 290.595459,1404.436768 290.093536,1401.328979 
	C288.918762,1394.055420 284.107605,1389.382812 276.961731,1388.223022 
	C269.760010,1387.054321 263.170654,1389.726807 260.147644,1396.134766 
	C258.370972,1399.900879 257.288300,1404.377686 257.279480,1408.537720 
	C257.114746,1486.034058 257.160370,1563.530762 257.150818,1641.027466 
	C257.150482,1643.692139 257.168854,1646.367554 256.953857,1649.019775 
	C255.424286,1667.887573 234.430618,1678.946045 218.009232,1669.610474 
	C207.335846,1663.542603 203.993835,1653.809814 203.995728,1642.274170 
	C204.010742,1550.444824 204.004486,1458.615356 204.001160,1366.786011 
	C204.001099,1364.953491 204.042969,1363.115234 203.920212,1361.289429 
	C203.242950,1351.217285 196.513412,1344.836670 186.794022,1344.996338 
	C178.059540,1345.139771 171.662811,1352.143677 171.496399,1361.860352 
	C171.336731,1371.183594 171.202057,1380.508423 171.169937,1389.832886 
	C171.032715,1429.657959 170.975327,1469.483032 170.794617,1509.307861 
	C170.759171,1517.123779 170.708786,1524.976929 169.952011,1532.743530 
	C168.806290,1544.501709 158.712952,1553.633667 146.394943,1554.791870 
	C134.739365,1555.888062 122.885414,1548.720703 119.711487,1538.049438 
	C118.454834,1533.824341 118.074974,1529.202515 118.071297,1524.760742 
	C117.984627,1420.098511 117.796669,1315.435547 118.227806,1210.775146 
	C118.292450,1195.082642 120.073242,1179.137329 123.271683,1163.769287 
	C131.135071,1125.986938 149.587158,1094.096191 181.462250,1071.489136 
	C193.687195,1062.818726 207.615021,1056.521973 220.899719,1049.391113 
	C224.418274,1047.502319 227.827621,1045.990723 227.856277,1041.324951 
	C227.902313,1033.832397 227.910461,1026.339478 227.963226,1018.846924 
	C227.989365,1015.136536 225.894043,1013.751831 222.533813,1014.049133 
	C220.733643,1014.208313 218.920395,1014.675964 217.204849,1015.269714 
	C134.420715,1043.919678 88.240669,1110.991821 85.344475,1194.317749 
	C83.892586,1236.090088 84.103928,1277.929810 84.059410,1319.739502 
	C83.987022,1387.726929 84.322128,1455.715088 84.484978,1523.702881 
	C84.486977,1524.536133 84.483910,1525.369507 84.485565,1526.202759 
	C84.510971,1538.936768 87.165138,1550.945068 94.262047,1561.736084 
	C109.205887,1584.458740 135.602539,1593.192139 164.249588,1584.882812 
	C170.719742,1583.005981 171.098236,1583.239624 171.147522,1589.892700 
	C171.286896,1608.714111 171.376984,1627.535767 171.485092,1646.357422 
	C171.709717,1685.472046 205.104507,1712.690430 243.422150,1704.902954 
	C247.725327,1704.028320 251.915268,1702.596558 256.150085,1701.425293 
	C267.257599,1741.940796 283.824310,1757.788818 314.610229,1758.206787 
	C328.760925,1758.398926 342.152802,1756.058838 353.730713,1747.346069 
	C370.077332,1735.044678 375.416168,1717.082764 378.290619,1697.736938 
	C380.416748,1698.504150 382.102142,1699.167969 383.822357,1699.723999 
	C394.982513,1703.331909 406.272675,1704.294678 417.746460,1701.324341 
	C445.437866,1694.155151 464.585571,1667.783325 464.018738,1637.763062 
	C463.606934,1615.953247 463.048706,1594.140503 463.057312,1572.329346 
	C463.085144,1501.843140 463.337921,1431.356812 463.540375,1360.870728 
	C463.548187,1358.148682 463.930634,1355.427612 464.179749,1352.166016 
	C465.155914,1353.022095 465.590271,1353.272339 465.845367,1353.645386 
	C486.426849,1383.741821 513.414551,1406.883545 544.298035,1425.750488 
	C557.315125,1433.702515 571.244385,1437.403687 586.693848,1435.099365 
	C611.665283,1431.374756 630.449158,1414.168091 636.047424,1389.235474 
	C641.673584,1364.178101 632.276123,1339.481812 610.881226,1326.339966 
	C589.684265,1313.319946 573.992249,1295.579346 562.057129,1274.085571 
	C547.410156,1247.707886 537.077759,1219.456787 526.056702,1191.506958 
	C513.500610,1159.663940 500.715973,1127.938477 482.963440,1098.503662 
	C455.554535,1053.057861 417.034790,1022.102417 365.418091,1008.142761 
	C356.750244,1005.798584 354.438263,1007.341736 354.170105,1016.197327 
	C354.039032,1020.525635 353.999573,1024.858398 354.006927,1029.188965 
	C354.019867,1036.821289 357.045593,1040.952026 364.510712,1042.843628 
	C389.650085,1049.213623 410.200256,1063.000977 427.966492,1081.487793 
	C448.546631,1102.902344 463.367706,1128.056396 474.899078,1155.117188 
	C488.562317,1187.181030 501.077240,1219.732666 514.597900,1251.859009 
	C531.776672,1292.677490 553.005737,1330.391602 592.648499,1354.428467 
	C604.055786,1361.344971 607.154236,1374.739990 602.581177,1385.592163 
	C595.800598,1401.682617 578.906860,1406.924683 562.544006,1397.410156 
	C530.004578,1378.489136 503.294006,1353.523926 484.522247,1320.552979 
	C475.775513,1305.189819 468.955139,1289.022217 463.784607,1272.122070 
	C461.144226,1263.491821 455.133423,1258.138428 448.319000,1257.830566 
	C437.950653,1257.362061 430.318268,1265.210938 430.216980,1277.250854 
	C429.980225,1305.392334 430.009247,1333.536377 430.003326,1361.679443 
	C429.983612,1455.503174 430.017578,1549.327026 429.974670,1643.150757 
	C429.967499,1658.808960 419.014618,1669.510620 403.731781,1669.912964 
	C390.504791,1670.261108 377.473145,1656.352417 377.571716,1642.744141 
	C378.129486,1565.751465 377.850281,1488.752686 377.808197,1411.755981 
	C377.806580,1408.776733 377.606476,1405.736816 376.997467,1402.830200 
	C375.264984,1394.561279 368.481995,1388.899170 360.903595,1389.079712 
	C352.374969,1389.282959 346.196289,1394.303223 344.726410,1403.091553 
	C343.939392,1407.796997 344.180481,1412.696167 344.178192,1417.508057 
	C344.148529,1479.838745 344.158539,1542.169312 344.158569,1605.500000 
M299.355316,1317.134033 
	C314.991119,1316.929688 330.636261,1316.990356 346.259796,1316.438843 
	C359.300537,1315.978638 364.032379,1310.929688 364.824188,1297.964722 
	C364.905304,1296.636230 364.840515,1295.298828 364.842194,1293.965576 
	C364.896454,1250.982056 364.988220,1207.998657 364.980103,1165.015137 
	C364.977875,1153.190063 364.671448,1141.365112 364.515381,1129.539917 
	C364.424133,1122.625000 361.009247,1117.787354 354.846283,1115.111450 
	C348.640808,1112.417114 342.774658,1113.542236 337.655182,1117.993286 
	C332.550629,1122.431274 331.458832,1128.419434 331.496307,1134.751465 
	C331.568237,1146.910522 331.778931,1159.068848 331.813293,1171.227905 
	C331.907013,1204.389526 331.944244,1237.551392 331.983826,1270.713135 
	C331.986603,1273.043091 331.938049,1275.384155 331.714264,1277.700806 
	C331.381012,1281.151245 329.617493,1283.152100 325.891663,1283.124512 
	C314.452698,1283.039673 302.941284,1283.821777 291.589233,1282.803711 
	C268.954712,1280.773438 253.937958,1258.400146 260.053986,1236.967285 
	C264.358246,1221.883667 277.268219,1211.754150 294.262817,1210.125854 
	C303.822876,1209.209961 309.710175,1204.483154 311.480713,1196.211426 
	C312.805145,1190.023926 309.866760,1185.183350 306.179260,1180.757812 
	C296.905121,1169.627319 287.498840,1158.606812 278.154572,1147.534668 
	C270.638306,1138.628540 263.298096,1129.567139 255.579254,1120.840576 
	C248.353485,1112.671509 238.407593,1111.678467 231.218842,1117.934204 
	C223.415283,1124.724976 222.952591,1133.174194 230.070358,1142.199585 
	C233.884216,1147.035522 237.930618,1151.688354 241.879547,1156.417603 
	C249.310638,1165.316772 256.747131,1174.211426 264.066589,1182.970581 
	C257.964447,1187.710693 252.007629,1191.702515 246.788422,1196.497192 
	C216.894836,1223.959595 218.365692,1274.527710 249.720490,1300.441772 
	C263.824371,1312.098389 280.651489,1316.008423 299.355316,1317.134033 
z"/>
<path fill="#FFFFFF" opacity="1.000000" stroke="none" 
	d="
M66.531342,1.000000 
	C58.403687,4.113008 49.532757,6.635934 41.275997,10.478554 
	C29.159290,16.117556 20.225880,25.765026 13.111593,36.834068 
	C5.960672,47.960114 2.011017,60.310478 1.400727,73.843689 
	C1.000000,49.743496 1.000000,25.486990 1.000000,1.000000 
	C22.687017,1.000000 44.374851,1.000000 66.531342,1.000000 
z"/>
<path fill="#FFFFFF" opacity="1.000000" stroke="none" 
	d="
M1.000014,1770.468628 
	C1.996225,1775.109985 2.720113,1780.291016 4.034384,1785.317871 
	C10.707482,1810.840576 26.440804,1828.441284 51.017422,1837.943604 
	C56.053650,1839.890869 61.480747,1840.827026 66.863831,1842.614746 
	C45.069454,1843.000000 23.138906,1843.000000 1.000000,1843.000000 
	C1.000000,1818.979492 1.000000,1794.958374 1.000014,1770.468628 
z"/>
<path fill="#FFFFFF" opacity="1.000000" stroke="none" 
	d="
M711.000000,67.531342 
	C708.686646,60.793888 706.691711,53.465881 703.989746,46.408566 
	C699.240845,34.004814 691.018921,24.062370 680.456665,16.181801 
	C670.296692,8.601383 659.029968,3.337780 646.135681,1.384910 
	C667.594604,1.000000 689.189209,1.000000 711.000000,1.000000 
	C711.000000,23.020422 711.000000,45.041553 711.000000,67.531342 
z"/>
<path fill="#FFFFFF" opacity="1.000000" stroke="none" 
	d="
M646.468628,1843.000000 
	C653.749695,1840.325928 661.946228,1838.522095 669.165894,1834.815674 
	C691.311584,1823.446411 704.278809,1804.727905 709.951294,1780.735596 
	C710.288330,1779.309814 710.142212,1777.770020 710.610474,1776.141602 
	C711.000000,1798.259033 711.000000,1820.518188 711.000000,1843.000000 
	C689.646301,1843.000000 668.291809,1843.000000 646.468628,1843.000000 
z"/>
<path fill="#FDFDFD" opacity="1.000000" stroke="none" 
	d="
M344.158569,1605.000000 
	C344.158539,1542.169312 344.148529,1479.838745 344.178192,1417.508057 
	C344.180481,1412.696167 343.939392,1407.796997 344.726410,1403.091553 
	C346.196289,1394.303223 352.374969,1389.282959 360.903595,1389.079712 
	C368.481995,1388.899170 375.264984,1394.561279 376.997467,1402.830200 
	C377.606476,1405.736816 377.806580,1408.776733 377.808197,1411.755981 
	C377.850281,1488.752686 378.129486,1565.751465 377.571716,1642.744141 
	C377.473145,1656.352417 390.504791,1670.261108 403.731781,1669.912964 
	C419.014618,1669.510620 429.967499,1658.808960 429.974670,1643.150757 
	C430.017578,1549.327026 429.983612,1455.503174 430.003326,1361.679443 
	C430.009247,1333.536377 429.980225,1305.392334 430.216980,1277.250854 
	C430.318268,1265.210938 437.950653,1257.362061 448.319000,1257.830566 
	C455.133423,1258.138428 461.144226,1263.491821 463.784607,1272.122070 
	C468.955139,1289.022217 475.775513,1305.189819 484.522247,1320.552979 
	C503.294006,1353.523926 530.004578,1378.489136 562.544006,1397.410156 
	C578.906860,1406.924683 595.800598,1401.682617 602.581177,1385.592163 
	C607.154236,1374.739990 604.055786,1361.344971 592.648499,1354.428467 
	C553.005737,1330.391602 531.776672,1292.677490 514.597900,1251.859009 
	C501.077240,1219.732666 488.562317,1187.181030 474.899078,1155.117188 
	C463.367706,1128.056396 448.546631,1102.902344 427.966492,1081.487793 
	C410.200256,1063.000977 389.650085,1049.213623 364.510712,1042.843628 
	C357.045593,1040.952026 354.019867,1036.821289 354.006927,1029.188965 
	C353.999573,1024.858398 354.039032,1020.525635 354.170105,1016.197327 
	C354.438263,1007.341736 356.750244,1005.798584 365.418091,1008.142761 
	C417.034790,1022.102417 455.554535,1053.057861 482.963440,1098.503662 
	C500.715973,1127.938477 513.500610,1159.663940 526.056702,1191.506958 
	C537.077759,1219.456787 547.410156,1247.707886 562.057129,1274.085571 
	C573.992249,1295.579346 589.684265,1313.319946 610.881226,1326.339966 
	C632.276123,1339.481812 641.673584,1364.178101 636.047424,1389.235474 
	C630.449158,1414.168091 611.665283,1431.374756 586.693848,1435.099365 
	C571.244385,1437.403687 557.315125,1433.702515 544.298035,1425.750488 
	C513.414551,1406.883545 486.426849,1383.741821 465.845367,1353.645386 
	C465.590271,1353.272339 465.155914,1353.022095 464.179749,1352.166016 
	C463.930634,1355.427612 463.548187,1358.148682 463.540375,1360.870728 
	C463.337921,1431.356812 463.085144,1501.843140 463.057312,1572.329346 
	C463.048706,1594.140503 463.606934,1615.953247 464.018738,1637.763062 
	C464.585571,1667.783325 445.437866,1694.155151 417.746460,1701.324341 
	C406.272675,1704.294678 394.982513,1703.331909 383.822357,1699.723999 
	C382.102142,1699.167969 380.416748,1698.504150 378.290619,1697.736938 
	C375.416168,1717.082764 370.077332,1735.044678 353.730713,1747.346069 
	C342.152802,1756.058838 328.760925,1758.398926 314.610229,1758.206787 
	C283.824310,1757.788818 267.257599,1741.940796 256.150085,1701.425293 
	C251.915268,1702.596558 247.725327,1704.028320 243.422150,1704.902954 
	C205.104507,1712.690430 171.709717,1685.472046 171.485092,1646.357422 
	C171.376984,1627.535767 171.286896,1608.714111 171.147522,1589.892700 
	C171.098236,1583.239624 170.719742,1583.005981 164.249588,1584.882812 
	C135.602539,1593.192139 109.205887,1584.458740 94.262047,1561.736084 
	C87.165138,1550.945068 84.510971,1538.936768 84.485565,1526.202759 
	C84.483910,1525.369507 84.486977,1524.536133 84.484978,1523.702881 
	C84.322128,1455.715088 83.987022,1387.726929 84.059410,1319.739502 
	C84.103928,1277.929810 83.892586,1236.090088 85.344475,1194.317749 
	C88.240669,1110.991821 134.420715,1043.919678 217.204849,1015.269714 
	C218.920395,1014.675964 220.733643,1014.208313 222.533813,1014.049133 
	C225.894043,1013.751831 227.989365,1015.136536 227.963226,1018.846924 
	C227.910461,1026.339478 227.902313,1033.832397 227.856277,1041.324951 
	C227.827621,1045.990723 224.418274,1047.502319 220.899719,1049.391113 
	C207.615021,1056.521973 193.687195,1062.818726 181.462250,1071.489136 
	C149.587158,1094.096191 131.135071,1125.986938 123.271683,1163.769287 
	C120.073242,1179.137329 118.292450,1195.082642 118.227806,1210.775146 
	C117.796669,1315.435547 117.984627,1420.098511 118.071297,1524.760742 
	C118.074974,1529.202515 118.454834,1533.824341 119.711487,1538.049438 
	C122.885414,1548.720703 134.739365,1555.888062 146.394943,1554.791870 
	C158.712952,1553.633667 168.806290,1544.501709 169.952011,1532.743530 
	C170.708786,1524.976929 170.759171,1517.123779 170.794617,1509.307861 
	C170.975327,1469.483032 171.032715,1429.657959 171.169937,1389.832886 
	C171.202057,1380.508423 171.336731,1371.183594 171.496399,1361.860352 
	C171.662811,1352.143677 178.059540,1345.139771 186.794022,1344.996338 
	C196.513412,1344.836670 203.242950,1351.217285 203.920212,1361.289429 
	C204.042969,1363.115234 204.001099,1364.953491 204.001160,1366.786011 
	C204.004486,1458.615356 204.010742,1550.444824 203.995728,1642.274170 
	C203.993835,1653.809814 207.335846,1663.542603 218.009232,1669.610474 
	C234.430618,1678.946045 255.424286,1667.887573 256.953857,1649.019775 
	C257.168854,1646.367554 257.150482,1643.692139 257.150818,1641.027466 
	C257.160370,1563.530762 257.114746,1486.034058 257.279480,1408.537720 
	C257.288300,1404.377686 258.370972,1399.900879 260.147644,1396.134766 
	C263.170654,1389.726807 269.760010,1387.054321 276.961731,1388.223022 
	C284.107605,1389.382812 288.918762,1394.055420 290.093536,1401.328979 
	C290.595459,1404.436768 290.810669,1407.623657 290.811890,1410.774780 
	C290.848267,1504.937378 290.835358,1599.100098 290.867981,1693.262695 
	C290.869080,1696.412598 290.911530,1699.632812 291.530884,1702.699951 
	C294.658661,1718.189087 305.647095,1726.459717 320.829041,1724.986328 
	C333.965759,1723.711426 343.887482,1712.117065 343.963593,1697.486938 
	C344.123047,1666.825073 344.104218,1636.162354 344.158569,1605.000000 
z"/>
<path fill="#FCFCFC" opacity="1.000000" stroke="none" 
	d="
M298.889832,1317.073975 
	C280.651489,1316.008423 263.824371,1312.098389 249.720490,1300.441772 
	C218.365692,1274.527710 216.894836,1223.959595 246.788422,1196.497192 
	C252.007629,1191.702515 257.964447,1187.710693 264.066589,1182.970581 
	C256.747131,1174.211426 249.310638,1165.316772 241.879547,1156.417603 
	C237.930618,1151.688354 233.884216,1147.035522 230.070358,1142.199585 
	C222.952591,1133.174194 223.415283,1124.724976 231.218842,1117.934204 
	C238.407593,1111.678467 248.353485,1112.671509 255.579254,1120.840576 
	C263.298096,1129.567139 270.638306,1138.628540 278.154572,1147.534668 
	C287.498840,1158.606812 296.905121,1169.627319 306.179260,1180.757812 
	C309.866760,1185.183350 312.805145,1190.023926 311.480713,1196.211426 
	C309.710175,1204.483154 303.822876,1209.209961 294.262817,1210.125854 
	C277.268219,1211.754150 264.358246,1221.883667 260.053986,1236.967285 
	C253.937958,1258.400146 268.954712,1280.773438 291.589233,1282.803711 
	C302.941284,1283.821777 314.452698,1283.039673 325.891663,1283.124512 
	C329.617493,1283.152100 331.381012,1281.151245 331.714264,1277.700806 
	C331.938049,1275.384155 331.986603,1273.043091 331.983826,1270.713135 
	C331.944244,1237.551392 331.907013,1204.389526 331.813293,1171.227905 
	C331.778931,1159.068848 331.568237,1146.910522 331.496307,1134.751465 
	C331.458832,1128.419434 332.550629,1122.431274 337.655182,1117.993286 
	C342.774658,1113.542236 348.640808,1112.417114 354.846283,1115.111450 
	C361.009247,1117.787354 364.424133,1122.625000 364.515381,1129.539917 
	C364.671448,1141.365112 364.977875,1153.190063 364.980103,1165.015137 
	C364.988220,1207.998657 364.896454,1250.982056 364.842194,1293.965576 
	C364.840515,1295.298828 364.905304,1296.636230 364.824188,1297.964722 
	C364.032379,1310.929688 359.300537,1315.978638 346.259796,1316.438843 
	C330.636261,1316.990356 314.991119,1316.929688 298.889832,1317.073975 
z"/>
</svg>