%TF.GenerationSoftware,KiCad,Pcbnew,9.0.7*%
%TF.CreationDate,2026-08-30T11:45:18+02:00*%
%TF.ProjectId,ECG_Business_Card,4543475f-4275-4736-996e-6573735f4361,rev?*%
%TF.SameCoordinates,Original*%
%TF.FileFunction,Paste,Top*%
%TF.FilePolarity,Positive*%
%FSLAX46Y46*%
G04 Gerber Fmt 4.6, Leading zero omitted, Abs format (unit mm)*
G04 Created by KiCad (PCBNEW 9.0.7) date 2026-08-30 11:45:18*
%MOMM*%
%LPD*%
G01*
G04 APERTURE LIST*
G04 Aperture macros list*
%AMRoundRect*
0 Rectangle with rounded corners*
0 $1 Rounding radius*
0 $2 $3 $4 $5 $6 $7 $8 $9 X,Y pos of 4 corners*
0 Add a 4 corners polygon primitive as box body*
4,1,4,$2,$3,$4,$5,$6,$7,$8,$9,$2,$3,0*
0 Add four circle primitives for the rounded corners*
1,1,$1+$1,$2,$3*
1,1,$1+$1,$4,$5*
1,1,$1+$1,$6,$7*
1,1,$1+$1,$8,$9*
0 Add four rect primitives between the rounded corners*
20,1,$1+$1,$2,$3,$4,$5,0*
20,1,$1+$1,$4,$5,$6,$7,0*
20,1,$1+$1,$6,$7,$8,$9,0*
20,1,$1+$1,$8,$9,$2,$3,0*%
G04 Aperture macros list end*
%ADD10RoundRect,0.140000X0.170000X-0.140000X0.170000X0.140000X-0.170000X0.140000X-0.170000X-0.140000X0*%
%ADD11RoundRect,0.150000X0.587500X0.150000X-0.587500X0.150000X-0.587500X-0.150000X0.587500X-0.150000X0*%
%ADD12RoundRect,0.079500X-0.079500X-0.100500X0.079500X-0.100500X0.079500X0.100500X-0.079500X0.100500X0*%
%ADD13RoundRect,0.079500X-0.100500X0.079500X-0.100500X-0.079500X0.100500X-0.079500X0.100500X0.079500X0*%
%ADD14RoundRect,0.086400X0.243600X0.073600X-0.243600X0.073600X-0.243600X-0.073600X0.243600X-0.073600X0*%
%ADD15RoundRect,0.113400X0.216600X0.096600X-0.216600X0.096600X-0.216600X-0.096600X0.216600X-0.096600X0*%
%ADD16RoundRect,0.079500X0.079500X0.100500X-0.079500X0.100500X-0.079500X-0.100500X0.079500X-0.100500X0*%
%ADD17RoundRect,0.112500X0.112500X-0.187500X0.112500X0.187500X-0.112500X0.187500X-0.112500X-0.187500X0*%
%ADD18RoundRect,0.086400X0.073600X-0.243600X0.073600X0.243600X-0.073600X0.243600X-0.073600X-0.243600X0*%
%ADD19RoundRect,0.113400X0.096600X-0.216600X0.096600X0.216600X-0.096600X0.216600X-0.096600X-0.216600X0*%
%ADD20RoundRect,0.140000X-0.140000X-0.170000X0.140000X-0.170000X0.140000X0.170000X-0.140000X0.170000X0*%
%ADD21RoundRect,0.079500X0.100500X-0.079500X0.100500X0.079500X-0.100500X0.079500X-0.100500X-0.079500X0*%
%ADD22RoundRect,0.250000X-0.315000X-0.780000X0.315000X-0.780000X0.315000X0.780000X-0.315000X0.780000X0*%
%ADD23RoundRect,0.062500X-0.300000X-0.062500X0.300000X-0.062500X0.300000X0.062500X-0.300000X0.062500X0*%
%ADD24RoundRect,0.130000X0.000010X0.000010X-0.000010X0.000010X-0.000010X-0.000010X0.000010X-0.000010X0*%
%ADD25RoundRect,0.140000X0.140000X0.170000X-0.140000X0.170000X-0.140000X-0.170000X0.140000X-0.170000X0*%
%ADD26R,1.219200X0.508000*%
G04 APERTURE END LIST*
D10*
%TO.C,C13*%
X128380000Y-93660000D03*
X128380000Y-92700000D03*
%TD*%
D11*
%TO.C,U3*%
X126820000Y-94020000D03*
X126820000Y-92120000D03*
X124945000Y-93070000D03*
%TD*%
D12*
%TO.C,R6*%
X135185000Y-92350000D03*
X135875000Y-92350000D03*
%TD*%
D13*
%TO.C,R14*%
X149667500Y-93425000D03*
X149667500Y-94115000D03*
%TD*%
D14*
%TO.C,Q1*%
X144485000Y-98600000D03*
X144485000Y-97800000D03*
D15*
X143415000Y-98200000D03*
%TD*%
D16*
%TO.C,R13*%
X140665000Y-93415000D03*
X139975000Y-93415000D03*
%TD*%
D17*
%TO.C,D1*%
X131925000Y-92702500D03*
X131925000Y-94802500D03*
%TD*%
D12*
%TO.C,R7*%
X135210000Y-93400000D03*
X135900000Y-93400000D03*
%TD*%
D16*
%TO.C,R15*%
X151197500Y-93445000D03*
X150507500Y-93445000D03*
%TD*%
D18*
%TO.C,Q2*%
X148210000Y-96080000D03*
X149010000Y-96080000D03*
D19*
X148610000Y-95010000D03*
%TD*%
D20*
%TO.C,C3*%
X136950000Y-96855000D03*
X137910000Y-96855000D03*
%TD*%
D10*
%TO.C,C7*%
X141780000Y-97865000D03*
X141780000Y-96905000D03*
%TD*%
D16*
%TO.C,R18*%
X144370000Y-95325000D03*
X143680000Y-95325000D03*
%TD*%
D21*
%TO.C,R19*%
X154100000Y-92565000D03*
X154100000Y-91875000D03*
%TD*%
D10*
%TO.C,C4*%
X136410000Y-98935000D03*
X136410000Y-97975000D03*
%TD*%
D13*
%TO.C,R2*%
X139325000Y-98355000D03*
X139325000Y-99045000D03*
%TD*%
D10*
%TO.C,C5*%
X139175000Y-91900000D03*
X139175000Y-90940000D03*
%TD*%
%TO.C,C2*%
X140780000Y-97865000D03*
X140780000Y-96905000D03*
%TD*%
D12*
%TO.C,R4*%
X136505000Y-94465000D03*
X137195000Y-94465000D03*
%TD*%
%TO.C,R3*%
X136505000Y-95565000D03*
X137195000Y-95565000D03*
%TD*%
D22*
%TO.C,U2*%
X125937500Y-96650000D03*
D23*
X124425000Y-95400000D03*
X124425000Y-95900000D03*
X124425000Y-96400000D03*
X124425000Y-96900000D03*
X124425000Y-97400000D03*
X124425000Y-97900000D03*
X127450000Y-97900000D03*
X127450000Y-97400000D03*
X127450000Y-96900000D03*
X127450000Y-96400000D03*
X127450000Y-95900000D03*
X127450000Y-95400000D03*
%TD*%
D24*
%TO.C,U1*%
X139700000Y-95580000D03*
X139300000Y-95580000D03*
X138900000Y-95580000D03*
X138500000Y-95580000D03*
X138100000Y-95580000D03*
X139700000Y-95180000D03*
X139300000Y-95180000D03*
X138900000Y-95180000D03*
X138500000Y-95180000D03*
X138100000Y-95180000D03*
X139700000Y-94780000D03*
X139300000Y-94780000D03*
X138900000Y-94780000D03*
X138500000Y-94780000D03*
X138100000Y-94780000D03*
X139700000Y-94380000D03*
X139300000Y-94380000D03*
X138900000Y-94380000D03*
X138500000Y-94380000D03*
X138100000Y-94380000D03*
%TD*%
D21*
%TO.C,R12*%
X139170000Y-93450000D03*
X139170000Y-92760000D03*
%TD*%
%TO.C,R9*%
X140320000Y-91580000D03*
X140320000Y-90890000D03*
%TD*%
D17*
%TO.C,D2*%
X129890000Y-92705000D03*
X129890000Y-94805000D03*
%TD*%
D12*
%TO.C,R10*%
X137310000Y-99080000D03*
X138000000Y-99080000D03*
%TD*%
D13*
%TO.C,R21*%
X142325000Y-91480000D03*
X142325000Y-92170000D03*
%TD*%
D20*
%TO.C,C6*%
X140610000Y-94295000D03*
X141570000Y-94295000D03*
%TD*%
D12*
%TO.C,R17*%
X152037500Y-93445000D03*
X152727500Y-93445000D03*
%TD*%
D10*
%TO.C,C8*%
X137820000Y-93405000D03*
X137820000Y-92445000D03*
%TD*%
D13*
%TO.C,R11*%
X136930000Y-92420000D03*
X136930000Y-93110000D03*
%TD*%
D10*
%TO.C,C12*%
X122775000Y-97850000D03*
X122775000Y-96890000D03*
%TD*%
D13*
%TO.C,R8*%
X153300000Y-91865000D03*
X153300000Y-92555000D03*
%TD*%
D10*
%TO.C,C14*%
X155090000Y-92860000D03*
X155090000Y-91900000D03*
%TD*%
D25*
%TO.C,C10*%
X152060000Y-97630000D03*
X151100000Y-97630000D03*
%TD*%
D26*
%TO.C,U4*%
X153243500Y-96375000D03*
X153243500Y-95435200D03*
X153243500Y-94495400D03*
X150957500Y-94495400D03*
X150957500Y-95435200D03*
X150957500Y-96375000D03*
%TD*%
D16*
%TO.C,R22*%
X144375000Y-96100000D03*
X143685000Y-96100000D03*
%TD*%
D25*
%TO.C,C11*%
X124430000Y-94340000D03*
X123470000Y-94340000D03*
%TD*%
D10*
%TO.C,C1*%
X140790000Y-99745000D03*
X140790000Y-98785000D03*
%TD*%
D16*
%TO.C,R5*%
X137985000Y-97975000D03*
X137295000Y-97975000D03*
%TD*%
%TO.C,R16*%
X151200000Y-92100000D03*
X150510000Y-92100000D03*
%TD*%
D13*
%TO.C,R1*%
X139325000Y-96855000D03*
X139325000Y-97545000D03*
%TD*%
%TO.C,R20*%
X141475000Y-91485000D03*
X141475000Y-92175000D03*
%TD*%
D25*
%TO.C,C9*%
X152060000Y-98650000D03*
X151100000Y-98650000D03*
%TD*%
M02*
