%TF.GenerationSoftware,KiCad,Pcbnew,9.0.7*%
%TF.CreationDate,2026-08-30T11:45:18+02:00*%
%TF.ProjectId,ECG_Business_Card,4543475f-4275-4736-996e-6573735f4361,rev?*%
%TF.SameCoordinates,Original*%
%TF.FileFunction,Profile,NP*%
%FSLAX46Y46*%
G04 Gerber Fmt 4.6, Leading zero omitted, Abs format (unit mm)*
G04 Created by KiCad (PCBNEW 9.0.7) date 2026-08-30 11:45:18*
%MOMM*%
%LPD*%
G01*
G04 APERTURE LIST*
%TA.AperFunction,Profile*%
%ADD10C,0.200000*%
%TD*%
G04 APERTURE END LIST*
D10*
X99200000Y-111000000D02*
G75*
G02*
X96200000Y-108000000I0J3000000D01*
G01*
X96200000Y-60020000D02*
G75*
G02*
X99200000Y-57020000I3000000J0D01*
G01*
X96200000Y-108000000D02*
X96200000Y-60020000D01*
X181800000Y-60020000D02*
X181800000Y-108000000D01*
X181800000Y-108000000D02*
G75*
G02*
X178800000Y-111000000I-3000000J0D01*
G01*
X178800000Y-57020000D02*
G75*
G02*
X181800000Y-60020000I0J-3000000D01*
G01*
X99200000Y-57020000D02*
X178800000Y-57020000D01*
X178800000Y-111000000D02*
X99200000Y-111000000D01*
%TO.C,LS1*%
X124346001Y-80550077D02*
X130896156Y-80550077D01*
X124346001Y-85350077D02*
X130320458Y-85350077D01*
X130320458Y-79550077D02*
X124346001Y-79550077D01*
X130896156Y-84350077D02*
X124346001Y-84350077D01*
X132171545Y-87916640D02*
X136015506Y-87916640D01*
X132589921Y-77983514D02*
X135521079Y-77983514D01*
X135521079Y-86916640D02*
X132589921Y-86916640D01*
X135789407Y-78149350D02*
X136814367Y-80199269D01*
X136015506Y-76983514D02*
X132171545Y-76983514D01*
X136462719Y-87640247D02*
X137977143Y-84611399D01*
X136814367Y-84700885D02*
X135789407Y-86750804D01*
X137977143Y-80288755D02*
X136462719Y-77259907D01*
X139914859Y-84611399D02*
X141429283Y-87640247D01*
X141077635Y-80199269D02*
X142102595Y-78149350D01*
X141429283Y-77259907D02*
X139914859Y-80288755D01*
X141876496Y-87916640D02*
X145720457Y-87916640D01*
X142102595Y-86750804D02*
X141077635Y-84700885D01*
X142370923Y-77983514D02*
X145302081Y-77983514D01*
X145302081Y-86916640D02*
X142370923Y-86916640D01*
X145720457Y-76983514D02*
X141876496Y-76983514D01*
X146995846Y-80550077D02*
X153546001Y-80550077D01*
X147571544Y-85350077D02*
X153546001Y-85350077D01*
X153546001Y-79550077D02*
X147571544Y-79550077D01*
X153546001Y-84350077D02*
X146995846Y-84350077D01*
X124346001Y-80550077D02*
G75*
G02*
X124346001Y-79550077I0J500000D01*
G01*
X124346001Y-85350077D02*
G75*
G02*
X124346001Y-84350077I0J500000D01*
G01*
X130320458Y-85350077D02*
G75*
G02*
X130601725Y-85545729I1J-299997D01*
G01*
X130601725Y-79354425D02*
G75*
G02*
X130320458Y-79550077I-281266J104345D01*
G01*
X130601725Y-79354425D02*
G75*
G02*
X131768304Y-77187885I8344251J-3095640D01*
G01*
X130896156Y-84350077D02*
G75*
G02*
X131375314Y-84707220I0J-500001D01*
G01*
X131375314Y-80192934D02*
G75*
G02*
X130896156Y-80550077I-479158J142858D01*
G01*
X131375314Y-80192934D02*
G75*
G02*
X132339023Y-78119044I7570651J-2257124D01*
G01*
X131768304Y-77187885D02*
G75*
G02*
X132171545Y-76983514I403242J-295630D01*
G01*
X131768304Y-87712269D02*
G75*
G02*
X130601725Y-85545729I7177672J5262180D01*
G01*
X132171545Y-87916640D02*
G75*
G02*
X131768304Y-87712269I1J500001D01*
G01*
X132339023Y-78119044D02*
G75*
G02*
X132589921Y-77983514I250896J-164468D01*
G01*
X132339023Y-86781110D02*
G75*
G02*
X131375314Y-84707220I6606942J4331014D01*
G01*
X132589921Y-86916640D02*
G75*
G02*
X132339023Y-86781110I-2J299998D01*
G01*
X135521079Y-77983514D02*
G75*
G02*
X135789407Y-78149350I-1J-300002D01*
G01*
X135789407Y-86750804D02*
G75*
G02*
X135521079Y-86916640I-268329J134166D01*
G01*
X136015506Y-76983514D02*
G75*
G02*
X136462719Y-77259907I1J-499997D01*
G01*
X136462719Y-87640247D02*
G75*
G02*
X136015506Y-87916640I-447212J223604D01*
G01*
X136771035Y-84368285D02*
G75*
G02*
X136771035Y-80531869I2174965J1918208D01*
G01*
X136771035Y-84368285D02*
G75*
G02*
X136814367Y-84700885I-225001J-198436D01*
G01*
X136814367Y-80199269D02*
G75*
G02*
X136771035Y-80531869I-268333J-134164D01*
G01*
X137824944Y-83984102D02*
G75*
G02*
X137824944Y-80916052I1121057J1534025D01*
G01*
X137824944Y-83984102D02*
G75*
G02*
X137977142Y-84611399I-295014J-403690D01*
G01*
X137977143Y-80288755D02*
G75*
G02*
X137824944Y-80916053I-447213J-223607D01*
G01*
X139914859Y-84611399D02*
G75*
G02*
X140067060Y-83984104I447222J223602D01*
G01*
X140067058Y-80916052D02*
G75*
G02*
X139914854Y-80288752I295013J403695D01*
G01*
X140067058Y-80916052D02*
G75*
G02*
X140067058Y-83984102I-1121058J-1534025D01*
G01*
X141077635Y-84700885D02*
G75*
G02*
X141120965Y-84368283I268316J134168D01*
G01*
X141120967Y-80531869D02*
G75*
G02*
X141077631Y-80199267I225014J198442D01*
G01*
X141120967Y-80531869D02*
G75*
G02*
X141120967Y-84368285I-2174966J-1918208D01*
G01*
X141429283Y-77259907D02*
G75*
G02*
X141876496Y-76983510I447158J-223510D01*
G01*
X141876496Y-87916640D02*
G75*
G02*
X141429305Y-87640236I5J499963D01*
G01*
X142102595Y-78149350D02*
G75*
G02*
X142370923Y-77983513I268306J-134127D01*
G01*
X142370923Y-86916640D02*
G75*
G02*
X142102596Y-86750804I-22J299963D01*
G01*
X145302081Y-77983514D02*
G75*
G02*
X145552979Y-78119044I20J-299963D01*
G01*
X145552979Y-78119044D02*
G75*
G02*
X146516688Y-80192934I-6606938J-4331013D01*
G01*
X145552979Y-86781110D02*
G75*
G02*
X145302081Y-86916640I-250878J164433D01*
G01*
X145720457Y-76983514D02*
G75*
G02*
X146123682Y-77187897I44J-499863D01*
G01*
X146123698Y-77187885D02*
G75*
G02*
X147290277Y-79354425I-7177697J-5262192D01*
G01*
X146123698Y-87712269D02*
G75*
G02*
X145720457Y-87916659I-403297J295692D01*
G01*
X146516688Y-84707220D02*
G75*
G02*
X145552979Y-86781110I-7570647J2257123D01*
G01*
X146516688Y-84707220D02*
G75*
G02*
X146995846Y-84350095I479213J-142957D01*
G01*
X146995846Y-80550077D02*
G75*
G02*
X146516716Y-80192926I-45J499900D01*
G01*
X147290277Y-85545729D02*
G75*
G02*
X146123698Y-87712269I-8344276J3095652D01*
G01*
X147290277Y-85545729D02*
G75*
G02*
X147571544Y-85350089I281324J-104448D01*
G01*
X147571544Y-79550077D02*
G75*
G02*
X147290300Y-79354417I-43J299900D01*
G01*
X153546001Y-79550077D02*
G75*
G02*
X153546001Y-80550077I0J-500000D01*
G01*
X153546001Y-84350077D02*
G75*
G02*
X153546001Y-85350077I0J-500000D01*
G01*
%TO.C,BT1*%
X122356001Y-64280077D02*
X130330458Y-64280077D01*
X122356001Y-69080077D02*
X130906156Y-69080077D01*
X130330458Y-70080077D02*
X122356001Y-70080077D01*
X130906156Y-65280077D02*
X122356001Y-65280077D01*
X132181545Y-61713514D02*
X136025506Y-61713514D01*
X132599921Y-71646640D02*
X135531079Y-71646640D01*
X135531079Y-62713514D02*
X132599921Y-62713514D01*
X135799407Y-71480804D02*
X136824367Y-69430885D01*
X136025506Y-72646640D02*
X132181545Y-72646640D01*
X136472719Y-61989907D02*
X137987143Y-65018755D01*
X136824367Y-64929269D02*
X135799407Y-62879350D01*
X137987143Y-69341399D02*
X136472719Y-72370247D01*
X139924859Y-65018755D02*
X141439283Y-61989907D01*
X141087635Y-69430885D02*
X142112595Y-71480804D01*
X141439283Y-72370247D02*
X139924859Y-69341399D01*
X141886496Y-61713514D02*
X145730457Y-61713514D01*
X142112595Y-62879350D02*
X141087635Y-64929269D01*
X142380923Y-71646640D02*
X145312081Y-71646640D01*
X145312081Y-62713514D02*
X142380923Y-62713514D01*
X145730457Y-72646640D02*
X141886496Y-72646640D01*
X147005846Y-69080077D02*
X155556001Y-69080077D01*
X147581544Y-64280077D02*
X155556001Y-64280077D01*
X155556001Y-65280077D02*
X147005846Y-65280077D01*
X155556001Y-70080077D02*
X147581544Y-70080077D01*
X122356001Y-65280077D02*
G75*
G02*
X122356001Y-64280077I0J500000D01*
G01*
X122356001Y-70080077D02*
G75*
G02*
X122356001Y-69080077I0J500000D01*
G01*
X130330458Y-70080077D02*
G75*
G02*
X130611725Y-70275729I1J-299997D01*
G01*
X130611725Y-64084425D02*
G75*
G02*
X130330458Y-64280077I-281266J104345D01*
G01*
X130611725Y-64084425D02*
G75*
G02*
X131778304Y-61917885I8344251J-3095640D01*
G01*
X130906156Y-69080077D02*
G75*
G02*
X131385314Y-69437220I0J-500001D01*
G01*
X131385314Y-64922934D02*
G75*
G02*
X130906156Y-65280077I-479158J142858D01*
G01*
X131385314Y-64922934D02*
G75*
G02*
X132349023Y-62849044I7570651J-2257124D01*
G01*
X131778304Y-61917885D02*
G75*
G02*
X132181545Y-61713514I403242J-295630D01*
G01*
X131778304Y-72442269D02*
G75*
G02*
X130611725Y-70275729I7177672J5262180D01*
G01*
X132181545Y-72646640D02*
G75*
G02*
X131778304Y-72442269I1J500001D01*
G01*
X132349023Y-62849044D02*
G75*
G02*
X132599921Y-62713514I250896J-164468D01*
G01*
X132349023Y-71511110D02*
G75*
G02*
X131385314Y-69437220I6606942J4331014D01*
G01*
X132599921Y-71646640D02*
G75*
G02*
X132349023Y-71511110I-2J299998D01*
G01*
X135531079Y-62713514D02*
G75*
G02*
X135799407Y-62879350I-1J-300002D01*
G01*
X135799407Y-71480804D02*
G75*
G02*
X135531079Y-71646640I-268329J134166D01*
G01*
X136025506Y-61713514D02*
G75*
G02*
X136472719Y-61989907I1J-499997D01*
G01*
X136472719Y-72370247D02*
G75*
G02*
X136025506Y-72646640I-447212J223604D01*
G01*
X136781035Y-69098285D02*
G75*
G02*
X136781035Y-65261869I2174965J1918208D01*
G01*
X136781035Y-69098285D02*
G75*
G02*
X136824367Y-69430885I-225001J-198436D01*
G01*
X136824367Y-64929269D02*
G75*
G02*
X136781035Y-65261869I-268333J-134164D01*
G01*
X137834944Y-68714102D02*
G75*
G02*
X137834944Y-65646052I1121057J1534025D01*
G01*
X137834944Y-68714102D02*
G75*
G02*
X137987142Y-69341399I-295014J-403690D01*
G01*
X137987143Y-65018755D02*
G75*
G02*
X137834944Y-65646053I-447213J-223607D01*
G01*
X139924859Y-69341399D02*
G75*
G02*
X140077060Y-68714104I447222J223602D01*
G01*
X140077058Y-65646052D02*
G75*
G02*
X139924854Y-65018752I295013J403695D01*
G01*
X140077058Y-65646052D02*
G75*
G02*
X140077058Y-68714102I-1121058J-1534025D01*
G01*
X141087635Y-69430885D02*
G75*
G02*
X141130965Y-69098283I268316J134168D01*
G01*
X141130967Y-65261869D02*
G75*
G02*
X141087631Y-64929267I225014J198442D01*
G01*
X141130967Y-65261869D02*
G75*
G02*
X141130967Y-69098285I-2174966J-1918208D01*
G01*
X141439283Y-61989907D02*
G75*
G02*
X141886496Y-61713510I447158J-223510D01*
G01*
X141886496Y-72646640D02*
G75*
G02*
X141439305Y-72370236I5J499963D01*
G01*
X142112595Y-62879350D02*
G75*
G02*
X142380923Y-62713513I268306J-134127D01*
G01*
X142380923Y-71646640D02*
G75*
G02*
X142112596Y-71480804I-22J299963D01*
G01*
X145312081Y-62713514D02*
G75*
G02*
X145562979Y-62849044I20J-299963D01*
G01*
X145562979Y-62849044D02*
G75*
G02*
X146526688Y-64922934I-6606938J-4331013D01*
G01*
X145562979Y-71511110D02*
G75*
G02*
X145312081Y-71646640I-250878J164433D01*
G01*
X145730457Y-61713514D02*
G75*
G02*
X146133682Y-61917897I44J-499863D01*
G01*
X146133698Y-61917885D02*
G75*
G02*
X147300277Y-64084425I-7177697J-5262192D01*
G01*
X146133698Y-72442269D02*
G75*
G02*
X145730457Y-72646659I-403297J295692D01*
G01*
X146526688Y-69437220D02*
G75*
G02*
X145562979Y-71511110I-7570647J2257123D01*
G01*
X146526688Y-69437220D02*
G75*
G02*
X147005846Y-69080095I479213J-142957D01*
G01*
X147005846Y-65280077D02*
G75*
G02*
X146526716Y-64922926I-45J499900D01*
G01*
X147300277Y-70275729D02*
G75*
G02*
X146133698Y-72442269I-8344276J3095652D01*
G01*
X147300277Y-70275729D02*
G75*
G02*
X147581544Y-70080089I281324J-104448D01*
G01*
X147581544Y-64280077D02*
G75*
G02*
X147300300Y-64084417I-43J299900D01*
G01*
X155556001Y-64280077D02*
G75*
G02*
X155556001Y-65280077I0J-500000D01*
G01*
X155556001Y-69080077D02*
G75*
G02*
X155556001Y-70080077I0J-500000D01*
G01*
%TD*%
M02*
