%TF.GenerationSoftware,KiCad,Pcbnew,9.0.7*%
%TF.CreationDate,2026-08-30T11:45:18+02:00*%
%TF.ProjectId,ECG_Business_Card,4543475f-4275-4736-996e-6573735f4361,rev?*%
%TF.SameCoordinates,Original*%
%TF.FileFunction,Legend,Top*%
%TF.FilePolarity,Positive*%
%FSLAX46Y46*%
G04 Gerber Fmt 4.6, Leading zero omitted, Abs format (unit mm)*
G04 Created by KiCad (PCBNEW 9.0.7) date 2026-08-30 11:45:18*
%MOMM*%
%LPD*%
G01*
G04 APERTURE LIST*
%ADD10C,0.120000*%
%ADD11C,0.127000*%
%ADD12C,0.100000*%
%ADD13C,0.150000*%
%ADD14C,0.152400*%
%ADD15C,0.200000*%
G04 APERTURE END LIST*
D10*
%TO.C,U3*%
X125122500Y-91510000D02*
X126642500Y-91510000D01*
X125122500Y-92510000D02*
X125122500Y-91510000D01*
X125122500Y-94630000D02*
X125122500Y-93630000D01*
X126642500Y-91510000D02*
X126642500Y-91560000D01*
X126642500Y-92680000D02*
X126642500Y-93460000D01*
X126642500Y-94580000D02*
X126642500Y-94630000D01*
X126642500Y-94630000D02*
X125122500Y-94630000D01*
X127182500Y-93450000D02*
X126942500Y-93120000D01*
X127422500Y-93120000D01*
X127182500Y-93450000D01*
G36*
X127182500Y-93450000D02*
G01*
X126942500Y-93120000D01*
X127422500Y-93120000D01*
X127182500Y-93450000D01*
G37*
D11*
%TO.C,Q1*%
X143550000Y-97550000D02*
X143850000Y-97550000D01*
X143550000Y-97700000D02*
X143550000Y-97550000D01*
X143550000Y-98850000D02*
X143550000Y-98700000D01*
X143850000Y-98850000D02*
X143550000Y-98850000D01*
D12*
X144930000Y-99100000D02*
G75*
G02*
X144770000Y-99100000I-80000J0D01*
G01*
X144770000Y-99100000D02*
G75*
G02*
X144930000Y-99100000I80000J0D01*
G01*
D10*
%TO.C,D1*%
X131075000Y-95362500D02*
X131075000Y-92702500D01*
X131075000Y-95362500D02*
X132775000Y-95362500D01*
X132775000Y-95362500D02*
X132775000Y-92702500D01*
D11*
%TO.C,Q2*%
X147960000Y-95145000D02*
X148110000Y-95145000D01*
X147960000Y-95445000D02*
X147960000Y-95145000D01*
X149110000Y-95145000D02*
X149260000Y-95145000D01*
X149260000Y-95145000D02*
X149260000Y-95445000D01*
D12*
X147790000Y-96445000D02*
G75*
G02*
X147630000Y-96445000I-80000J0D01*
G01*
X147630000Y-96445000D02*
G75*
G02*
X147790000Y-96445000I80000J0D01*
G01*
D10*
%TO.C,U2*%
X124327500Y-95015000D02*
X127547500Y-95015000D01*
X127547500Y-98285000D02*
X124327500Y-98285000D01*
X123797500Y-95400000D02*
X123467500Y-95640000D01*
X123467500Y-95160000D01*
X123797500Y-95400000D01*
G36*
X123797500Y-95400000D02*
G01*
X123467500Y-95640000D01*
X123467500Y-95160000D01*
X123797500Y-95400000D01*
G37*
D13*
%TO.C,U1*%
X137690000Y-93980500D02*
X140090000Y-93980500D01*
X137690000Y-95980500D02*
X137690000Y-93980500D01*
X139790000Y-96280500D02*
X140390000Y-96280500D01*
X140090000Y-93980500D02*
X140090000Y-95980500D01*
X140090000Y-95980500D02*
X137690000Y-95980500D01*
X140390000Y-96280500D02*
X140390000Y-95680500D01*
D10*
%TO.C,D2*%
X129040000Y-95365000D02*
X129040000Y-92705000D01*
X129040000Y-95365000D02*
X130740000Y-95365000D01*
X130740000Y-95365000D02*
X130740000Y-92705000D01*
D14*
%TO.C,U4*%
X151770300Y-96935200D02*
X152430700Y-96935200D01*
X152430700Y-93935200D02*
X151770300Y-93935200D01*
D15*
X153700500Y-97435200D02*
G75*
G02*
X153500500Y-97435200I-100000J0D01*
G01*
X153500500Y-97435200D02*
G75*
G02*
X153700500Y-97435200I100000J0D01*
G01*
%TD*%
M02*
